<svg width="569" height="113" viewBox="0 0 569 113" fill="none" xmlns="http://www.w3.org/2000/svg">
<path d="M92.1951 15.8049C82.0244 5.63415 68.4146 0 54 0C39.5854 0 26.0488 5.63415 15.8049 15.8049C5.63413 25.9756 0 39.5854 0 54C0 68.4146 5.63413 81.9512 15.8049 92.1951C25.9756 102.366 39.5854 108 54 108C68.4146 108 81.9512 102.366 92.1951 92.1951C102.439 82.0244 108 68.4146 108 54C108 39.5854 102.366 25.9756 92.1951 15.8049ZM102.293 53.9268C102.293 63 99.8049 71.9268 95.122 79.6098C93.6586 81.8781 91.9756 83.9268 90.1464 85.6829C81.2195 94.5366 73.6098 98.1951 68.1219 96.1463C62.4878 94.0976 58.9756 85.9756 57.9512 72.7317L57.7317 68.2683C57.2195 58.7561 57.2195 49.0244 57.7317 39.5122L57.9512 35.0488C58.9756 21.8049 62.561 13.6829 68.1219 11.6341C73.6098 9.58536 81.2195 13.2439 90.1464 22.0975C91.9756 23.9268 93.6586 25.9756 95.122 28.1707C99.8049 36 102.293 44.8536 102.293 53.9268ZM17.9268 85.7561C16.0976 83.9268 14.4146 81.878 12.9512 79.6829C8.19513 72 5.70731 63.0732 5.70731 54C5.70731 44.9268 8.19511 36 12.878 28.3171C14.3414 26.0488 16.0244 24 17.8537 22.2439C25.1708 15 31.6098 11.1951 36.7317 11.1951C37.8293 11.1951 38.9268 11.3415 39.8781 11.7073C45.5122 13.7561 49.0244 21.878 50.0488 35.1219L50.2683 39.5854C50.7805 49.0976 50.7805 58.8293 50.2683 68.3415L50.0488 72.8049C49.0244 86.0488 45.439 94.1707 39.8781 96.2195C34.4634 98.2683 26.8537 94.6097 17.9268 85.7561Z" fill="white"/>
<path d="M163.718 21.5415L136.125 93.1653H149.664L157.169 72.5964H183.07L191.017 93.1653H205.291L175.932 21.5415H163.718ZM161.143 61.5774L167.691 44.0938C168.501 41.89 169.237 39.6127 169.899 37.3355C170.708 39.6862 171.665 42.3308 172.768 45.1957L178.949 61.5039H161.143V61.5774Z" fill="white"/>
<path d="M222.14 21.5415H209.484V93.1653H222.14V21.5415Z" fill="white"/>
<path d="M302.934 53.8641C300.064 52.5418 294.987 51.0726 287.482 49.383C278.358 47.3261 275.562 45.71 274.753 44.9754C273.355 43.7266 272.692 42.2574 272.692 40.3474C272.692 38.0701 273.722 36.2336 275.709 34.544C277.843 32.8545 281.448 31.9729 286.452 31.9729C291.235 31.9729 294.84 32.9279 297.121 34.8379C299.402 36.7479 300.727 39.5394 301.168 43.3593L301.389 45.1223L313.603 44.2408L313.53 42.4778C313.383 38.1436 312.132 34.2502 309.851 30.7976C307.57 27.3449 304.332 24.7004 300.138 22.9373C296.091 21.2477 291.308 20.3662 286.084 20.3662C281.301 20.3662 276.813 21.1743 272.913 22.7904C268.866 24.48 265.702 26.9776 263.495 30.2834C261.361 33.5891 260.257 37.1151 260.257 40.9351C260.257 44.3877 261.14 47.5465 262.906 50.4115C264.672 53.203 267.321 55.5537 270.853 57.3902C273.502 58.786 277.99 60.2552 284.465 61.7978C290.573 63.267 294.619 64.369 296.385 65.0301C298.887 65.9851 300.727 67.1604 301.683 68.4827C302.64 69.7315 303.155 71.2008 303.155 72.9638C303.155 74.6534 302.64 76.2695 301.61 77.7387C300.506 79.2079 298.814 80.3833 296.533 81.2648C294.104 82.2198 291.308 82.6606 288.071 82.6606C284.465 82.6606 281.228 81.9994 278.358 80.8241C275.636 79.6487 273.575 78.106 272.324 76.196C271 74.2861 270.191 71.715 269.823 68.6296L269.602 66.8666L257.608 67.895L257.682 69.6581C257.829 74.5065 259.153 78.9875 261.729 82.8075C264.304 86.7009 267.836 89.6393 272.324 91.5493C276.666 93.4592 282.184 94.4142 288.512 94.4142C293.589 94.4142 298.299 93.4592 302.419 91.5493C306.613 89.6393 309.851 86.9213 312.132 83.3952C314.413 79.9426 315.516 76.1226 315.516 72.1557C315.516 68.1889 314.486 64.5893 312.353 61.4305C310.366 58.4187 307.202 55.8476 302.934 53.8641Z" fill="white"/>
<path d="M345.021 39.1719C338.473 39.1719 332.881 41.1553 328.318 45.1221C322.873 49.8236 320.077 57.1696 320.077 66.7929C320.077 75.5347 322.432 82.44 326.994 87.1415C331.556 91.9164 337.663 94.3406 345.095 94.3406C349.657 94.3406 353.998 93.2387 357.898 91.1083C361.871 88.9045 364.888 85.8192 366.949 81.9258C369.009 78.0324 370.039 72.7433 370.039 66.1318C370.039 57.8308 367.684 51.2193 363.049 46.4444C358.34 41.596 352.306 39.1719 345.021 39.1719ZM357.677 66.4256C357.677 72.3759 356.427 76.857 353.998 79.6485C351.57 82.44 348.627 83.7623 345.021 83.7623C341.342 83.7623 338.399 82.44 335.971 79.6485C333.543 76.857 332.292 72.5229 332.292 66.7195C332.292 60.9161 333.543 56.5819 335.971 53.7905C338.399 51.0724 341.342 49.7501 345.021 49.7501C348.627 49.7501 351.57 51.0725 353.998 53.8639C356.427 56.582 357.677 60.8427 357.677 66.4256Z" fill="white"/>
<path d="M408.228 73.0373C407.713 76.7838 406.462 79.5019 404.623 81.1914C402.783 82.881 400.502 83.6891 397.632 83.6891C394.1 83.6891 391.304 82.4402 389.097 79.8691C386.889 77.2245 385.712 72.7435 385.712 66.6463C385.712 60.6225 386.89 56.2149 389.244 53.5703C391.525 50.9258 394.468 49.6769 398.147 49.6769C400.502 49.6769 402.415 50.3381 404.107 51.7338C405.726 53.1296 406.904 55.3334 407.639 58.1983L408.007 59.8879L419.707 58.0514L419.339 56.2149C418.309 50.8523 415.88 46.5916 412.128 43.5797C408.375 40.6413 403.592 39.0986 397.853 39.0986C393.291 39.0986 389.023 40.2006 385.197 42.3309C381.224 44.5347 378.281 47.8404 376.367 52.1746C374.528 56.3618 373.571 61.3572 373.571 66.8667C373.571 75.535 375.779 82.2933 380.194 87.0683C384.608 91.8432 390.569 94.2674 397.853 94.2674C403.666 94.2674 408.669 92.5043 412.716 89.0517C416.763 85.599 419.265 80.7507 420.222 74.6535L420.516 72.8169L408.596 71.2743L408.228 73.0373Z" fill="white"/>
<path d="M435.75 40.2739H423.683V93.1654H435.75V40.2739Z" fill="white"/>
<path d="M435.75 21.5415H423.683V34.8378H435.75V21.5415Z" fill="white"/>
<path d="M478.57 74.8736C477.466 78.0324 475.921 80.3096 474.081 81.7054C472.242 83.1011 470.034 83.7623 467.312 83.7623C463.706 83.7623 460.763 82.5135 458.335 80.0158C456.201 77.812 454.95 74.7267 454.435 70.6863H491.005L491.078 68.9233C491.078 67.8949 491.152 67.1602 491.152 66.646C491.152 58.0512 488.871 51.2928 484.382 46.4444C479.894 41.596 473.934 39.1719 466.87 39.1719C459.586 39.1719 453.478 41.6695 448.916 46.5914C444.354 51.5132 442 58.4185 442 67.1602C442 75.6082 444.281 82.2931 448.843 87.068C453.405 91.8429 459.659 94.2671 467.312 94.2671C473.419 94.2671 478.57 92.7244 482.543 89.7126C486.516 86.7007 489.312 82.44 490.784 77.0039L491.373 74.9471L479.158 73.4779L478.57 74.8736ZM454.95 60.1815C455.465 57.2431 456.642 54.8924 458.556 53.0559C460.837 50.852 463.559 49.7501 466.944 49.7501C470.623 49.7501 473.566 51.1459 475.921 53.9374C477.098 55.4066 477.981 57.4635 478.422 60.255H454.95V60.1815Z" fill="white"/>
<path d="M556.714 40.274L545.751 70.1723C545.162 71.8619 544.574 73.5515 543.985 75.3145C543.396 73.478 542.808 71.715 542.145 70.0254L531.476 40.274H519.556H518.526H511.168V21.6885L499.174 28.8876V40.274H493.067V50.4115H499.174V76.9306C499.174 82.2932 499.542 85.6724 500.351 87.5089C501.161 89.4189 502.632 90.9616 504.619 92.1369C506.606 93.2388 509.181 93.8265 512.566 93.8265C514.552 93.8265 516.76 93.5327 519.262 93.0185L520.954 92.6512L519.188 81.779L517.422 81.9994C516.024 82.2198 514.847 82.2933 514.037 82.2933C512.86 82.2933 512.345 82.0729 512.124 81.926C511.756 81.7056 511.536 81.4852 511.388 81.1179C511.388 81.0444 511.094 80.3098 511.094 77.2245V50.4115H519.482V43.0654L537.804 91.4023C537.583 91.99 537.436 92.5043 537.289 92.7981C535.817 96.9119 535.155 98.2341 534.934 98.6014C534.419 99.483 533.684 100.144 532.874 100.585C532.065 101.026 530.814 101.246 529.342 101.246C528.165 101.246 526.693 101.026 525.075 100.585L522.426 99.8503L523.824 111.53L524.927 111.898C527.061 112.632 529.122 113 530.888 113C533.904 113 536.553 112.265 538.761 110.796C540.895 109.327 542.808 107.123 544.426 104.111C545.604 101.981 547.149 98.2341 549.209 92.7246L568.929 40.2005H556.714V40.274Z" fill="white"/>
</svg>
