<svg width="1022" height="738" xmlns="http://www.w3.org/2000/svg" xmlns:xlink="http://www.w3.org/1999/xlink" xml:space="preserve" overflow="hidden"><defs><clipPath id="clip0"><rect x="536" y="1847" width="1022" height="738"/></clipPath></defs><g clip-path="url(#clip0)" transform="translate(-536 -1847)"><path d="M1114.05 1849C1074.35 1987.42 1069 1983.09 1029.46 2120.59 992.714 2270.21 1061.25 2423.61 1132 2579.39 919.364 2594.8 779.151 2492.55 555.637 2565.28 465.683 2168.6 778.66 2046.6 1114.05 1849Z" fill="#FFFFFF" fill-rule="evenodd" fill-opacity="1"/><path d="M1408.22 2266C1320.09 2266 1233.39 2266 1145 2266 1145 2133.82 1145 2002.36 1145 1869 1256.56 1872.02 1357.21 1904.05 1436.72 1988.65 1508.1 2064.59 1546.8 2157.45 1556 2266 1505.22 2266 1457.44 2266 1408.22 2266Z" fill="#FFFFFF" fill-rule="evenodd" fill-opacity="1"/><path d="M1544.61 2385.98C1544.49 2387.27 1544.38 2388.57 1543.25 2391.26 1534.39 2410.44 1526.55 2428.23 1518.71 2446.01 1518.71 2446.01 1518.72 2446.02 1517.81 2446.33 1512.78 2451.44 1508.1 2455.83 1504.63 2461.09 1460.88 2527.36 1395.95 2546.86 1324 2551 1324 2469.61 1324 2388.23 1324 2305 1400.78 2305 1477.02 2305 1554.72 2306.42 1556.78 2316.78 1557.39 2325.71 1558 2334.65 1557.78 2335.96 1557.56 2337.28 1556.18 2340.05 1551.55 2356.33 1548.08 2371.15 1544.61 2385.98Z" fill="#FFFFFF" fill-rule="evenodd" fill-opacity="1"/><path d="M1288 2463.94C1288 2494.05 1288 2522.65 1288 2551.45 1272.05 2557.41 1258.15 2551.5 1243.61 2548.1 1202.18 2538.42 1176.76 2509.83 1159.72 2471.6 1153.87 2458.48 1152.4 2443.27 1147 2429.87 1141.49 2416.2 1148.12 2415.97 1157.59 2416.01 1191.58 2416.14 1225.57 2416.02 1259.57 2416 1268.54 2416 1277.51 2416 1288 2416 1288 2432.58 1288 2447.51 1288 2463.94Z" fill="#FFFFFF" fill-rule="evenodd" fill-opacity="1"/></g></svg>