<svg width="502" height="502" viewBox="0 0 502 502" fill="none" xmlns="http://www.w3.org/2000/svg">
<path d="M261.46 481.43C266.25 475.99 271.4 470.19 274.98 466.62C282.07 459.53 289.4 459.59 289.4 459.59C289.4 459.59 281.03 455.48 272.2 464.3C269.83 466.68 264.51 472.66 259.08 478.76C257.11 476.55 255.17 474.36 253.37 472.37C255.36 470.17 257.23 468.18 258.8 466.62C265.89 459.53 273.22 459.59 273.22 459.59C273.22 459.59 264.85 455.48 256.04 464.3C254.92 465.43 253.13 467.36 251 469.72C248.87 467.35 247.07 465.42 245.96 464.3C237.14 455.48 228.77 459.59 228.77 459.59C228.77 459.59 236.09 459.52 243.19 466.62C244.76 468.18 246.62 470.18 248.62 472.37C246.82 474.37 244.87 476.55 242.91 478.76C237.47 472.66 232.15 466.68 229.78 464.3C220.96 455.48 212.6 459.59 212.6 459.59C212.6 459.59 219.92 459.52 227.02 466.62C230.6 470.21 235.74 475.97 240.54 481.43C236.01 486.5 231.69 491.29 229.23 493.74C223.33 499.65 216.45 500.1 216.45 500.1C216.45 500.1 223.85 504.43 233.93 494.12C235.79 492.22 239.15 488.42 242.91 484.12C244.96 486.45 246.9 488.64 248.52 490.46C247.31 491.77 246.23 492.91 245.4 493.73C239.5 499.64 232.61 500.09 232.61 500.09C232.61 500.09 240.01 504.41 250.11 494.1L251.01 493.17C251.33 493.51 251.64 493.83 251.91 494.1C261.99 504.41 269.39 500.09 269.39 500.09C269.39 500.09 262.51 499.63 256.61 493.73C255.77 492.9 254.69 491.76 253.48 490.46C255.11 488.65 257.04 486.45 259.09 484.12C262.87 488.42 266.2 492.21 268.08 494.12C278.16 504.43 285.56 500.1 285.56 500.1C285.56 500.1 278.68 499.65 272.78 493.74C270.33 491.29 266 486.49 261.47 481.43H261.46ZM251 487.77C249.22 485.83 247.28 483.66 245.29 481.43C247.18 479.28 249.12 477.09 251 474.99C252.88 477.09 254.82 479.28 256.71 481.43C254.71 483.66 252.77 485.83 251 487.77ZM65.76 176.73C66.85 180.21 70.02 182.37 74.06 182.37C75.23 182.37 76.42 182.18 77.6 181.82C77.74 182.06 77.91 182.3 78.14 182.62C78.7286 183.428 79.4486 184.131 80.27 184.7C80.53 184.87 80.82 184.96 81.11 184.96C81.59 184.96 82.05 184.73 82.35 184.31C82.82 183.63 82.65 182.7 81.96 182.23C81.44 181.88 80.96 181.4 80.54 180.85C80.45 180.72 80.39 180.65 80.33 180.56C81.9 179.6 83.19 178.34 83.98 176.85C84.98 174.95 85.17 172.88 84.54 170.85C83.93 168.91 82.36 168.32 81.52 168.26C81.42 168.26 81.32 168.3 81.22 168.32C81.12 167.83 81 167.34 80.85 166.86C79.4 162.26 75.23 158.55 72.07 158.83C71.71 158.52 71.09 158.14 70.32 158.39C69.55 158.62 69.26 159.24 69.11 159.75C68.32 160.2 67.63 160.96 67.09 161.99C65.74 164.55 65.5 168.23 66.48 171.35C66.63 171.83 66.81 172.3 67.01 172.76C66.92 172.8 66.83 172.82 66.75 172.88C66.1 173.4 65.15 174.8 65.76 176.74V176.73ZM81.86 172.45C82.02 173.47 81.84 174.49 81.34 175.44C80.51 177.02 78.84 178.3 76.76 178.95C75.85 179.23 74.94 179.38 74.05 179.38C71.61 179.38 69.73 178.32 68.87 176.51C69.83 176.75 70.82 176.8 71.43 176.8C72.88 176.8 74.41 176.56 75.88 176.11C78.36 175.33 80.59 173.95 81.87 172.45H81.86ZM69.74 163.38C70.1 162.69 70.48 162.37 70.73 162.29C71.01 162.2 71.23 162.05 71.4 161.87C71.64 161.92 71.9 161.91 72.19 161.82C73.39 161.46 76.8 163.97 78 167.75C78.39 169 78.55 170.28 78.5 171.5C77.67 172.13 76.48 172.8 74.98 173.27C73.81 173.63 72.58 173.83 71.42 173.83C71.29 173.83 71.19 173.83 71.07 173.81C70.34 172.84 69.72 171.73 69.33 170.47C68.48 167.73 68.94 164.88 69.73 163.37L69.74 163.38ZM100.25 201.46C102.27 201.42 103.3 200.08 103.59 199.29C103.62 199.2 103.61 199.1 103.62 199.01C104 199.04 104.38 199.06 104.78 199.06H105.11C108.38 198.99 111.79 197.59 113.79 195.5C114.6 194.66 115.1 193.75 115.27 192.86C115.66 192.6 116.19 192.13 116.17 191.33C116.17 190.52 115.65 190.06 115.2 189.77C114.44 186.66 109.68 183.92 104.78 184.02C104.28 184.02 103.77 184.07 103.29 184.14C103.27 184.04 103.29 183.94 103.25 183.83C102.94 183.07 101.9 181.81 99.84 181.81C97.41 181.87 95.24 182.98 93.73 184.96C92.88 186.08 92.3 187.43 91.97 188.9C91.88 188.87 91.78 188.84 91.64 188.8C90.99 188.59 90.39 188.29 89.85 187.9C89.692 187.783 89.5124 187.699 89.3217 187.652C89.1309 187.604 88.9327 187.595 88.7384 187.625C88.5441 187.655 88.3577 187.723 88.1898 187.825C88.0218 187.927 87.8758 188.061 87.76 188.22C87.27 188.88 87.41 189.83 88.08 190.31C88.87 190.89 89.76 191.35 90.72 191.66C91.1 191.79 91.38 191.86 91.65 191.92C91.8 197.48 95.32 201.51 100.06 201.51C100.06 201.47 100.24 201.47 100.26 201.47L100.25 201.46ZM104.84 186.98C108.77 186.84 112.28 189.34 112.31 190.54C112.31 190.85 112.39 191.11 112.51 191.33C112.39 191.55 112.33 191.82 112.34 192.12C112.34 192.36 112.16 192.83 111.62 193.4C110.45 194.63 107.88 195.98 105.04 196.04C103.74 196.07 102.47 195.87 101.33 195.5C100.95 194.52 100.63 193.19 100.59 191.59C100.56 190.04 100.81 188.72 101.13 187.73C102.26 187.28 103.51 187 104.84 186.97V186.98ZM94.62 191.74C94.57 189.8 95.09 188.03 96.08 186.74C96.66 185.98 97.63 185.1 99.15 184.84C98.17 186.52 97.55 189.12 97.61 191.68C97.67 194.17 98.36 196.76 99.48 198.44C96.7 198.11 94.69 195.4 94.62 191.74ZM84.1 273.76C84.38 272.63 84.37 271.6 84.08 270.74C84.29 270.32 84.52 269.63 84.1 268.94C83.7 268.26 83.02 268.11 82.49 268.08C80.29 265.77 74.73 265.77 70.58 268.26C70.15 268.52 69.73 268.8 69.34 269.1C69.28 269.02 69.23 268.92 69.15 268.86C69.01 268.75 68.28 268.22 67.17 268.22C66.49 268.22 65.82 268.42 65.2 268.79C63.12 270.05 61.79 272.09 61.45 274.56C61.26 275.95 61.45 277.41 61.88 278.86C61.78 278.88 61.68 278.91 61.54 278.94C60.86 279.08 60.19 279.11 59.55 279.04C58.73 278.94 57.98 279.53 57.89 280.35C57.8 281.17 58.38 281.91 59.2 282C59.54 282.04 59.88 282.06 60.22 282.06C60.86 282.06 61.51 281.99 62.16 281.86C62.55 281.77 62.83 281.7 63.1 281.63C65.07 284.87 68.14 286.81 71.34 286.81C72.76 286.81 74.1 286.42 75.34 285.67C77.07 284.63 77.3 282.96 77.15 282.14C77.13 282.04 77.07 281.97 77.04 281.88C77.48 281.67 77.93 281.43 78.35 281.17C81.14 279.49 83.4 276.57 84.1 273.76ZM72.12 270.83C75.53 268.78 79.76 269.18 80.37 270.18C80.53 270.46 80.73 270.66 80.95 270.79C80.95 271.03 81.03 271.29 81.19 271.56C81.32 271.77 81.39 272.27 81.19 273.04C80.79 274.68 79.23 277.13 76.78 278.6C75.66 279.28 74.47 279.74 73.29 279.97C72.47 279.31 71.54 278.31 70.71 276.96C69.9 275.61 69.46 274.32 69.25 273.29C70.02 272.35 70.99 271.5 72.11 270.83H72.12ZM65.61 280.04C64.61 278.38 64.18 276.59 64.4 274.97C64.53 274.02 64.94 272.76 66.12 271.79C66.1 273.75 66.85 276.31 68.17 278.51C69.52 280.73 71.42 282.56 73.15 283.44C70.6 284.53 67.42 283.08 65.6 280.05L65.61 280.04ZM31.92 276.88C32.28 277.23 32.67 277.56 33.06 277.85C33.01 277.93 32.93 277.99 32.89 278.08C32.58 278.86 32.44 280.54 33.91 281.93C35.39 283.32 37.23 284.06 39.26 284.06C41.9 284.06 44.63 282.78 46.73 280.55C46.97 280.69 47.23 280.82 47.59 280.97C48.5 281.39 49.46 281.65 50.45 281.74H50.6C51.36 281.74 52.02 281.17 52.09 280.39C52.1263 279.994 52.0049 279.6 51.7521 279.293C51.4993 278.986 51.1356 278.791 50.74 278.75C50.08 278.69 49.43 278.51 48.81 278.24C48.69 278.18 48.61 278.14 48.52 278.1C49.42 276.49 49.9 274.75 49.84 273.06C49.78 270.93 48.92 269.02 47.38 267.58C46.46 266.69 45.49 266.5 44.85 266.5C44.14 266.5 43.64 266.71 43.5 266.78C43.41 266.83 43.34 266.91 43.26 266.98C42.93 266.6 42.59 266.23 42.22 265.89C38.71 262.61 33.33 261.42 30.64 263.21C30.17 263.12 29.44 263.08 28.89 263.69C28.34 264.26 28.39 264.96 28.51 265.46C28.05 266.25 27.82 267.25 27.86 268.42C27.94 271.32 29.54 274.64 31.92 276.87V276.88ZM46.88 273.17C46.94 274.96 46.11 276.89 44.61 278.46C43.06 280.11 41.12 281.06 39.28 281.06C38.27 281.06 37.34 280.77 36.54 280.21C38.43 279.71 40.68 278.3 42.44 276.43C44.21 274.54 45.47 272.24 45.85 270.32C46.49 271.11 46.83 272.09 46.87 273.17H46.88ZM31.16 266.92C31.36 266.71 31.49 266.46 31.55 266.23C31.79 266.16 32.01 266.03 32.21 265.79C33.06 264.9 37.28 265.4 40.17 268.1C41.13 269 41.9 270.04 42.45 271.11C42.03 272.07 41.32 273.24 40.25 274.38C39.18 275.52 38.04 276.28 37.06 276.78C35.97 276.3 34.92 275.62 33.97 274.72C31.89 272.77 30.89 270.06 30.84 268.35C30.82 267.57 30.98 267.1 31.15 266.91L31.16 266.92ZM96.89 357.51C96.58 356.38 96.08 355.48 95.41 354.87C95.39 354.4 95.26 353.7 94.58 353.32C93.89 352.89 93.21 353.09 92.74 353.32C89.7 352.35 84.83 355.05 82.4 359.24C82.15 359.68 81.92 360.12 81.72 360.57C81.63 360.53 81.54 360.46 81.43 360.44C81.35 360.44 81.11 360.42 81.04 360.42C79.77 360.42 78.61 361.14 77.93 362.32C75.97 365.7 76.88 369.79 79.9 372.72C79.83 372.78 79.74 372.85 79.63 372.95C79.11 373.4 78.55 373.74 77.94 374C77.18 374.32 76.81 375.19 77.12 375.95C77.36 376.53 77.91 376.88 78.5 376.88C78.69 376.88 78.89 376.84 79.07 376.76C79.98 376.39 80.83 375.86 81.59 375.2C81.89 374.95 82.1 374.74 82.3 374.55C84.09 375.56 86.02 376.12 87.89 376.12C90.95 376.12 93.53 374.67 94.96 372.17C95.97 370.42 95.36 368.85 94.84 368.19C94.78 368.11 94.68 368.07 94.61 368.02C94.89 367.61 95.17 367.2 95.42 366.76C97.06 363.94 97.63 360.32 96.88 357.5L96.89 357.51ZM84.98 360.75C86.97 357.31 90.87 355.62 91.9 356.21C92.18 356.38 92.44 356.44 92.7 356.45C92.83 356.65 93.01 356.85 93.28 357C93.48 357.13 93.79 357.52 93.99 358.28C94.44 359.93 94.27 362.82 92.83 365.28C92.18 366.39 91.38 367.36 90.49 368.12C89.43 367.95 88.07 367.55 86.72 366.77C85.36 365.98 84.35 365.06 83.67 364.28C83.89 363.09 84.32 361.88 84.98 360.74V360.75ZM83.74 371.95C81 370.37 79.04 367.38 80.19 364.49C81.11 366.22 82.98 368.06 85.23 369.37C87.43 370.63 90.02 371.38 91.96 371.29C90.28 373.45 86.79 373.72 83.73 371.95H83.74ZM72 378.43C71.8385 378.069 71.5407 377.786 71.1717 377.644C70.8026 377.502 70.3922 377.511 70.03 377.67C69.44 377.94 68.79 378.1 68.1 378.16C67.95 378.18 67.86 378.18 67.75 378.19C67.75 376.69 67.5 375.23 66.91 373.95C65.87 371.71 64 370.13 61.65 369.54C59.93 369.11 58.42 369.99 57.87 370.77C57.81 370.86 57.8 370.95 57.76 371.05C57.29 370.88 56.81 370.74 56.32 370.61C51.65 369.45 46.38 371.05 44.9 373.91C44.44 374.08 43.77 374.4 43.6 375.2C43.4 375.97 43.77 376.54 44.13 376.93C44.1 377.84 44.39 378.83 44.99 379.83C46.48 382.31 49.49 384.43 52.66 385.23C53.15 385.36 53.64 385.43 54.13 385.51C54.13 385.61 54.08 385.71 54.09 385.8C54.2 386.63 54.91 388.17 56.87 388.66C57.52 388.83 58.17 388.9 58.81 388.9C62.78 388.9 66.22 385.81 67.39 381.2H67.42C67.69 381.2 67.98 381.18 68.36 381.14C69.37 381.05 70.35 380.8 71.25 380.4C72.01 380.07 72.34 379.17 72.01 378.43H72ZM47.56 378.28C47.16 377.61 47.07 377.12 47.14 376.89C47.21 376.59 47.2 376.32 47.14 376.08C47.31 375.89 47.44 375.66 47.5 375.36C47.81 374.16 51.75 372.55 55.58 373.5C56.87 373.82 58.03 374.38 59.04 375.07C59.13 376.11 59.08 377.45 58.71 378.96C58.32 380.5 57.71 381.75 57.14 382.61C55.94 382.73 54.66 382.64 53.39 382.31C50.64 381.63 48.44 379.75 47.57 378.28H47.56ZM64.51 380.41C63.69 383.7 61.4 385.89 58.81 385.89C58.64 385.89 58.47 385.89 58.3 385.86C59.78 384.44 61.03 382 61.61 379.68C62.22 377.21 62.21 374.53 61.61 372.66C63.02 373.23 63.78 374.33 64.19 375.19C64.87 376.68 64.98 378.52 64.5 380.4L64.51 380.41ZM144.55 444.39H144.68C150.2 444.39 154.4 440.83 154.44 436.12C154.47 434.09 153.17 433.01 152.39 432.7C152.3 432.67 152.21 432.68 152.11 432.66C152.17 432.17 152.2 431.68 152.21 431.17C152.25 427.9 150.97 424.44 148.95 422.37C148.13 421.54 147.26 421 146.37 420.8C146.13 420.4 145.66 419.84 144.85 419.84C144.04 419.82 143.58 420.32 143.28 420.74C140.16 421.39 137.22 426.12 137.15 430.95C137.15 431.45 137.17 431.96 137.21 432.45C137.11 432.47 137 432.45 136.9 432.48C136.11 432.77 134.78 433.82 134.77 435.83C134.74 438.26 135.78 440.47 137.7 442.05C138.79 442.95 140.12 443.56 141.57 443.95C141.54 444.04 141.51 444.14 141.45 444.27C141.21 444.93 140.89 445.51 140.49 446.01C139.97 446.66 140.07 447.59 140.72 448.12C141 448.34 141.33 448.46 141.66 448.46C142.1 448.46 142.53 448.26 142.82 447.89C143.444 447.11 143.934 446.231 144.27 445.29C144.39 444.91 144.47 444.64 144.55 444.38V444.39ZM143.96 423.66C144.28 423.69 144.54 423.6 144.77 423.49C144.98 423.62 145.25 423.69 145.56 423.69C145.8 423.69 146.25 423.89 146.8 424.46C147.99 425.67 149.25 428.28 149.21 431.13C149.19 432.45 148.92 433.69 148.49 434.84C147.51 435.16 146.19 435.44 144.61 435.44C143.295 435.421 141.992 435.191 140.75 434.76C140.35 433.61 140.1 432.34 140.12 431.01C140.18 427.04 142.75 423.66 143.94 423.66H143.96ZM137.79 436.62C139.44 437.68 142.01 438.37 144.75 438.42C147.28 438.42 149.76 437.8 151.39 436.81C150.93 439.83 147.77 441.4 144.67 441.4H144.53C142.59 441.38 140.84 440.79 139.59 439.75C138.84 439.14 137.98 438.14 137.79 436.62ZM135.83 454.21C135.44 454.73 134.95 455.2 134.38 455.58C134.26 455.66 134.18 455.71 134.1 455.77C132.45 452.8 129.68 450.94 126.61 450.94C125.92 450.94 125.22 451.04 124.53 451.22C122.58 451.75 121.91 453.29 121.82 454.13C121.82 454.24 121.85 454.33 121.86 454.44C121.37 454.52 120.88 454.62 120.39 454.75C115.74 456.02 111.91 460.01 112.03 463.22C111.72 463.57 111.31 464.17 111.53 464.97C111.73 465.73 112.34 466.05 112.84 466.2C113.26 467.02 114 467.73 115.02 468.32C116.63 469.24 118.73 469.74 120.85 469.74C122.03 469.74 123.23 469.58 124.35 469.28C124.84 469.14 125.31 468.99 125.77 468.82C125.81 468.9 125.82 468.99 125.88 469.07C126.32 469.66 127.3 470.35 128.62 470.35C128.97 470.35 129.34 470.3 129.7 470.21C131.75 469.66 133.38 468.39 134.44 466.54C135.71 464.33 136 461.42 135.23 458.56C135.47 458.42 135.72 458.27 136.05 458.05C136.88 457.49 137.62 456.8 138.21 456C138.71 455.33 138.57 454.4 137.92 453.9C137.26 453.41 136.32 453.55 135.83 454.21ZM123.59 466.39C120.84 467.15 118 466.57 116.53 465.73C115.85 465.33 115.53 464.94 115.48 464.72C115.41 464.42 115.27 464.18 115.09 464C115.15 463.76 115.15 463.5 115.06 463.2C114.74 462 117.38 458.67 121.2 457.62C122.47 457.27 123.75 457.16 124.96 457.25C125.56 458.11 126.18 459.33 126.6 460.84C127.01 462.35 127.09 463.7 127.01 464.75C126 465.47 124.86 466.04 123.59 466.39ZM131.86 465.05C131.32 465.98 130.56 466.68 129.61 467.08C130.17 465.21 130.14 462.54 129.48 460.07C128.84 457.76 127.54 455.35 126.04 453.96C128.83 453.62 131.42 455.83 132.36 459.29C132.93 461.41 132.76 463.51 131.86 465.06V465.05Z" fill="#C18F54"/>
<path d="M226.05 484.52C227.06 484.52 227.99 484.46 228.21 483.73C228.243 483.627 228.257 483.518 228.25 483.41C228.27 483.36 228.27 483.3 228.28 483.24C228.34 482.55 228.37 481.78 218.48 479.97C218.57 476.34 218.37 469.07 213.97 466.23C213.06 465.65 212.13 465.36 211.23 465.36C208.72 465.36 207.4 467.47 206.52 468.85C206.38 469.08 206.19 469.38 206.02 469.61C205.59 469.27 205.38 468.42 205.01 465.79L204.77 464.1C204.36 461.33 203.51 455.56 197.63 453.9C196.89 453.7 196.18 453.59 195.53 453.59C191.3 453.59 190.11 457.58 189.39 459.95C189.13 460.8 188.71 462.23 188.26 462.48C187.51 461.87 187.53 458 187.54 456.35V455.15C187.51 447.31 183.85 442.81 177.51 442.81C176.86 442.81 176.17 442.86 175.57 442.94C173.69 443.11 172.23 443.81 171.21 445.06C169.27 447.46 169.7 450.91 170.08 453.97C170.21 455.02 170.4 456.53 170.31 457.23C170.08 457.31 169.86 457.34 169.66 457.34C168.62 457.34 167.5 456.19 166.21 453.82C163.86 449.6 160.14 447.17 155.99 447.17C151.84 447.17 148.05 449.5 145.35 453.56C142.64 457.64 142.24 462.33 144.29 466.15C146.3 469.9 150.41 472.15 155.27 472.15C155.66 472.15 156.06 472.13 156.44 472.12C156.86 472.09 157.26 472.07 157.65 472.07C160.65 472.07 161.75 472.89 162.36 474.2C161.8 474.66 160.49 475.29 159.57 475.72C156.8 477.05 153.67 478.54 152.88 481.55C152.43 483.25 152.86 485.06 154.22 486.99C157.81 491.66 161.88 492.63 164.66 492.63C167.96 492.63 171.34 491.21 174.16 488.63C174.54 488.28 174.92 487.92 175.31 487.56C176.89 486.07 179.06 484.02 180.31 484.02C180.46 484.02 180.66 484.05 180.92 484.19C180.99 484.58 180.5 485.79 180.2 486.52C179.41 488.42 178.44 490.8 179.51 493.14C180.23 494.72 181.68 495.87 183.96 496.64C185.3 497.1 186.62 497.32 187.89 497.32C192.73 497.32 195.7 494.07 197.13 492.52L197.36 492.28C197.85 491.77 198.29 491.27 198.69 490.8C200.1 489.22 200.86 488.39 201.67 488.39H201.69C201.75 488.67 201.81 489.03 201.85 489.31C202.12 491.09 202.68 495.41 207.94 494.87C212.18 494.42 215.5 490.67 217.84 483.77C221.69 484.25 224.44 484.51 226.05 484.51V484.52ZM207.46 490.39C207.02 490.44 206.71 490.36 206.7 490.36C206.5 490.16 206.35 489.15 206.26 488.61C206.04 487.11 205.65 484.58 203.12 484.05C202.62 483.94 202.13 483.88 201.65 483.88C198.79 483.88 197.09 485.78 195.32 487.8C194.93 488.24 194.53 488.7 194.07 489.18L193.81 489.47C192.58 490.79 190.73 492.82 187.87 492.82C187.08 492.82 186.24 492.66 185.38 492.37C184.41 492.03 183.74 491.61 183.58 491.26C183.32 490.68 183.89 489.3 184.34 488.19C185.16 486.19 186.53 482.85 183.63 480.65C182.62 479.89 181.51 479.5 180.32 479.5C177.29 479.5 174.73 481.92 172.25 484.25C171.89 484.6 171.52 484.94 171.16 485.28C169.18 487.09 166.88 488.1 164.69 488.1C162.15 488.1 159.76 486.75 157.87 484.28C157.59 483.88 157.12 483.12 157.25 482.64C157.52 481.64 159.94 480.48 161.54 479.71C164.31 478.38 168.09 476.57 166.75 472.94C164.72 467.52 159.43 467.52 157.69 467.52C157.21 467.52 156.71 467.54 156.19 467.57C152.53 467.83 149.63 466.49 148.28 463.97C147.03 461.65 147.35 458.67 149.12 455.99C150.98 453.2 153.49 451.59 156.02 451.59C158.55 451.59 160.76 453.14 162.31 455.93C163.67 458.43 165.93 461.77 169.7 461.77C170.59 461.77 171.5 461.57 172.41 461.2C175.38 459.98 174.95 456.47 174.57 453.37C174.33 451.42 174 448.75 174.74 447.85C174.82 447.75 175.06 447.46 176.11 447.36C176.61 447.28 177.09 447.25 177.55 447.25C179.05 447.25 183.06 447.25 183.1 455.13V456.29C183.08 459.69 183.07 463.54 185.12 465.6C186.08 466.57 187.45 467.01 188.8 466.91C192.09 466.65 193.03 463.5 193.72 461.21C194.73 457.83 195.13 457.81 196.44 458.18C199.3 459 199.93 461.74 200.37 464.73L200.61 466.39C201.09 469.78 201.58 473.29 205.63 474.19C205.87 474.24 206.1 474.26 206.34 474.26C208.43 474.26 209.54 472.5 210.35 471.21C210.65 470.73 211.16 469.94 211.23 469.81C211.23 469.81 211.35 469.83 211.58 469.98C212.54 470.59 214.04 472.62 214.02 479.15C212.93 478.97 211.79 478.78 210.53 478.58C193.98 475.68 173.02 467.39 166.13 464.67C164.697 464.11 163.91 463.83 163.77 463.83C163.55 463.83 163.35 463.92 163.21 464.07C163.16 464.13 163.12 464.2 163.08 464.27C163.05 464.33 163.02 464.42 163.02 464.49C163.02 464.61 163.02 464.71 163.05 464.82C163.53 466.22 190.63 479.12 209.77 482.51C211.03 482.71 212.21 482.89 213.33 483.05C211.28 488.77 209.04 490.23 207.47 490.39H207.46ZM91.71 176.06L91.99 176.49L92.03 176.74H92.73C93.05 176.74 93.4 176.74 95.54 174.41C98.32 175.9 102.07 177.61 105.59 177.61C107.11 177.61 108.46 177.28 109.63 176.63C110.88 175.9 111.66 174.94 111.97 173.77C112.47 171.85 111.45 170.15 110.71 168.9C110.58 168.69 110.42 168.4 110.29 168.17C110.92 167.98 112.24 168.46 113.78 168.98L115.64 169.6C116.95 170.04 118.91 170.7 121.08 170.7C123.76 170.7 125.99 169.71 127.67 167.81C128.95 166.48 129.58 165.05 129.55 163.56C129.49 161.09 127.62 159.31 126.13 157.89C125.56 157.35 124.64 156.47 124.44 156.03C124.5 155.96 124.57 155.94 124.81 155.94C126.14 155.94 128.44 157.11 130.29 158.06L131.11 158.48C138.91 162.19 145.04 160.08 147.2 153.37C147.85 151.58 147.84 149.93 147.14 148.48C145.84 145.76 142.69 144.67 139.93 143.71C138.98 143.38 137.61 142.91 137.05 142.55C137.18 141.63 137.76 140.43 141.72 140.42C146.31 140.27 150.04 138.24 151.96 134.84C153.99 131.23 153.74 126.64 151.25 122.27C148.95 118.22 145.09 115.79 140.93 115.79C136.24 115.79 132.17 118.76 130.06 123.68C128.39 127.31 127.18 128.05 125.77 128.06C125.62 127.34 125.64 125.93 125.64 124.93C125.66 122 125.69 118.68 123.67 116.64C122.97 115.93 121.71 115.1 119.67 115.1C119.18 115.1 118.67 115.15 118.06 115.26C113.78 116.14 110.55 118.24 108.71 121.33C106.91 124.35 106.59 128.03 107.77 131.91C107.93 132.48 108.1 133.07 108.28 133.66C109.21 136.7 109.89 139.26 108.77 139.76C108.4 139.66 107.54 138.67 107.03 138.07C105.65 136.48 103.94 134.49 101.27 134.49C99.64 134.49 98.07 135.24 96.39 136.82C91.17 142.09 93.35 147.84 94.28 150.3L94.4 150.62C94.6 151.17 94.81 151.69 95.01 152.18C95.94 154.55 96.15 155.31 95.81 155.98C95.55 155.91 95.23 155.8 94.98 155.71C94.08 155.41 93.06 155.06 91.94 155.06C90.72 155.06 88.51 155.52 87.33 158.53C85.75 162.51 87.67 167.22 92.99 172.55C91.35 175.2 91.59 175.73 91.74 176.05L91.71 176.06ZM91.47 160.18C91.67 159.67 91.92 159.58 91.91 159.54C92.3 159.54 92.95 159.76 93.53 159.95C94.36 160.23 95.23 160.52 96.16 160.52C97.61 160.52 98.49 159.81 98.99 159.21C101.39 156.21 100.25 153.32 99.15 150.52C98.97 150.06 98.78 149.57 98.58 149.05L98.45 148.7C97.39 145.91 96.61 142.93 99.5 140.01C100.51 139.06 101.06 138.96 101.25 138.96C101.87 138.96 102.84 140.09 103.62 140.98C104.86 142.42 106.41 144.21 108.71 144.21C109.33 144.21 109.95 144.08 110.51 143.82C115.42 141.77 113.7 136.09 112.56 132.33C112.39 131.77 112.22 131.21 112.06 130.63C111.24 127.93 111.41 125.5 112.55 123.59C113.73 121.62 115.95 120.23 118.89 119.62C119.17 119.57 119.43 119.54 119.66 119.54C120.26 119.54 120.42 119.71 120.48 119.76C121.19 120.48 121.16 123.11 121.16 124.86C121.14 127.93 121.1 132.12 124.86 132.47C130.01 132.98 132.44 129.2 134.16 125.47C135.57 122.19 138.09 120.24 140.93 120.24C143.46 120.24 145.86 121.81 147.35 124.44C149.03 127.41 149.29 130.4 148.04 132.61C146.89 134.64 144.6 135.81 141.64 135.91C134.5 135.93 132.76 139.56 132.54 142.62C132.37 145.82 135.75 146.99 138.46 147.92C140.21 148.53 142.6 149.35 143.09 150.37C143.15 150.49 143.33 150.86 142.96 151.88C141.82 155.42 139.74 155.82 138.28 155.82C136.82 155.82 135.01 155.33 133.09 154.41L132.33 154.02C129.94 152.8 127.22 151.42 124.81 151.42C122.78 151.42 121.19 152.39 120.32 154.21C118.96 157.21 121.41 159.55 123.04 161.09C123.84 161.85 125.05 163.01 125.07 163.62C125.07 163.86 124.84 164.24 124.39 164.73C123.52 165.71 122.47 166.18 121.09 166.18C119.71 166.18 118.17 165.68 117.09 165.31L115.24 164.7C113.53 164.12 112.06 163.62 110.61 163.62C108.9 163.62 107.49 164.31 106.42 165.66C104.8 167.63 106.11 169.85 106.89 171.16C107.13 171.57 107.53 172.22 107.63 172.58C107.58 172.61 107.52 172.66 107.44 172.71C106.98 172.97 106.37 173.1 105.63 173.1C103.32 173.1 100.52 171.88 98.61 170.91C100.21 169.03 102.26 166.55 104.94 163.27C114.9 151.09 130.73 137.33 137.73 131.74L137.91 131.61C139.723 130.33 140.643 129.55 140.67 129.27L140.69 128.97L140.27 128.45H139.91C139.62 128.45 139.46 128.45 136.83 130.55C130.78 134.81 112.47 147.76 101.87 160.69C99.08 164.11 97.05 166.74 95.55 168.78C90.96 164.02 91 161.37 91.47 160.17V160.18ZM115.16 447.78C119.54 447.78 123.69 444.51 125.84 442.57C127.45 443.68 128.59 444.25 129.23 444.25C129.78 444.25 130.03 443.92 130.11 443.78C130.13 443.76 130.14 443.73 130.15 443.69C130.25 443.6 130.32 443.5 130.35 443.39C130.48 442.97 130.55 442.7 128 440.16C129.59 437.59 133.89 430.42 131.05 425.57C129.87 423.45 128.24 423.01 127.08 423.01C125.68 423.01 124.44 423.67 123.45 424.19C123.25 424.3 123.01 424.42 122.8 424.53C122.67 424.03 122.9 423.17 123.72 421L124.35 419.32C125.24 416.97 127.32 411.47 123.04 407.29C121.74 405.86 120.3 405.13 118.77 405.13C116.38 405.13 114.57 406.89 113.11 408.3C112.5 408.89 111.5 409.87 111.13 409.88C110.66 409.09 112.74 405.39 113.42 404.16L113.87 403.34C116.03 399.23 116.55 395.61 115.43 392.6C114.49 390.09 112.48 388.21 109.49 387.04C108.55 386.65 107.63 386.46 106.76 386.46C102.46 386.46 100.76 390.78 99.53 393.91C99.16 394.85 98.63 396.22 98.22 396.77C97.32 396.58 96.19 395.91 96.12 392.22C96.29 388.55 95.27 385.43 93.14 383.2C89.76 379.65 83.82 379.07 78.44 381.84C74.21 384.02 71.67 387.88 71.65 392.15C71.63 396.62 74.36 400.72 79.05 403.16C82.87 404.88 83.42 406.13 83.31 407.47C82.84 407.55 81.51 407.54 80.19 407.47C79.38 407.43 78.55 407.39 77.74 407.39C75.66 407.39 73.07 407.62 71.44 409.49C70.34 410.74 69.92 412.46 70.2 414.6C71.24 421.74 75.91 426.18 82.4 426.18C83.71 426.18 85.06 426 86.38 425.65C86.95 425.52 87.55 425.37 88.15 425.2C89.83 424.76 91.56 424.31 92.86 424.31C94.02 424.31 94.14 424.63 94.28 424.94C94.17 425.3 93.15 426.1 92.55 426.59C90.98 427.83 89.02 429.4 88.75 431.92C88.57 433.63 89.21 435.34 90.78 437.24C93 439.66 95.7 440.89 98.81 440.89C101.04 440.89 102.92 440.25 104.18 439.84L104.6 439.7C105.17 439.52 105.72 439.31 106.23 439.13C107.5 438.68 108.59 438.3 109.3 438.3C109.5 438.3 109.69 438.32 109.96 438.49C109.87 438.77 109.73 439.13 109.63 439.4C109.01 440.98 107.36 445.21 112.22 447.24C113.14 447.58 114.13 447.76 115.15 447.76L115.16 447.78ZM109.31 433.82C107.83 433.82 106.4 434.32 104.74 434.91C104.26 435.08 103.75 435.27 103.22 435.44L102.76 435.6C101.72 435.94 100.31 436.42 98.81 436.42C96.99 436.42 95.44 435.7 94.17 434.31C93.52 433.52 93.18 432.82 93.22 432.41C93.29 431.75 94.43 430.84 95.35 430.12C97.1 428.73 99.74 426.63 98.47 423.35C97.98 422.04 96.59 419.85 92.88 419.85C91.01 419.85 88.99 420.37 87.03 420.88C86.46 421.04 85.9 421.18 85.31 421.33C84.3 421.59 83.34 421.72 82.41 421.72C78.13 421.72 75.38 418.97 74.65 414.02C74.55 413.27 74.61 412.71 74.82 412.49C75.01 412.28 75.64 411.91 77.75 411.91C78.48 411.91 79.23 411.96 79.97 411.99C80.74 412.04 81.48 412.07 82.17 412.07C85.55 412.07 87.4 410.91 87.68 408.66C88.56 403.29 84.5 400.74 80.99 399.17C77.94 397.57 76.11 394.96 76.13 392.21C76.13 389.59 77.73 387.28 80.49 385.86C84.12 383.99 87.86 384.19 89.89 386.32C91.15 387.65 91.76 389.62 91.64 392.19C91.73 397.69 93.89 400.77 98.14 401.32L98.48 401.34C101.44 401.34 102.64 398.29 103.7 395.59C104.51 393.54 105.5 390.99 106.76 390.99C107.04 390.99 107.38 391.08 107.81 391.25C109.63 391.97 110.75 392.93 111.23 394.22C111.88 395.95 111.42 398.41 109.92 401.27L109.51 402.02C107.86 404.98 105.99 408.33 106.83 411.17C107.19 412.38 108.01 413.37 109.21 413.99C109.82 414.3 110.47 414.47 111.14 414.47C113.23 414.47 114.83 412.92 116.24 411.55C117.03 410.79 118.21 409.65 118.78 409.65C118.94 409.65 119.27 409.83 119.83 410.44C121.94 412.5 121.19 415.08 120.18 417.77L119.55 419.46C118.4 422.47 117.23 425.6 120.07 428.36C120.72 428.94 121.52 429.26 122.4 429.26C123.57 429.26 124.63 428.7 125.55 428.21C126.01 427.97 126.79 427.55 126.9 427.49C126.9 427.49 126.99 427.57 127.15 427.86C127.59 428.62 128.19 430.99 124.67 437.03C122.88 435.35 120.58 433.22 117.53 430.43C109.03 422.89 98.66 411 86.69 395.11C85.797 393.917 85.22 393.32 84.96 393.32C84.87 393.32 84.78 393.34 84.69 393.37C84.45 393.46 84.26 393.69 84.21 393.94C83.94 395.4 100.43 420.56 114.8 433.37C117.66 436 120.12 438.14 122.17 439.82C119.4 442.16 117.03 443.34 115.12 443.34C114.64 443.34 114.21 443.25 113.85 443.13C113.45 442.96 113.28 442.82 113.27 442.82C113.21 442.53 113.57 441.59 113.77 441.08C114.32 439.66 115.25 437.3 113.4 435.6C112.24 434.42 110.85 433.85 109.3 433.85L109.31 433.82ZM49.7 349.75C50.38 349.89 51.01 349.99 51.62 350.1C53.99 350.52 54.75 350.73 55.12 351.32C54.92 351.5 54.66 351.73 54.46 351.89C53.18 352.97 49.79 355.82 52.9 359.9C54.63 362.17 57.44 363.33 61.25 363.33C63.67 363.33 65.97 362.85 67.38 362.51C68.99 365.92 69.53 365.96 69.93 365.96C70.2 365.96 70.44 365.83 70.6 365.64L70.92 365.47C71.12 365.19 71.38 364.78 70.42 361.34C73.35 359.67 79.85 355.66 79.98 350.31C80.01 348.86 79.6 347.7 78.77 346.84C77.39 345.41 75.41 345.38 73.96 345.36C73.72 345.36 73.39 345.36 73.13 345.34C73.23 344.82 73.85 344.21 75.75 342.63L77.04 341.54C79.16 339.78 83.56 336.11 81.96 330.3C81.15 327.41 79.2 325.82 76.44 325.82C75.13 325.82 73.81 326.17 72.64 326.49C71.77 326.72 70.86 326.96 70.27 326.96C70.09 326.96 70.02 326.93 69.99 326.88C70.15 325.94 73.36 324.01 74.73 323.17L75.71 322.56C79.66 320.11 81.91 317.27 82.4 314.13C82.82 311.42 81.9 308.73 79.76 306.24C78.15 304.08 76.29 303.62 75.01 303.62C72.28 303.62 69.86 305.57 67.72 307.29C66.92 307.94 65.75 308.89 65.19 309.15C64.46 308.59 63.87 307.66 65.92 304.07C68.22 300.18 68.46 296.01 66.59 292.58C64.58 288.9 60.37 286.58 55.35 286.42L54.81 286.4C50.11 286.4 46.13 288.6 44.2 292.29C42.16 296.15 42.69 300.99 45.61 305.25C47.91 308.52 47.59 310.09 46.93 311.17C46.26 310.93 45.07 310.17 44.23 309.64C42.17 308.32 39.82 306.83 37.42 306.83C35.76 306.83 33.47 307.54 31.98 311.02C30.56 314.95 30.66 318.72 32.28 321.89C33.9 325.04 36.95 327.41 40.87 328.53C41.36 328.67 41.86 328.81 42.36 328.95C45.61 329.82 48.09 330.6 48.03 331.81C47.75 332.05 46.49 332.26 45.73 332.38C43.73 332.7 41.24 333.11 39.81 335.2C38.85 336.62 38.63 338.43 39.14 340.73C40.77 348 46.78 349.18 49.34 349.68L49.69 349.74L49.7 349.75ZM43.53 339.77C43.22 338.34 43.46 337.84 43.53 337.72C43.87 337.22 45.36 336.97 46.46 336.8C48.56 336.46 52.06 335.9 52.44 332.3C52.9 327.15 47.48 325.69 43.53 324.61C43.04 324.48 42.57 324.35 42.1 324.21C39.38 323.44 37.3 321.89 36.25 319.84C35.21 317.8 35.18 315.28 36.13 312.66C36.71 311.29 37.2 311.29 37.41 311.29C38.5 311.29 40.34 312.45 41.81 313.41C43.68 314.6 45.45 315.73 47.23 315.73C48.42 315.73 49.48 315.22 50.27 314.21C53.87 309.23 50.4 304.29 49.29 302.69C47.31 299.8 46.9 296.77 48.16 294.37C49.32 292.15 51.76 290.88 54.82 290.88H55.2C58.62 291.01 61.41 292.45 62.66 294.72C63.77 296.75 63.56 299.25 62.05 301.8C60.96 303.69 57.65 309.44 62.87 312.99C63.5 313.45 64.24 313.68 65.02 313.68C66.93 313.68 68.61 312.33 70.54 310.78C71.95 309.64 73.87 308.09 75.02 308.09C75.19 308.09 75.57 308.09 76.26 309.01C77.61 310.59 78.19 312.09 77.98 313.42C77.7 315.19 76.11 317.02 73.36 318.74L72.42 319.31C69.49 321.09 66.17 323.09 65.6 326C65.36 327.25 65.66 328.5 66.47 329.59C67.08 330.42 68.22 331.42 70.29 331.42C71.46 331.42 72.65 331.1 73.81 330.8C74.76 330.55 75.74 330.29 76.46 330.29C76.96 330.29 77.31 330.29 77.65 331.49C78.42 334.28 76.45 336.21 74.19 338.09L72.9 339.16C70.34 341.29 67.68 343.5 68.97 347.37C69.81 349.78 72.38 349.82 73.91 349.82C74.39 349.82 75.15 349.84 75.51 349.93V350.18C75.49 351.29 74.56 353.58 69.07 356.9C68.31 354.61 67.31 351.72 65.95 347.97C60.82 333.26 57.92 312.93 56.67 304.26C56.223 301.14 55.76 299.58 55.28 299.58L54.66 299.89C53.95 300.9 55.49 330.05 62.16 349.22C63.56 353.08 64.69 356.01 65.61 358.3C64.41 358.54 62.85 358.8 61.28 358.8C58.94 358.8 57.34 358.25 56.5 357.15C56.19 356.74 56.15 356.54 56.15 356.54C56.23 356.26 56.98 355.64 57.38 355.29C58.53 354.32 60.46 352.7 59.61 350.29C58.41 346.69 55.36 346.16 52.42 345.65C51.86 345.56 51.26 345.45 50.63 345.33L50.26 345.25C47.38 344.7 44.49 343.8 43.57 339.75L43.53 339.77ZM45.74 244.29L45.99 244.51C46.48 244.93 46.96 245.3 47.4 245.66C49.34 247.22 49.91 247.79 49.94 248.5C49.67 248.57 49.32 248.63 49.05 248.68C47.41 248.99 43.06 249.83 43.73 254.87C44.24 259 48.1 262.13 55.13 264.22C55.02 266.95 55.41 267.45 55.6 267.67C55.76 267.87 56.14 268.06 56.42 268.02C56.5 268.05 56.58 268.07 56.65 268.07C57.15 268.07 57.47 268.02 58.26 264.72C61.47 264.7 69.16 264.44 72.05 259.75C72.8 258.5 73.03 257.28 72.73 256.12C72.23 254.21 70.52 253.22 69.27 252.49C69.07 252.37 68.81 252.22 68.59 252.08C68.92 251.7 69.75 251.46 72.05 251.02L73.82 250.67C76.32 250.21 82.18 249.1 83.54 243.22C84.95 237.32 79.74 235.98 77.23 235.34C76.48 235.14 75.26 234.84 74.86 234.55C74.86 234.52 74.88 234.51 74.88 234.5C75.63 233.68 79.14 233.55 81.04 233.49L81.95 233.45C86.49 233.17 89.79 231.79 91.77 229.31C93.46 227.19 94.05 224.46 93.52 221.17C93.2 219.15 91.9 215.75 86.85 215.75C85.38 215.75 83.83 216.03 82.47 216.26C81.38 216.45 80.34 216.64 79.61 216.64H79.37C79.06 215.75 79.05 214.34 82.27 212.52C86.23 210.27 88.52 206.75 88.59 202.86C88.65 198.68 86.13 194.63 81.83 192.01C76.75 188.92 70.67 189.56 67.1 193.43C64.76 195.97 63.65 199.57 63.98 203.56C64.3 207.56 63.78 208.82 62.45 209.52C61.98 208.97 61.3 207.73 60.83 206.85C59.26 203.96 57.3 200.37 53.69 200.37C52.31 200.37 50.92 200.93 49.55 202.04C46.23 204.74 44.39 208.05 44.22 211.61C44.05 215.17 45.62 218.75 48.59 221.66C49 222.08 49.44 222.5 49.89 222.94C52.16 225.14 53.97 227.02 53.12 228.01C52.62 228.01 51.7 227.68 50.88 227.38C49.64 226.92 48.23 226.41 46.77 226.41C44.87 226.41 42.34 227.28 41.09 231.49C39.01 238.66 43.72 242.61 45.73 244.29H45.74ZM45.39 232.75C45.94 230.89 46.5 230.89 46.77 230.89C47.44 230.89 48.41 231.24 49.34 231.58C50.56 232.02 51.82 232.48 53.12 232.48C54.63 232.48 55.9 231.85 56.73 230.73C60.08 226.55 55.83 222.43 53.01 219.71C52.59 219.3 52.18 218.9 51.76 218.47C49.68 216.43 48.59 214.06 48.69 211.81C48.8 209.56 50.07 207.39 52.36 205.52C53.11 204.91 53.52 204.85 53.67 204.85C54.62 204.85 56.04 207.45 56.88 208.99C58.26 211.52 59.68 214.14 62.29 214.14C62.81 214.14 63.32 214.02 63.71 213.84C69.12 211.71 68.67 206.16 68.43 203.19C68.21 200.45 68.89 198.07 70.37 196.46C72.53 194.12 76.21 193.84 79.47 195.83C82.4 197.62 84.11 200.21 84.07 202.79C84.03 205.09 82.59 207.16 80.02 208.62C73.68 212.21 74.39 216.57 75.43 218.94C75.93 219.94 77.04 221.14 79.57 221.14C80.7 221.14 81.91 220.92 83.21 220.69C84.45 220.47 85.74 220.24 86.81 220.24C88.6 220.24 88.88 220.76 89.06 221.88C89.39 223.85 89.11 225.41 88.24 226.5C87.11 227.92 84.83 228.77 81.69 228.95L80.84 228.98C77.43 229.11 73.56 229.26 71.55 231.44C70.7 232.37 70.28 233.56 70.35 234.97C70.63 238.26 73.91 239.1 76.09 239.65C79.54 240.53 79.45 240.88 79.14 242.16C78.49 244.98 75.84 245.69 72.96 246.24L71.17 246.59C67.98 247.2 64.66 247.84 63.92 251.77C63.45 254.3 65.67 255.59 67 256.36C67.4 256.59 68.04 256.96 68.31 257.2C68.29 257.26 68.25 257.33 68.21 257.4C67.6 258.38 65.62 259.98 59.22 260.2C59.72 257.75 60.34 254.53 61.14 250.28C63.76 235.15 71.24 216.17 74.43 208.05C75.637 204.99 76.077 203.297 75.75 202.97C75.62 202.87 75.45 202.8 75.28 202.8C73.47 202.8 60.44 230.95 57.21 249.49C56.39 253.87 55.87 257.15 55.55 259.66C49.53 257.73 48.33 255.51 48.17 254.29C48.1 253.77 48.17 253.57 48.17 253.57C48.37 253.37 49.35 253.18 49.88 253.07C51.35 252.79 53.81 252.31 54.29 249.8C55.02 246.02 52.57 244.05 50.19 242.14C49.77 241.81 49.33 241.46 48.88 241.06L48.6 240.83C46.38 238.97 44.26 236.76 45.41 232.76L45.39 232.75ZM421.64 180.57C421.58 180.65 421.51 180.73 421.44 180.85C421.02 181.42 420.54 181.89 420.02 182.24C419.34 182.71 419.18 183.64 419.63 184.32C419.92 184.74 420.39 184.97 420.87 184.97C421.16 184.97 421.46 184.88 421.71 184.71C422.5 184.17 423.22 183.47 423.85 182.63C424.08 182.31 424.25 182.08 424.38 181.84C425.55 182.2 426.76 182.39 427.92 182.39C431.96 182.39 435.14 180.23 436.22 176.75C436.83 174.81 435.88 173.41 435.22 172.89C435.14 172.83 435.05 172.82 434.97 172.77C435.16 172.31 435.35 171.84 435.49 171.36C436.47 168.24 436.24 164.56 434.89 162C434.35 160.97 433.65 160.2 432.87 159.76C432.74 159.3 432.47 158.64 431.71 158.41C430.95 158.15 430.34 158.49 429.92 158.83C426.74 158.59 422.58 162.25 421.13 166.86C420.97 167.35 420.85 167.83 420.75 168.32C420.65 168.32 420.56 168.26 420.46 168.26C419.62 168.31 418.04 168.91 417.43 170.85C416.71 173.16 417.07 175.59 418.46 177.65C419.26 178.82 420.36 179.8 421.65 180.58L421.64 180.57ZM423.98 167.75C425.18 163.97 428.62 161.46 429.77 161.81C430.06 161.9 430.34 161.91 430.57 161.87C430.74 162.04 430.97 162.2 431.26 162.29C431.49 162.36 431.87 162.68 432.24 163.38C433.03 164.88 433.48 167.74 432.63 170.47C432.24 171.72 431.62 172.84 430.89 173.8C430.77 173.8 430.67 173.82 430.54 173.82C429.39 173.82 428.16 173.63 426.99 173.26C425.5 172.79 424.3 172.11 423.47 171.48C423.42 170.28 423.6 169.01 423.97 167.76L423.98 167.75ZM420.12 172.45C421.41 173.93 423.67 175.35 426.12 176.12C427.58 176.58 429.12 176.81 430.56 176.81C431.17 176.81 432.16 176.76 433.12 176.51C432.26 178.33 430.37 179.38 427.93 179.38C427.05 179.38 426.14 179.23 425.22 178.95C423.39 178.38 421.87 177.32 420.96 175.97C420.43 175.18 419.9 173.96 420.13 172.45H420.12ZM410.35 191.87C410.62 191.81 410.9 191.74 411.28 191.61C412.24 191.3 413.13 190.85 413.92 190.26C414.59 189.77 414.73 188.84 414.23 188.17C414.115 188.012 413.97 187.877 413.803 187.775C413.636 187.673 413.45 187.606 413.257 187.576C413.063 187.546 412.866 187.555 412.676 187.602C412.486 187.649 412.307 187.733 412.15 187.85C411.62 188.24 411 188.54 410.36 188.75C410.22 188.8 410.12 188.83 410.02 188.86C409.1 184.76 406.04 181.86 402.03 181.76C400.09 181.76 399.04 183.03 398.73 183.79C398.69 183.88 398.7 183.99 398.69 184.1C398.2 184.04 397.7 184 397.2 183.99C392.35 183.9 387.58 186.61 386.78 189.73C386.38 189.97 385.8 190.45 385.8 191.26C385.78 192.05 386.27 192.52 386.7 192.82C386.87 193.71 387.38 194.62 388.19 195.46C390.19 197.55 393.6 198.95 396.86 199.02H397.2C397.59 199.02 397.98 199 398.35 198.97C398.37 199.06 398.35 199.16 398.39 199.25C398.67 200.04 399.7 201.38 401.73 201.42H401.93C406.67 201.44 410.21 197.4 410.35 191.85V191.87ZM396.95 196.06C394.09 196 391.54 194.64 390.36 193.42C389.82 192.85 389.63 192.38 389.63 192.16C389.65 191.85 389.58 191.59 389.46 191.36C389.59 191.15 389.66 190.9 389.66 190.59C389.7 189.35 393.2 186.92 397.13 186.99C398.46 187.02 399.72 187.31 400.84 187.75C401.16 188.74 401.41 190.06 401.38 191.61C401.34 193.21 401.02 194.54 400.63 195.52C399.5 195.9 398.24 196.09 396.93 196.06H396.95ZM402.53 198.44C403.64 196.76 404.33 194.17 404.39 191.68C404.44 189.13 403.83 186.53 402.84 184.84C405.59 185.32 407.47 188.1 407.37 191.75C407.29 195.39 405.29 198.1 402.53 198.44ZM426.66 285.68C427.9 286.44 429.24 286.81 430.66 286.81C433.86 286.81 436.94 284.87 438.91 281.63C439.18 281.71 439.45 281.78 439.85 281.86C440.5 282 441.13 282.06 441.78 282.06C442.13 282.06 442.46 282.04 442.81 282C443.63 281.91 444.21 281.17 444.12 280.34C444.03 279.52 443.27 278.92 442.46 279.03C441.81 279.11 441.15 279.08 440.48 278.92C440.34 278.89 440.24 278.87 440.13 278.84C440.58 277.41 440.75 275.94 440.57 274.55C440.23 272.1 438.91 270.04 436.82 268.79C436.19 268.4 435.52 268.21 434.85 268.21C433.73 268.21 433 268.73 432.86 268.85C432.78 268.91 432.73 269.02 432.67 269.09C432.28 268.79 431.85 268.51 431.42 268.25C427.31 265.77 421.78 265.76 419.53 268.07C419.06 268.09 418.33 268.2 417.92 268.91C417.51 269.59 417.7 270.24 417.92 270.71C417.63 271.57 417.61 272.61 417.89 273.74C418.59 276.55 420.85 279.47 423.66 281.14C424.08 281.4 424.53 281.63 424.97 281.85C424.94 281.94 424.88 282.02 424.86 282.11C424.73 282.94 424.95 284.62 426.68 285.67L426.66 285.68ZM437.59 274.96C437.8 276.57 437.38 278.37 436.38 280.03C434.56 283.06 431.38 284.52 428.83 283.43C430.57 282.56 432.47 280.72 433.81 278.5C435.13 276.3 435.89 273.75 435.87 271.78C437.04 272.75 437.46 274.01 437.59 274.96ZM420.78 273.04C420.6 272.27 420.67 271.78 420.78 271.58C420.95 271.32 421.02 271.06 421.02 270.81C421.23 270.68 421.44 270.5 421.58 270.23C422.22 269.18 426.46 268.78 429.86 270.83C430.99 271.51 431.96 272.35 432.72 273.28C432.52 274.31 432.07 275.6 431.26 276.95C430.43 278.3 429.49 279.3 428.68 279.97C427.5 279.73 426.3 279.28 425.19 278.61C422.75 277.14 421.2 274.68 420.78 273.04ZM458.72 267.01C458.63 266.94 458.57 266.85 458.48 266.81C458.34 266.74 457.84 266.53 457.14 266.53C456.48 266.53 455.51 266.71 454.59 267.6C453.04 269.05 452.18 270.95 452.13 273.08C452.08 274.77 452.55 276.51 453.46 278.12C453.37 278.17 453.29 278.21 453.15 278.26C452.55 278.54 451.91 278.71 451.24 278.78C450.42 278.86 449.82 279.59 449.89 280.41C449.97 281.19 450.61 281.76 451.38 281.76C451.43 281.76 451.47 281.76 451.53 281.74C452.52 281.65 453.49 281.39 454.39 280.98C454.76 280.81 455.01 280.69 455.26 280.55C457.37 282.78 460.08 284.05 462.73 284.05C464.75 284.05 466.6 283.31 468.07 281.93C469.55 280.53 469.42 278.85 469.1 278.07C469.06 277.98 468.99 277.93 468.93 277.86C469.32 277.55 469.7 277.23 470.07 276.89C472.46 274.65 474.07 271.33 474.15 268.44C474.19 267.27 473.97 266.27 473.5 265.49C473.62 265.04 473.7 264.33 473.15 263.74C472.61 263.14 471.91 263.13 471.38 263.23C468.74 261.43 463.32 262.6 459.78 265.91C459.41 266.25 459.06 266.6 458.73 266.99L458.72 267.01ZM457.37 278.47C455.88 276.89 455.05 274.95 455.11 273.17C455.14 272.09 455.5 271.12 456.13 270.31C456.51 272.23 457.78 274.53 459.55 276.43C461.3 278.29 463.56 279.71 465.45 280.21C463.18 281.8 459.77 281.02 457.36 278.47H457.37ZM469.73 265.72C469.94 265.96 470.19 266.12 470.44 266.2C470.5 266.44 470.62 266.69 470.84 266.92C471.01 267.09 471.18 267.56 471.15 268.34C471.1 270.04 470.1 272.75 468.02 274.71C467.08 275.6 466.01 276.3 464.9 276.78C463.93 276.28 462.8 275.5 461.75 274.37C460.67 273.22 459.96 272.05 459.54 271.09C460.09 270.02 460.86 268.98 461.83 268.08C464.71 265.37 468.93 264.86 469.74 265.7L469.73 265.72ZM424.06 362.34C423.38 361.16 422.22 360.45 420.95 360.45C420.87 360.45 420.64 360.47 420.55 360.47C420.44 360.49 420.36 360.56 420.27 360.6C420.07 360.14 419.84 359.7 419.58 359.26C417.17 355.09 412.36 352.42 409.27 353.34C408.85 353.12 408.14 352.87 407.47 353.29C406.78 353.68 406.62 354.34 406.59 354.87C405.91 355.48 405.41 356.36 405.1 357.51C404.34 360.31 404.93 363.95 406.56 366.78C406.8 367.23 407.08 367.63 407.38 368.04C407.3 368.1 407.21 368.13 407.17 368.21C406.64 368.87 406.02 370.44 407.04 372.19C408.48 374.69 411.06 376.14 414.11 376.14C415.98 376.14 417.92 375.6 419.7 374.57C419.9 374.77 420.11 374.97 420.41 375.22C421.17 375.88 422.01 376.4 422.92 376.78C423.1 376.86 423.3 376.91 423.49 376.91C424.07 376.91 424.63 376.56 424.87 375.98C425.18 375.21 424.81 374.34 424.05 374.02C423.44 373.78 422.87 373.42 422.36 372.97C422.24 372.87 422.17 372.8 422.09 372.74C425.11 369.8 426.02 365.71 424.06 362.33V362.34ZM407.98 358.3C408.18 357.53 408.48 357.14 408.69 357.02C408.97 356.87 409.14 356.67 409.27 356.48C409.51 356.46 409.77 356.4 410.04 356.25C411.1 355.64 415 357.33 417 360.76C417.66 361.91 418.09 363.12 418.31 364.3C417.63 365.1 416.62 366.01 415.27 366.79C413.9 367.58 412.55 367.96 411.49 368.14C410.59 367.38 409.79 366.42 409.15 365.3C407.72 362.83 407.54 359.94 407.98 358.31V358.3ZM418.25 371.96C416.9 372.75 415.46 373.15 414.1 373.15C412.38 373.15 410.97 372.5 410.01 371.3C411.98 371.39 414.56 370.64 416.75 369.37C418.99 368.07 420.86 366.23 421.79 364.5C422.94 367.39 420.97 370.38 418.24 371.96H418.25ZM457.1 373.92C455.66 371.06 450.36 369.45 445.66 370.61C445.17 370.73 444.69 370.88 444.22 371.05C444.18 370.96 444.16 370.85 444.11 370.77C443.57 369.98 442.05 369.11 440.33 369.54C437.98 370.14 436.11 371.7 435.07 373.96C434.47 375.23 434.21 376.69 434.22 378.19C434.12 378.19 434.02 378.17 433.87 378.16C433.18 378.1 432.55 377.95 431.95 377.67C431.19 377.34 430.31 377.67 429.97 378.44C429.63 379.2 429.97 380.07 430.73 380.41C431.63 380.82 432.59 381.06 433.61 381.15C434 381.19 434.29 381.21 434.55 381.21H434.57C435.73 385.8 439.18 388.9 443.15 388.9C443.8 388.9 444.45 388.82 445.09 388.66C447.06 388.17 447.77 386.63 447.88 385.81C447.9 385.71 447.85 385.61 447.85 385.51C448.34 385.44 448.83 385.35 449.31 385.23C452.49 384.43 455.5 382.32 456.99 379.83C457.6 378.83 457.88 377.84 457.86 376.93C458.18 376.6 458.6 376.01 458.4 375.25C458.23 374.43 457.61 374.09 457.11 373.9L457.1 373.92ZM437.47 380.41C436.99 378.54 437.1 376.69 437.78 375.21C438.19 374.34 438.94 373.25 440.35 372.68C439.76 374.54 439.74 377.22 440.35 379.7C440.93 382.02 442.18 384.46 443.66 385.88C440.84 386.19 438.33 383.92 437.46 380.42L437.47 380.41ZM454.42 378.29C453.55 379.75 451.34 381.63 448.58 382.32C447.32 382.64 446.05 382.74 444.84 382.61C444.26 381.74 443.64 380.51 443.26 378.97C442.87 377.47 442.83 376.11 442.92 375.08C443.93 374.4 445.08 373.84 446.37 373.52C450.21 372.57 454.15 374.18 454.45 375.33C454.51 375.64 454.65 375.88 454.82 376.07C454.76 376.31 454.74 376.59 454.82 376.89C454.89 377.13 454.82 377.62 454.41 378.3L454.42 378.29ZM360.54 444.28C360.49 444.15 360.45 444.04 360.41 443.95C364.48 442.86 367.26 439.75 367.22 435.84C367.2 433.82 365.87 432.78 365.09 432.5C364.98 432.46 364.88 432.48 364.78 432.46C364.82 431.97 364.85 431.46 364.84 430.96C364.76 426.15 361.87 421.45 358.73 420.76C358.48 420.39 358.01 419.84 357.21 419.84C356.41 419.88 355.92 420.34 355.64 420.8C354.75 421 353.87 421.55 353.05 422.37C351.03 424.45 349.75 427.9 349.78 431.17C349.8 431.67 349.83 432.17 349.89 432.66C349.8 432.68 349.71 432.66 349.61 432.7C348.82 433.01 347.53 434.09 347.55 436.11C347.61 440.84 351.81 444.39 357.32 444.39H357.45C357.52 444.65 357.61 444.93 357.74 445.29C358.072 446.233 358.563 447.112 359.19 447.89C359.48 448.26 359.91 448.45 360.35 448.45C360.67 448.45 361.01 448.34 361.29 448.12C361.93 447.6 362.03 446.66 361.51 446.01C361.083 445.502 360.754 444.918 360.54 444.29V444.28ZM355.16 424.45C355.71 423.89 356.17 423.68 356.4 423.68C356.71 423.68 356.97 423.6 357.19 423.48C357.39 423.59 357.64 423.65 357.91 423.65H357.98C359.22 423.65 361.79 427.04 361.84 431C361.86 432.32 361.62 433.59 361.22 434.74C360.22 435.11 358.86 435.4 357.22 435.43C355.72 435.43 354.43 435.16 353.47 434.83C353.04 433.7 352.78 432.45 352.75 431.12C352.72 428.28 353.98 425.67 355.16 424.45ZM350.59 436.79C352.23 437.79 354.73 438.4 357.4 438.4C360 438.36 362.53 437.66 364.17 436.61C363.8 439.38 361.09 441.34 357.44 441.39H357.3C354.2 441.39 351.05 439.82 350.58 436.8L350.59 436.79ZM381.57 454.74C381.08 454.61 380.6 454.51 380.11 454.43C380.11 454.32 380.16 454.23 380.14 454.12C380.06 453.28 379.38 451.74 377.44 451.21C376.76 451.02 376.05 450.93 375.36 450.93C372.3 450.93 369.54 452.79 367.88 455.75C367.79 455.7 367.71 455.64 367.6 455.57C367.04 455.19 366.55 454.73 366.14 454.2C365.65 453.54 364.71 453.41 364.05 453.91C363.39 454.41 363.26 455.34 363.76 456C364.37 456.8 365.1 457.48 365.92 458.05C366.24 458.27 366.49 458.44 366.73 458.56C365.97 461.42 366.25 464.33 367.52 466.55C368.58 468.39 370.22 469.66 372.26 470.22C372.63 470.31 372.99 470.36 373.35 470.36C374.66 470.36 375.64 469.67 376.09 469.07C376.15 468.99 376.15 468.9 376.2 468.81C377.766 469.429 379.436 469.744 381.12 469.74C383.25 469.74 385.34 469.26 386.95 468.33C387.96 467.75 388.7 467.03 389.12 466.21C389.57 466.08 390.21 465.77 390.43 464.98C390.64 464.21 390.29 463.63 389.94 463.23C390.09 460.04 386.24 456.02 381.58 454.73L381.57 454.74ZM372.37 467.08C371.43 466.67 370.65 465.98 370.12 465.05C369.23 463.5 369.06 461.39 369.63 459.28C370.5 456.09 372.81 453.92 375.37 453.92C375.55 453.92 375.76 453.94 375.94 453.96C374.44 455.37 373.14 457.78 372.49 460.07C371.83 462.54 371.8 465.21 372.36 467.08H372.37ZM386.89 464C386.72 464.18 386.58 464.42 386.5 464.72C386.44 464.96 386.13 465.34 385.44 465.74C383.96 466.57 381.13 467.15 378.37 466.39C377.11 466.05 375.97 465.48 374.97 464.77C374.89 463.73 374.95 462.39 375.37 460.87C375.79 459.35 376.42 458.14 377 457.28C378.21 457.18 379.5 457.3 380.77 457.64C384.59 458.69 387.24 462.02 386.92 463.18C386.83 463.47 386.83 463.75 386.88 464H386.89ZM345.98 447.15C341.83 447.15 338.11 449.57 335.75 453.81C334.47 456.18 333.33 457.31 332.3 457.31C332.11 457.31 331.89 457.28 331.65 457.21C331.56 456.51 331.75 454.99 331.88 453.94C332.26 450.89 332.69 447.43 330.75 445.04C329.74 443.79 328.26 443.07 326.51 442.93C318.95 441.9 314.46 446.47 314.43 455.13V456.33C314.43 457.99 314.45 461.85 313.6 462.47C313.26 462.21 312.83 460.78 312.58 459.93C311.86 457.55 310.68 453.57 306.44 453.57C305.79 453.57 305.08 453.68 304.33 453.88C298.44 455.56 297.6 461.32 297.19 464.09L296.95 465.78C296.59 468.42 296.38 469.27 295.95 469.6C295.78 469.36 295.6 469.06 295.45 468.83C294.58 467.44 293.25 465.34 290.75 465.34C289.85 465.34 288.92 465.63 288 466.21C283.6 469.03 283.41 476.3 283.5 479.93C273.6 481.76 273.64 482.53 273.7 483.21C273.7 483.27 273.72 483.33 273.73 483.38C273.73 483.49 273.75 483.59 273.78 483.7C274.01 484.42 274.93 484.47 275.94 484.47C277.55 484.47 280.31 484.22 284.16 483.7C286.5 490.6 289.82 494.36 294.06 494.8C294.34 494.84 294.62 494.85 294.88 494.85C299.3 494.85 299.9 490.92 300.14 489.23C300.19 488.96 300.25 488.59 300.31 488.32H300.33C301.15 488.32 301.91 489.15 303.31 490.74C303.73 491.21 304.16 491.7 304.63 492.21L304.87 492.47C306.3 494.02 309.28 497.26 314.12 497.26C315.39 497.26 316.72 497.03 318.05 496.58C320.32 495.81 321.78 494.67 322.49 493.09C323.55 490.75 322.58 488.37 321.8 486.47C321.5 485.75 321 484.53 321.04 484.23C321.32 484.02 321.52 483.99 321.67 483.99C322.92 483.99 325.09 486.04 326.67 487.52C327.06 487.89 327.44 488.24 327.81 488.59C330.63 491.17 334 492.59 337.31 492.59C340.1 492.59 344.16 491.61 347.8 486.85C349.11 484.99 349.54 483.19 349.09 481.48C348.3 478.48 345.17 476.98 342.39 475.66C341.48 475.21 340.16 474.58 339.6 474.14C340.21 472.8 341.32 472.01 344.31 472.01C344.7 472.01 345.1 472.03 345.5 472.04C350.98 472.43 355.5 470.15 357.67 466.09C359.72 462.28 359.31 457.58 356.61 453.5C353.9 449.46 350.03 447.14 345.96 447.14L345.98 447.15ZM353.74 463.99C352.5 466.3 349.95 467.63 346.71 467.63C346.43 467.63 346.14 467.61 345.81 467.59C345.3 467.55 344.8 467.53 344.32 467.53C342.58 467.53 337.28 467.53 335.26 472.97C333.91 476.58 337.71 478.4 340.47 479.72C342.07 480.49 344.5 481.65 344.76 482.65C344.89 483.14 344.42 483.89 344.2 484.22C342.25 486.77 339.87 488.11 337.32 488.11C335.14 488.11 332.85 487.1 330.85 485.29C330.49 484.96 330.13 484.62 329.76 484.28C327.29 481.94 324.72 479.52 321.69 479.52C320.5 479.52 319.38 479.91 318.35 480.67C315.47 482.87 316.84 486.21 317.67 488.21C318.12 489.32 318.68 490.69 318.43 491.27C318.26 491.63 317.59 492.05 316.63 492.38C315.76 492.67 314.91 492.83 314.14 492.83C311.28 492.83 309.41 490.81 308.19 489.48L307.92 489.18C307.47 488.71 307.07 488.25 306.68 487.82C304.89 485.79 303.21 483.89 300.35 483.89C299.87 483.89 299.38 483.95 298.9 484.06C296.34 484.59 295.95 487.13 295.73 488.62C295.64 489.16 295.5 490.17 295.31 490.37C295.31 490.37 295.02 490.46 294.54 490.41C292.97 490.24 290.73 488.8 288.68 483.11C289.81 482.94 290.99 482.76 292.25 482.56C311.4 479.18 338.49 466.28 338.97 464.87C339.005 464.767 339.015 464.658 339 464.55C339 464.46 338.97 464.39 338.94 464.32C338.9 464.25 338.86 464.18 338.81 464.12C338.741 464.043 338.656 463.981 338.561 463.94C338.466 463.899 338.364 463.878 338.26 463.88C338.05 463.88 338.05 463.88 335.89 464.73C329.01 467.44 308.05 475.73 291.51 478.63C290.24 478.83 289.09 479.02 288.01 479.2C287.98 472.68 289.49 470.66 290.44 470.04C290.57 469.96 290.66 469.91 290.7 469.88C290.98 470.11 291.42 470.82 291.69 471.26C292.59 472.69 293.83 474.78 296.44 474.23C300.47 473.33 300.96 469.82 301.43 466.43L301.67 464.78C302.12 461.79 302.75 459.04 305.6 458.23C306.93 457.86 307.32 457.87 308.33 461.26C309.02 463.56 309.96 466.7 313.23 466.96C314.73 467.09 315.97 466.62 316.94 465.65C319 463.59 318.98 459.75 318.96 456.35V455.19C319 447.31 323 447.31 324.5 447.31C324.96 447.31 325.44 447.35 326.05 447.44C326.99 447.52 327.23 447.81 327.31 447.91C328.05 448.82 327.72 451.49 327.48 453.43C327.09 456.54 326.66 460.05 329.62 461.26C330.54 461.64 331.45 461.83 332.33 461.83C336.1 461.83 338.36 458.49 339.71 456.01C341.27 453.22 343.5 451.67 346.01 451.67C348.52 451.67 351.07 453.27 352.91 456.06C354.69 458.72 355 461.7 353.76 464.02L353.74 463.99ZM424.21 407.38C423.41 407.38 422.58 407.43 421.76 407.47C420.44 407.53 419.11 407.55 418.64 407.47C418.53 406.17 419.06 404.89 423.05 403.1C427.61 400.71 430.34 396.62 430.32 392.15C430.3 387.87 427.78 384.01 423.54 381.83C418.15 379.05 412.21 379.64 408.83 383.19C406.7 385.42 405.68 388.56 405.84 392.07C405.78 396.04 404.55 396.62 403.75 396.78C403.35 396.24 402.82 394.87 402.44 393.92C401.2 390.78 399.51 386.47 395.2 386.47C394.34 386.47 393.41 386.67 392.52 387.04C389.48 388.22 387.46 390.1 386.52 392.62C385.39 395.63 385.92 399.24 388.1 403.41L388.52 404.17C389.19 405.36 391.16 408.9 390.69 409.91C390.23 409.68 389.36 408.83 388.82 408.31C387.36 406.89 385.55 405.13 383.15 405.13C381.62 405.13 380.18 405.87 378.98 407.19C374.6 411.48 376.68 416.98 377.57 419.33L378.2 421.01C379.03 423.21 379.25 424.05 379.12 424.54L378.47 424.2C377.47 423.68 376.24 423.02 374.84 423.02C373.68 423.02 372.05 423.47 370.9 425.54C368.04 430.43 372.35 437.6 373.93 440.17C371.38 442.7 371.45 442.97 371.58 443.4C371.62 443.51 371.69 443.66 371.84 443.78C371.9 443.89 371.97 443.98 372.04 444.04C372.18 444.15 372.54 444.25 372.72 444.25C373.36 444.25 374.51 443.68 376.1 442.57C378.26 444.51 382.42 447.79 386.79 447.79C387.81 447.79 388.8 447.61 389.77 447.23C394.58 445.23 392.93 441 392.31 439.42C392.19 439.14 392.06 438.77 391.98 438.5C392.24 438.33 392.44 438.32 392.64 438.32C393.35 438.32 394.44 438.71 395.71 439.15C396.22 439.33 396.76 439.54 397.35 439.72L397.76 439.85C399.02 440.27 400.91 440.9 403.14 440.9C406.25 440.9 408.94 439.67 411.24 437.15C412.73 435.35 413.37 433.63 413.19 431.93C412.91 429.41 410.96 427.85 409.39 426.6C408.78 426.11 407.76 425.31 407.68 424.92C407.78 424.64 407.91 424.31 409.07 424.31C410.36 424.31 412.1 424.77 413.79 425.2C414.39 425.37 414.98 425.51 415.5 425.64C416.88 426 418.24 426.18 419.54 426.18C426.03 426.18 430.7 421.75 431.75 414.58C432.03 412.46 431.61 410.76 430.51 409.5C428.87 407.65 426.27 407.4 424.2 407.4L424.21 407.38ZM427.31 413.96C426.43 420.03 422.55 422.84 416.6 421.29C416.06 421.16 415.51 421.01 414.94 420.87C412.99 420.36 410.97 419.83 409.1 419.83C405.38 419.83 404 422.03 403.51 423.32C402.23 426.62 404.87 428.73 406.63 430.1C407.53 430.84 408.68 431.74 408.76 432.4C408.8 432.82 408.46 433.52 407.89 434.21C406.54 435.69 404.99 436.41 403.17 436.41C401.67 436.41 400.25 435.94 399.21 435.59L398.77 435.45C398.23 435.27 397.72 435.08 397.24 434.92C395.59 434.33 394.15 433.82 392.68 433.82C391.13 433.82 389.73 434.4 388.58 435.52C386.7 437.27 387.62 439.63 388.17 441.04C388.36 441.54 388.73 442.5 388.68 442.74C388.65 442.79 388.49 442.92 388.14 443.08C386.09 443.87 383.25 442.73 379.78 439.79C381.83 438.11 384.28 435.97 387.15 433.35C401.53 420.54 418.02 395.38 417.76 393.92C417.71 393.67 417.53 393.43 417.28 393.35C417.194 393.318 417.102 393.301 417.01 393.3C416.743 393.3 416.163 393.89 415.27 395.07C403.3 410.97 392.93 422.85 384.42 430.41C381.38 433.2 379.08 435.33 377.3 437C373.78 430.96 374.37 428.58 374.85 427.76C374.92 427.64 374.98 427.56 374.99 427.52C375.33 427.6 376 427.95 376.43 428.18C377.36 428.67 378.41 429.23 379.58 429.23C380.46 429.23 381.27 428.92 381.95 428.29C384.76 425.58 383.58 422.46 382.44 419.44L381.81 417.76C380.8 415.05 380.05 412.47 382.26 410.31C382.72 409.81 383.05 409.63 383.2 409.63C383.78 409.63 384.97 410.79 385.75 411.54C387.16 412.91 388.76 414.46 390.85 414.46C391.52 414.46 392.16 414.29 392.79 413.97C393.99 413.36 394.8 412.37 395.17 411.15C396.01 408.3 394.14 404.95 392.49 402L392.1 401.31C390.58 398.4 390.12 395.94 390.76 394.21C391.25 392.92 392.36 391.95 394.23 391.22C394.62 391.05 394.96 390.98 395.23 390.98C396.48 390.98 397.49 393.54 398.29 395.59C399.35 398.29 400.55 401.34 403.51 401.34L403.94 401.31C408.09 400.77 410.27 397.68 410.35 392.03C410.22 389.61 410.84 387.64 412.1 386.31C414.13 384.18 417.87 383.97 421.49 385.85C424.26 387.27 425.84 389.59 425.85 392.2C425.87 394.95 424.04 397.57 421.11 399.1C417.47 400.72 413.41 403.28 414.29 408.56C414.57 410.87 416.44 412.05 419.81 412.05C420.5 412.05 421.24 412.01 422.01 411.97C422.74 411.93 423.49 411.89 424.23 411.89C426.35 411.89 426.97 412.26 427.16 412.47C427.34 412.7 427.4 413.26 427.31 413.97V413.96ZM464.55 306.84C462.14 306.84 459.8 308.33 457.74 309.65C456.91 310.18 455.71 310.94 455.04 311.18C454.37 310.05 454.1 308.48 456.38 305.24C459.28 301.01 459.81 296.17 457.78 292.3C455.84 288.6 451.87 286.41 447.15 286.41L446.61 286.43C441.59 286.6 437.39 288.91 435.37 292.59C433.5 296.02 433.74 300.2 436.03 304.06C438.05 307.57 437.53 308.55 436.79 309.15C436.18 308.87 435.03 307.95 434.25 307.31C432.11 305.59 429.69 303.64 426.95 303.64C425.68 303.64 423.81 304.1 422.31 306.13C420.08 308.75 419.16 311.44 419.56 314.15C420.05 317.28 422.3 320.13 426.26 322.58L427.24 323.18C428.61 324.01 431.82 325.95 431.96 326.93C431.96 326.93 431.88 326.96 431.7 326.96C431.12 326.96 430.21 326.72 429.33 326.49C428.17 326.18 426.84 325.82 425.54 325.82C422.79 325.82 420.83 327.42 420.02 330.31C418.41 336.12 422.83 339.78 424.95 341.55L426.22 342.63C428.14 344.22 428.75 344.83 428.85 345.33C428.57 345.35 428.26 345.35 428.01 345.35C426.56 345.37 424.57 345.4 423.2 346.83C422.37 347.69 421.96 348.86 421.99 350.32C422.12 355.67 428.61 359.67 431.55 361.33C430.6 364.78 430.86 365.19 431.05 365.46L431.75 365.82L431.83 365.8L432.03 365.94C432.44 365.94 432.97 365.92 434.58 362.51C436 362.85 438.29 363.32 440.71 363.32C444.51 363.32 447.33 362.17 449.07 359.9C452.18 355.82 448.79 352.96 447.5 351.89C447.3 351.72 447.04 351.49 446.84 351.31C447.21 350.73 447.96 350.51 450.34 350.1C450.95 349.99 451.58 349.89 452.25 349.75L452.6 349.67C455.16 349.17 461.18 347.99 462.8 340.72C463.3 338.42 463.08 336.61 462.12 335.2C460.69 333.09 458.2 332.7 456.2 332.38C455.44 332.25 454.19 332.06 453.97 331.91C453.85 330.6 456.33 329.83 459.58 328.95C460.08 328.81 460.58 328.67 461.07 328.53C465 327.4 468.05 325.05 469.68 321.89C471.29 318.72 471.4 314.96 469.92 310.89C468.46 307.56 466.17 306.85 464.51 306.85L464.55 306.84ZM432.43 364.91C432.43 364.91 432.51 364.82 432.55 364.77C432.57 364.8 432.62 364.83 432.64 364.88L432.44 364.91H432.43ZM465.71 319.85C464.66 321.9 462.59 323.45 459.86 324.23C459.4 324.36 458.92 324.49 458.44 324.62C454.5 325.69 449.09 327.15 449.54 332.33C449.91 335.89 453.42 336.45 455.52 336.8C456.61 336.97 458.1 337.22 458.45 337.71C458.53 337.84 458.76 338.32 458.45 339.75C457.55 343.83 454.64 344.71 451.75 345.28L451.38 345.35C450.75 345.48 450.16 345.58 449.59 345.69C446.65 346.19 443.6 346.73 442.41 350.3C441.55 352.75 443.47 354.36 444.62 355.33C445.03 355.68 445.78 356.31 445.85 356.56C445.85 356.56 445.83 356.76 445.5 357.19C444.67 358.29 443.05 358.85 440.72 358.85C439.15 358.85 437.59 358.59 436.39 358.34C437.32 356.06 438.44 353.12 439.84 349.27C446.5 330.1 448.05 300.94 447.33 299.94L446.72 299.63C446.233 299.63 445.767 301.183 445.32 304.29C444.08 312.98 441.18 333.29 436.04 348C434.67 351.76 433.66 354.66 432.91 356.95C427.42 353.62 426.51 351.34 426.47 350.23V349.97C426.83 349.88 427.59 349.86 428.06 349.86C429.59 349.84 432.16 349.8 433.02 347.37C434.29 343.54 431.64 341.33 429.08 339.2L427.81 338.13C425.54 336.25 423.57 334.32 424.35 331.53C424.68 330.33 425.04 330.33 425.53 330.33C426.25 330.33 427.24 330.59 428.18 330.83C429.34 331.14 430.52 331.46 431.69 331.46C433.75 331.46 434.9 330.45 435.48 329.65C436.31 328.54 436.61 327.28 436.35 326.02C435.79 323.12 432.46 321.12 429.54 319.34L428.6 318.78C425.85 317.06 424.25 315.23 423.97 313.46C423.77 312.11 424.34 310.63 425.78 308.93C426.38 308.13 426.76 308.13 426.93 308.13C428.07 308.13 430 309.68 431.4 310.81C433.34 312.37 435.01 313.72 436.92 313.72C437.7 313.72 438.44 313.48 439 313.06C444.27 309.48 440.97 303.71 439.87 301.81C438.38 299.28 438.17 296.77 439.28 294.75C440.52 292.47 443.32 291.03 446.73 290.92L447.12 290.9C450.18 290.9 452.6 292.17 453.78 294.4C455.04 296.8 454.63 299.82 452.66 302.69C451.51 304.31 448.05 309.24 451.72 314.31C452.45 315.24 453.51 315.77 454.7 315.77C456.49 315.77 458.25 314.63 460.12 313.43C461.6 312.49 463.42 311.32 464.52 311.32C464.72 311.32 465.21 311.32 465.76 312.55C466.77 315.29 466.75 317.82 465.7 319.84L465.71 319.85ZM434.88 193.41C431.3 189.53 425.23 188.89 420.14 191.99C415.84 194.61 413.33 198.67 413.39 202.84C413.46 206.73 415.76 210.26 419.72 212.51C423.02 214.38 422.91 215.81 422.62 216.62H422.38C421.64 216.62 420.6 216.44 419.51 216.24C418.14 216 416.61 215.73 415.13 215.73C410.07 215.73 408.78 219.13 408.46 221.14C407.92 224.42 408.51 227.17 410.21 229.28C412.18 231.75 415.49 233.14 420.07 233.42L420.94 233.45C422.83 233.52 426.35 233.65 427.09 234.46C427.09 234.46 427.11 234.48 427.11 234.51C426.71 234.79 425.5 235.11 424.74 235.3C422.24 235.94 417.03 237.27 418.42 243.17C419.8 249.07 425.65 250.16 428.14 250.63L429.91 250.98C432.22 251.42 433.04 251.66 433.38 252.04C433.17 252.18 432.89 252.33 432.69 252.45C431.45 253.17 429.72 254.17 429.24 256.08C428.94 257.24 429.17 258.48 429.92 259.75C432.8 264.42 440.5 264.69 443.7 264.71C444.49 268.04 444.82 268.05 445.32 268.05C445.41 268.05 445.49 268.03 445.56 268.02C445.76 268 446.19 267.85 446.35 267.65C446.55 267.43 446.93 266.93 446.82 264.2C453.85 262.13 457.71 258.99 458.21 254.87C458.89 249.81 454.54 248.98 452.89 248.67C452.62 248.62 452.28 248.55 452 248.48C452.03 247.78 452.6 247.21 454.55 245.64C454.99 245.29 455.45 244.91 455.96 244.49L456.21 244.28C458.22 242.59 462.93 238.64 460.86 231.46C459.62 227.27 457.09 226.39 455.18 226.39C453.72 226.39 452.32 226.9 451.08 227.36C450.26 227.66 449.34 227.98 448.71 227.91C447.97 227 449.79 225.11 452.05 222.91C452.5 222.48 452.93 222.05 453.32 221.66C456.33 218.72 457.88 215.14 457.73 211.58C457.56 208.02 455.72 204.71 452.4 202.01C451.03 200.9 449.63 200.34 448.27 200.34C444.66 200.34 442.69 203.94 441.13 206.82C440.65 207.69 439.98 208.94 439.5 209.49C438.19 208.84 437.64 207.59 437.97 203.53C438.29 199.52 437.18 195.92 434.85 193.38L434.88 193.41ZM438.15 213.8C438.64 214.02 439.15 214.13 439.67 214.13C442.28 214.13 443.71 211.51 445.08 208.98C445.92 207.43 447.34 204.83 448.29 204.83C448.43 204.83 448.86 204.89 449.6 205.5C451.91 207.37 453.18 209.55 453.27 211.79C453.38 214.06 452.29 216.42 450.18 218.49C449.79 218.88 449.37 219.28 448.95 219.69C446.14 222.42 441.88 226.54 445.18 230.66C446.06 231.85 447.33 232.47 448.85 232.47C450.14 232.47 451.4 232.01 452.62 231.57C453.55 231.23 454.52 230.88 455.19 230.88C455.46 230.88 456.02 230.88 456.56 232.72C457.72 236.75 455.61 238.94 453.33 240.86L453.07 241.09C452.61 241.48 452.17 241.83 451.75 242.17C449.37 244.08 446.93 246.05 447.65 249.82C448.13 252.35 450.58 252.82 452.06 253.1C452.58 253.2 453.56 253.39 453.77 253.59C453.77 253.59 453.85 253.78 453.77 254.34C453.61 255.55 452.41 257.77 446.39 259.69C446.08 257.2 445.56 253.92 444.74 249.54C441.5 231 428.47 202.84 426.65 202.84C426.45 202.84 426.26 202.92 426.12 203.06C425.84 203.34 426.307 205.017 427.52 208.09C430.71 216.19 438.17 235.17 440.8 250.32C441.6 254.57 442.22 257.77 442.72 260.23C436.32 260.01 434.33 258.42 433.73 257.45C433.68 257.36 433.64 257.28 433.62 257.22C433.88 256.97 434.51 256.61 434.91 256.38C436.25 255.61 438.47 254.33 437.99 251.79C437.24 247.87 433.94 247.23 430.74 246.62L428.94 246.27C426.05 245.73 423.41 245.01 422.75 242.19C422.45 240.92 422.36 240.57 425.81 239.69C427.99 239.13 431.27 238.29 431.55 234.92C431.61 233.6 431.2 232.4 430.35 231.47C428.34 229.27 424.47 229.13 421.06 229.01L420.24 228.98C417.07 228.79 414.79 227.94 413.65 226.52C412.78 225.43 412.5 223.88 412.83 221.89C413.01 220.77 413.29 220.25 415.07 220.25C416.16 220.25 417.44 220.48 418.67 220.7C419.97 220.93 421.19 221.15 422.32 221.15C424.84 221.15 425.96 219.96 426.5 218.86C427.49 216.58 428.21 212.23 421.86 208.64C419.3 207.18 417.85 205.11 417.82 202.81C417.77 200.24 419.5 197.64 422.41 195.85C425.68 193.86 429.36 194.14 431.51 196.48C432.99 198.09 433.68 200.48 433.45 203.21C433.24 206.17 432.79 211.71 438.11 213.8H438.15ZM350.74 122.26C348.27 126.64 348.01 131.22 350.04 134.83C351.95 138.23 355.69 140.27 360.35 140.41C364.28 140.43 364.82 141.63 364.94 142.54C364.4 142.9 363.02 143.38 362.07 143.7C359.28 144.66 356.15 145.75 354.85 148.47C354.16 149.93 354.14 151.58 354.77 153.29C356.97 160.12 363.01 162.24 370.92 158.46L371.71 158.06C373.55 157.12 375.86 155.95 377.19 155.95C377.43 155.95 377.51 155.97 377.56 156.04C377.36 156.48 376.43 157.35 375.88 157.9C374.39 159.33 372.51 161.1 372.45 163.57C372.42 165.05 373.05 166.48 374.27 167.76C376.01 169.72 378.25 170.71 380.93 170.71C383.08 170.71 385.04 170.05 386.35 169.61L388.21 168.99C389.74 168.47 391.04 167.98 391.69 168.18C391.56 168.42 391.4 168.69 391.27 168.91C390.52 170.15 389.51 171.86 390.01 173.78C390.3 174.94 391.1 175.9 392.37 176.65C393.52 177.3 394.86 177.63 396.37 177.63C399.9 177.63 403.66 175.92 406.43 174.43C408.55 176.73 408.9 176.76 409.22 176.76C409.42 176.79 409.65 176.7 409.83 176.53L410.04 176.5L410.24 176.08C410.4 175.76 410.63 175.22 409 172.58C414.32 167.26 416.23 162.54 414.66 158.58C413.48 155.55 411.25 155.09 410.04 155.09C408.91 155.09 407.9 155.43 407 155.74C406.76 155.83 406.44 155.93 406.18 156.01C405.84 155.33 406.05 154.56 406.98 152.21C407.18 151.72 407.38 151.21 407.58 150.66L407.71 150.34C408.64 147.89 410.83 142.13 405.55 136.81C403.92 135.28 402.35 134.54 400.73 134.54C398.05 134.54 396.34 136.52 394.97 138.12C394.46 138.72 393.6 139.71 393.21 139.76C392.12 139.3 392.79 136.75 393.71 133.71C393.89 133.1 394.08 132.52 394.21 131.99C395.39 128.06 395.08 124.38 393.29 121.36C391.45 118.27 388.21 116.17 383.86 115.26C381.05 114.77 379.19 115.8 378.32 116.67C376.29 118.71 376.32 122.04 376.35 124.96C376.35 125.95 376.37 127.38 376.22 128.09C374.81 128.09 373.61 127.34 371.96 123.76C369.83 118.79 365.75 115.81 361.06 115.81C356.91 115.79 353.05 118.21 350.75 122.27L350.74 122.26ZM354.64 124.47C356.13 121.84 358.54 120.26 361.06 120.26C363.9 120.26 366.43 122.22 367.87 125.54C369.45 129 371.69 132.54 376.25 132.54C376.53 132.54 376.83 132.52 377.12 132.5C380.9 132.15 380.87 127.96 380.84 124.89C380.82 123.14 380.81 120.51 381.52 119.79C381.58 119.73 381.73 119.57 382.34 119.57C382.58 119.57 382.84 119.59 383.05 119.63C386.06 120.25 388.28 121.63 389.45 123.61C390.59 125.52 390.76 127.95 389.94 130.69C389.78 131.23 389.63 131.78 389.45 132.34C388.3 136.1 386.58 141.78 391.44 143.81C392.05 144.08 392.66 144.21 393.28 144.21C395.58 144.21 397.13 142.41 398.37 140.97C399.15 140.07 400.11 138.95 400.74 138.95C400.92 138.95 401.48 139.05 402.43 139.95C405.38 142.92 404.59 145.9 403.53 148.69L403.4 149.04C403.21 149.56 403.01 150.05 402.84 150.51C401.74 153.3 400.61 156.2 403.01 159.22C403.5 159.81 404.39 160.52 405.83 160.52C406.75 160.52 407.62 160.23 408.46 159.95C409.03 159.76 409.68 159.54 410.15 159.54C410.15 159.54 410.32 159.67 410.52 160.19C410.99 161.37 411.02 164.02 406.44 168.8C404.95 166.76 402.91 164.13 400.12 160.71C389.51 147.78 371.21 134.84 365.16 130.57C362.53 128.48 362.37 128.48 362.08 128.48H361.77L361.31 128.95L361.33 129.3C361.357 129.58 362.277 130.36 364.09 131.64L364.27 131.77C371.26 137.36 387.1 151.12 397.06 163.3C399.74 166.59 401.8 169.07 403.39 170.94C401.49 171.92 398.67 173.13 396.36 173.13C395.62 173.13 395.02 173 394.59 172.76C394.48 172.7 394.42 172.65 394.37 172.61C394.47 172.26 394.86 171.61 395.11 171.2C395.89 169.89 397.21 167.68 395.6 165.72C394.51 164.35 393.1 163.65 391.38 163.65C389.93 163.65 388.46 164.15 386.75 164.73L384.89 165.35C383.8 165.71 382.31 166.22 380.89 166.22C379.47 166.22 378.46 165.76 377.54 164.71C377.13 164.29 376.89 163.9 376.9 163.67C376.9 163.06 378.12 161.91 378.94 161.14C380.55 159.59 383.02 157.25 381.63 154.2C380.79 152.43 379.18 151.46 377.16 151.46C374.75 151.46 372.05 152.84 369.65 154.06L368.93 154.42C366.96 155.36 365.15 155.85 363.69 155.85C362.23 155.85 360.15 155.44 358.98 151.82C358.64 150.88 358.81 150.51 358.88 150.4C359.37 149.37 361.75 148.54 363.51 147.95C366.23 147.01 369.61 145.85 369.43 142.62C369.23 139.58 367.48 135.96 360.41 135.93C357.37 135.84 355.08 134.66 353.93 132.63C352.69 130.42 352.95 127.45 354.63 124.47H354.64ZM142.69 339.45L152.76 313.01H147.06L141.77 326.74C140.944 328.978 140.213 331.25 139.58 333.55H139.52C138.87 331.1 138.15 328.77 137.33 326.63L132.19 313H126.13L136.26 339.44H142.67L142.69 339.45ZM175.34 335.06H165.27V327.95H174.88V323.77H165.27V317.31H175.34V313H159.77V339.45H175.34V335.06ZM195.02 339.45V317.67H202.35V313H182.2V317.67H189.53V339.45H195.02ZM225.79 317.31V313H210.23V339.45H225.79V335.06H215.73V327.95H225.34V323.77H215.73V317.31H225.79ZM252.39 327.08L243.48 313H236.16V339.45H241.5L241.45 325.61C241.45 323.17 241.4 321.54 241.29 320.07H241.34C242.05 321.64 243.02 323.52 244.04 325.11L253.14 339.45H260.46V313.01H255.13L255.18 324.65C255.18 328.06 255.24 330.6 255.33 332.27H255.29C254.43 330.44 253.42 328.7 252.39 327.08ZM276.81 335.37C274.58 335.37 272.49 334.95 270.96 334.36L270.76 339.29C272.24 339.64 274.37 339.95 276.2 339.95C282.97 339.95 287.65 336.44 287.65 331.04C287.65 322.75 275.85 324.73 275.85 320.21C275.85 318.22 277.33 316.9 280.67 316.9C282.2 316.9 284.29 317.2 285.72 317.66L285.92 312.99C284.44 312.73 282.41 312.53 280.88 312.53C273.9 312.53 270.04 315.83 270.04 320.81C270.04 329.41 281.68 326.97 281.68 331.65C281.68 334.24 279.3 335.36 276.81 335.36V335.37ZM297.25 313V339.45H302.75V327.02L312.56 339.45H319.83L308.45 325.71L319.28 313H312.51L302.75 324.78V313H297.25ZM331.6 334.29H342.63L344.51 339.44H350.62L340.64 312.99H334.19L324.18 339.45H329.66L331.6 334.3V334.29ZM335.76 322.85C336.27 321.47 336.77 320 337.1 318.74H337.14C337.5 319.96 338.01 321.53 338.52 322.91L341.27 330.33H332.92L335.76 322.86V322.85ZM367.21 312.84C364.09 312.84 360.81 312.94 358.56 313V339.45H364.06V330.74C364.72 330.8 365.74 330.85 366.4 330.85C373.12 330.85 377.74 327.19 377.74 321.39C377.74 316.04 373.94 312.84 367.22 312.84H367.21ZM366.4 326.47C365.68 326.47 364.66 326.43 364.06 326.27V317.32C364.77 317.27 365.74 317.27 366.75 317.27C370.16 317.27 371.89 319.14 371.89 321.74C371.89 324.85 369.81 326.47 366.4 326.47ZM142.77 384.03C150.35 384.03 156.65 378.84 156.65 370.1C156.65 361.36 151.31 356.68 143.63 356.68C135.95 356.68 129.89 361.91 129.89 370.61C129.89 378.52 134.17 384.03 142.77 384.03ZM143.28 361.45C147.81 361.45 150.75 364.56 150.75 370.45C150.75 376.34 147.29 379.2 143.07 379.2C137.88 379.2 135.75 375.23 135.75 370.2C135.75 364.5 139.25 361.45 143.28 361.45ZM176.03 383.92C178.63 383.92 180.96 383.51 183.16 382.76L182.7 377.87C181.13 378.64 179.14 379.1 177.16 379.1C171.91 379.1 168.87 376.09 168.87 370.41C168.87 365.17 171.66 361.4 176.86 361.4C178.69 361.4 180.57 361.71 182.45 362.32L182.95 357.49C181.17 356.99 178.98 356.77 177.25 356.77C167.33 356.77 163.01 363.43 163.01 370.91C163.01 378.94 167.39 383.92 176.03 383.92ZM215.25 383.56V357.12H209.76V367.64H197.29V357.12H191.8V383.56H197.29V372.37H209.76V383.56H215.25ZM244.26 371.15L254.08 383.56H261.35L249.95 369.83L260.78 357.12H254.02L244.26 368.92V357.12H238.77V383.56H244.26V371.15ZM277.88 384.03C285.46 384.03 291.76 378.84 291.76 370.1C291.76 361.36 286.42 356.68 278.75 356.68C271.08 356.68 265.01 361.91 265.01 370.61C265.01 378.52 269.27 384.03 277.88 384.03ZM278.38 361.45C282.9 361.45 285.85 364.56 285.85 370.45C285.85 376.34 282.4 379.2 278.16 379.2C272.98 379.2 270.84 375.23 270.84 370.2C270.84 364.5 274.36 361.45 278.38 361.45ZM307.76 369.23L316.86 383.57H324.18V357.13H318.84L318.9 368.77C318.9 372.18 318.95 374.72 319.05 376.39H319C318.13 374.56 317.12 372.83 316.1 371.21L307.19 357.12H299.86V383.56H305.21L305.16 369.73C305.16 367.28 305.1 365.65 304.99 364.18H305.05C305.76 365.75 306.73 367.64 307.74 369.22L307.76 369.23ZM340.26 379.49C338.03 379.49 335.94 379.09 334.42 378.48L334.22 383.41C335.69 383.77 337.83 384.09 339.66 384.09C346.42 384.09 351.1 380.57 351.1 375.18C351.1 366.9 339.31 368.87 339.31 364.35C339.31 362.37 340.78 361.05 344.13 361.05C345.66 361.05 347.74 361.36 349.17 361.82L349.37 357.13C347.89 356.88 345.87 356.67 344.33 356.67C337.37 356.67 333.5 359.97 333.5 364.96C333.5 373.55 345.14 371.1 345.14 375.79C345.14 378.39 342.76 379.5 340.26 379.5V379.49ZM369.24 383.56V361.8H376.56V357.12H356.42V361.8H363.74V383.56H369.24ZM164.23 282.18L163.58 282.09C149.69 280.37 149.61 277.62 149.28 266.08V246.03L172.48 271.27C181.32 280.96 186.2 286.31 199.07 286.31C201.47 286.31 204.11 286.14 207.17 285.76L207.82 285.69L207.87 282.58L207.14 282.55C199.41 282.21 195.18 277.82 186.78 269.1C185.62 267.89 184.39 266.61 183.08 265.28L160.47 240.12L169.57 230.81L171.51 228.77C179.16 220.74 187.83 211.63 199.39 210.41L200.06 210.34V207.24H169.44V210.34L170.11 210.41C173.14 210.73 174.77 211.43 175.23 212.64C176.09 214.87 173.4 219.46 167.02 226.64L149.26 245.59V226.53C149.6 214.95 149.68 212.19 160.54 210.49L161.18 210.39V207.32H123.93V210.41L124.58 210.5C137.46 212.22 137.53 214.97 137.87 226.51V266.06C137.53 277.64 137.45 280.38 124.58 282.1L123.93 282.19V285.28H164.21V282.18H164.23ZM265.89 282.17L265.23 282.09C250.7 280.36 250.15 277.06 250.15 263.38V212.18H256.15C269.43 212.18 274.85 216.29 278.47 229.14L278.67 229.81L281.56 229.18L280.13 207.2H208.75L207.36 229.18L210.25 229.81L210.45 229.14C214.07 216.31 219.49 212.18 232.78 212.18H238.78V263.38C238.78 277.06 238.23 280.35 223.7 282.09L223.05 282.17V285.28H265.91V282.17H265.89ZM380.48 210.49L381.13 210.4V207.31H340.85V210.39L341.48 210.48C355.8 212.56 355.8 214.41 355.8 226.49V242.04H315.16V226.49C315.16 214.41 315.16 212.56 329.46 210.48L330.11 210.39V207.31H289.84V210.4L290.49 210.49C303.37 212.21 303.44 214.95 303.78 226.5V266.06C303.43 277.64 303.36 280.37 290.49 282.09L289.84 282.18V285.27H330.11V282.19L329.46 282.09C315.16 280.01 315.16 278.16 315.16 266.08V248.28H355.8V266.08C355.8 278.16 355.8 280.01 341.48 282.09L340.85 282.19V285.27H381.13V282.18L380.48 282.09C367.6 280.37 367.53 277.63 367.2 266.08V226.52C367.53 214.95 367.6 212.2 380.48 210.49ZM157.76 105.25C157.48 105.81 155.66 109.66 158.35 113.79C161.28 118.28 166.27 117.51 166.44 117.49C169.89 121.84 175.63 127.03 180.33 125.69C180.33 125.69 209.93 111.97 250.97 111.91H251C292.07 111.97 321.67 125.69 321.67 125.69C326.37 127.03 332.1 121.84 335.55 117.49C335.72 117.51 340.7 118.28 343.64 113.79C346.34 109.67 344.5 105.81 344.23 105.25C346.68 101.28 350.46 97.74 350.46 97.74C351.354 96.9208 352.068 95.9241 352.555 94.8135C353.042 93.7028 353.293 92.5028 353.29 91.29C353.29 86.44 349.34 82.47 344.49 82.47C344.09 82.47 343.71 82.5 343.34 82.56C343.28 82.32 343.19 82.06 343.13 81.82C345.51 80.59 347.16 78.13 347.16 75.28C347.16 71.2 343.86 67.9 339.78 67.9C338.41 67.9 337.16 68.29 336.06 68.94C335.85 68.7 335.64 68.45 335.42 68.2C336.009 67.6391 336.478 66.9642 336.797 66.2163C337.117 65.4685 337.281 64.6633 337.28 63.85C337.28 60.49 334.55 57.77 331.19 57.77C329.13 57.77 327.32 58.8 326.23 60.38C325.88 60.15 325.52 59.92 325.17 59.7C325.875 58.7553 326.257 57.6088 326.26 56.43C326.26 53.38 323.77 50.89 320.71 50.89C318.31 50.89 316.3 52.43 315.53 54.56C314.95 54.31 314.37 54.06 313.78 53.82C314.23 53.07 314.5 52.21 314.5 51.28C314.5 48.51 312.25 46.26 309.47 46.26C306.98 46.26 304.91 48.1 304.53 50.51C304.16 50.39 303.8 50.27 303.4 50.16C302.57 47.22 299.9 45.05 296.68 45.05C295.97 45.05 295.28 45.18 294.65 45.38C294.39 45.17 294.14 44.96 293.87 44.77C293.87 44.66 293.89 44.56 293.89 44.44C293.89 41.18 291.23 38.53 287.97 38.53C286.68 38.53 285.51 38.95 284.54 39.66L283.85 39.39C283.85 39.34 283.87 39.3 283.87 39.25C283.87 36.3 281.47 33.91 278.52 33.91C276.52 33.91 274.79 35.04 273.88 36.67C273.47 36.59 273.05 36.51 272.63 36.44C272.63 36.38 272.65 36.31 272.65 36.25C272.65 33.57 270.46 31.38 267.78 31.38C265.45 31.38 263.49 33.03 263.03 35.23C262.56 35.2 262.08 35.16 261.6 35.13C262.18 33.75 262.51 32.23 262.51 30.64C262.51 26.22 260.02 22.38 256.34 20.44C256.34 20.44 254.99 19.74 253.04 19.35V10.55H257.98C258.15 10.35 258.48 9.68 258.48 8.48C258.48 7.28 258.15 6.63 257.98 6.43H253.04V1.5C252.84 1.33 252.16 1 250.97 1C249.78 1 249.11 1.32 248.9 1.5V6.43H243.98C243.81 6.63 243.48 7.3 243.48 8.48C243.48 9.66 243.81 10.35 243.98 10.55H248.9V19.35C247 19.73 245.65 20.43 245.65 20.43C241.98 22.37 239.48 26.2 239.48 30.63C239.48 32.22 239.81 33.74 240.4 35.12C239.92 35.15 239.43 35.18 238.97 35.22C238.74 34.1327 238.144 33.1572 237.281 32.4565C236.418 31.7558 235.341 31.3723 234.23 31.37C231.54 31.37 229.35 33.56 229.35 36.24C229.35 36.3 229.37 36.37 229.37 36.43C228.94 36.51 228.52 36.58 228.11 36.66C227.21 35.02 225.47 33.9 223.48 33.9C220.53 33.9 218.12 36.29 218.12 39.24C218.12 39.29 218.14 39.33 218.14 39.38L217.45 39.65C216.48 38.95 215.31 38.52 214.02 38.52C210.75 38.52 208.1 41.17 208.1 44.43C208.1 44.54 208.1 44.64 208.12 44.76C207.86 44.96 207.6 45.16 207.35 45.37C206.7 45.17 206.02 45.04 205.31 45.04C202.11 45.04 199.43 47.21 198.59 50.15C198.2 50.27 197.85 50.39 197.46 50.5C197.09 48.09 195.02 46.25 192.52 46.25C191.189 46.2526 189.914 46.7824 188.973 47.7232C188.032 48.6641 187.503 49.9394 187.5 51.27C187.5 52.21 187.77 53.07 188.22 53.81C187.63 54.05 187.04 54.3 186.47 54.55C185.71 52.42 183.68 50.88 181.29 50.88C178.23 50.88 175.74 53.36 175.74 56.42C175.74 57.65 176.15 58.77 176.83 59.69C176.48 59.92 176.12 60.15 175.78 60.37C175.223 59.5666 174.481 58.9096 173.615 58.4552C172.75 58.0007 171.787 57.7622 170.81 57.76C167.45 57.76 164.72 60.49 164.72 63.84C164.72 65.55 165.44 67.1 166.58 68.2C166.36 68.44 166.16 68.69 165.94 68.93C164.814 68.2518 163.525 67.8924 162.21 67.89C158.15 67.89 154.84 71.19 154.84 75.27C154.84 78.13 156.48 80.58 158.87 81.81C158.8 82.05 158.71 82.31 158.65 82.55C158.28 82.5 157.89 82.47 157.5 82.47C152.65 82.47 148.69 86.43 148.69 91.28C148.69 93.83 149.78 96.12 151.52 97.73C151.55 97.73 155.32 101.27 157.77 105.25H157.76ZM165.38 114.43C162.39 114.43 159.97 112 159.97 109.01C159.97 107.88 160.32 106.83 160.91 105.97C161.402 105.233 162.068 104.629 162.849 104.211C163.629 103.792 164.501 103.573 165.387 103.572C166.273 103.571 167.146 103.788 167.928 104.205C168.709 104.621 169.377 105.224 169.87 105.96C170.47 106.83 170.81 107.88 170.81 109.01C170.81 112 168.39 114.43 165.39 114.43H165.38ZM250.97 96.7C248 96.7 245.6 94.29 245.6 91.32C245.6 88.35 248.01 85.95 250.97 85.95C253.93 85.95 256.37 88.36 256.37 91.32C256.37 94.29 253.95 96.7 250.97 96.7ZM250.99 54.76C253.95 54.76 256.36 57.15 256.36 60.1C256.36 63.05 253.95 65.44 250.99 65.44C248.03 65.44 245.65 63.04 245.65 60.1C245.65 57.14 248.03 54.76 250.99 54.76ZM246.81 48.83C246.81 46.53 248.67 44.66 250.98 44.66C253.29 44.66 255.17 46.52 255.17 48.83C255.17 51.14 253.3 53 250.98 53C248.68 53 246.81 51.14 246.81 48.83ZM250.96 67.53C254.63 67.53 257.6 70.49 257.6 74.15C257.6 75.82 256.97 77.35 255.95 78.52C254.517 77.4339 252.768 76.8473 250.97 76.85C249.11 76.85 247.37 77.48 246 78.53C244.933 77.3245 244.346 75.7696 244.35 74.16C244.35 70.49 247.32 67.54 250.97 67.54L250.96 67.53ZM336.58 114.43C333.59 114.43 331.17 112.01 331.17 109.02C331.17 107.56 331.75 106.23 332.69 105.26C333.191 104.728 333.795 104.305 334.466 104.016C335.137 103.727 335.86 103.579 336.59 103.58C338.93 103.58 340.91 105.06 341.65 107.12C341.88 107.71 342 108.36 342 109.02C342 112 339.57 114.43 336.58 114.43ZM344.47 85.46C347.68 85.46 350.29 88.07 350.29 91.28C350.29 93.39 348.24 95.95 346.44 97.06C344.91 95.26 342.65 94.1 340.09 94.1C339.87 94.1 339.65 94.12 339.42 94.14C338.93 93.29 338.63 92.32 338.63 91.28C338.63 88.07 341.25 85.46 344.46 85.46H344.47ZM339.77 70.88C342.19 70.88 344.15 72.85 344.15 75.27C344.15 77.69 342.18 79.66 339.77 79.66C337.36 79.66 335.36 77.69 335.36 75.27C335.36 72.85 337.35 70.88 339.77 70.88ZM331.18 60.75C332.9 60.75 334.29 62.13 334.29 63.85C334.29 65.57 332.9 66.93 331.18 66.93C329.46 66.93 328.09 65.55 328.09 63.85C328.09 62.13 329.48 60.75 331.18 60.75ZM320.7 53.87C322.11 53.87 323.25 55.01 323.25 56.41C323.25 57.81 322.1 58.96 320.7 58.96C319.3 58.96 318.16 57.81 318.16 56.41C318.16 55.01 319.3 53.87 320.7 53.87ZM309.46 49.24C310.59 49.24 311.49 50.15 311.49 51.27C311.49 52.39 310.59 53.3 309.46 53.3C308.33 53.3 307.43 52.39 307.43 51.27C307.43 50.15 308.34 49.24 309.46 49.24ZM302.84 55.34C319.81 60.75 328.62 68.96 332.65 77.16C335.92 84.67 335.36 86.43 335.63 91.2C335.72 92.87 336.13 93.99 336.46 94.97C332.58 97.09 332.12 100.08 332.05 100.27C331.89 100.17 331.74 100.06 331.57 99.94C330.14 98.78 328.33 98.07 326.35 98.08C320.17 98.14 316.34 104.18 318.84 110.02C319.45 111.42 322.89 116.5 329.63 114.06C330.03 114.6 330.48 115.1 330.99 115.53C329.05 119.33 324.5 121.13 320.43 119.54C316.38 117.96 313.54 114.63 312.41 110.75C310.872 112.122 309.036 113.119 307.048 113.662C305.059 114.205 302.972 114.28 300.95 113.88C296.39 112.99 293.4 108.55 294.29 103.99C294.37 103.57 294.78 101.91 294.97 101.29C295.57 104.47 298.03 107.14 301.39 107.79C305.82 108.66 310.14 105.75 311.01 101.34C311.88 96.91 308.97 92.6 304.54 91.73C304.06 91.63 303.54 91.73 303.04 91.73C303.18 91.34 303.34 90.91 303.34 90.91C303.53 89.93 303.53 88.97 303.38 88.05C307.42 86.96 310.39 83.28 310.39 78.92C310.39 75.4 308.45 72.33 305.61 70.7C307.99 69.33 309.6 66.8 309.6 63.87C309.6 59.76 306.44 56.4 302.41 56.03C302.57 55.81 302.7 55.57 302.83 55.35L302.84 55.34ZM296.88 81.31C296.2 81.17 295.53 81.14 294.87 81.17C294.61 80.46 294.45 79.71 294.45 78.91C294.45 75.33 297.36 72.43 300.94 72.43C304.52 72.43 307.43 75.34 307.43 78.91C307.43 81.99 305.27 84.57 302.37 85.23C301.791 84.2221 301.002 83.3505 300.056 82.6741C299.111 81.9978 298.031 81.5326 296.89 81.31H296.88ZM306.62 63.85C306.62 66.57 304.42 68.78 301.69 68.78C298.96 68.78 296.76 66.57 296.76 63.85C296.76 61.13 298.97 58.92 301.69 58.92C302.997 58.9226 304.249 59.4429 305.173 60.3669C306.097 61.2909 306.617 62.5433 306.62 63.85ZM296.68 48.03C298.89 48.03 300.7 49.83 300.7 52.04C300.7 54.25 298.9 56.05 296.68 56.05C294.46 56.05 292.68 54.25 292.68 52.04C292.68 49.83 294.47 48.03 296.68 48.03ZM294.05 90.13C297.02 90.13 299.43 92.54 299.43 95.5C299.43 98.46 297.01 100.88 294.05 100.88C291.09 100.88 288.67 98.46 288.67 95.5C288.67 92.54 291.08 90.13 294.05 90.13ZM287.98 41.51C289.59 41.51 290.9 42.82 290.9 44.43C290.9 46.04 289.59 47.34 287.98 47.34C286.37 47.34 285.06 46.03 285.06 44.43C285.06 42.83 286.37 41.51 287.98 41.51ZM278.52 36.88C279.83 36.88 280.89 37.93 280.89 39.23C280.89 40.53 279.83 41.58 278.52 41.58C277.21 41.58 276.18 40.53 276.18 39.23C276.18 37.93 277.23 36.88 278.52 36.88ZM267.78 34.35C268.83 34.35 269.67 35.19 269.67 36.22C269.67 37.25 268.83 38.11 267.78 38.11C266.73 38.11 265.92 37.27 265.92 36.22C265.92 35.19 266.75 34.35 267.78 34.35ZM289.08 80.81L290.28 82.89C288.727 84.1042 287.662 85.8361 287.28 87.77C287.28 87.77 287.26 88.22 287.25 88.62C286.79 88.44 286.37 88.17 285.88 88.08C281.46 87.21 277.14 90.11 276.27 94.54C275.41 98.96 278.3 103.27 282.74 104.15C286.11 104.81 289.38 103.28 291.14 100.55C291.08 101.2 290.83 102.87 290.75 103.3C289.85 107.86 285.42 110.85 280.84 109.95C276.58 109.12 273.47 106.39 271.68 102.76C269.23 105.97 265.64 108.09 261.29 108.09C256.65 108.09 252.85 104.31 252.85 99.66C252.85 99.22 252.93 97.52 252.98 96.88C254.2 99.89 257.14 102.03 260.56 102.03C265.08 102.03 268.76 98.36 268.76 93.85C268.76 89.34 265.08 85.66 260.56 85.66C260.07 85.66 259.58 85.86 259.08 85.95L259.21 85.08C259.21 84.27 259.08 83.49 258.87 82.75L261.8 80.86C261.8 80.86 261.28 53.17 256.33 40.8C256.5 40.71 256.66 40.61 256.82 40.52C297.3 42.81 293.82 70.93 289.06 80.81H289.08ZM259.45 29.88C259.45 30.05 259.47 30.23 259.47 30.41C259.47 32.08 258.97 33.63 258.12 34.93C257.38 34.91 256.41 34.89 255.37 34.88C255.45 34.54 255.5 34.18 255.5 33.82C255.5 32.12 254.55 30.67 253.16 29.89H259.43L259.45 29.88ZM253.03 22.28C255.44 22.85 257.51 24.59 258.59 26.73H253.03V22.28ZM250.98 31.93C252.01 31.93 252.85 32.77 252.85 33.8C252.85 34.83 252.01 35.67 250.98 35.67C249.95 35.67 249.11 34.84 249.11 33.8C249.11 32.76 249.95 31.93 250.98 31.93ZM250.98 37.46C252.53 37.46 253.8 38.72 253.8 40.27C253.8 41.82 252.53 43.08 250.98 43.08C249.43 43.08 248.17 41.82 248.17 40.27C248.17 38.72 249.42 37.46 250.98 37.46ZM248.93 22.28V26.73H243.39C244.48 24.58 246.54 22.85 248.93 22.28ZM242.54 29.88H248.79C247.41 30.66 246.47 32.11 246.47 33.81C246.47 34.17 246.52 34.53 246.6 34.87C245.57 34.87 244.6 34.89 243.86 34.92C243.02 33.61 242.51 32.07 242.51 30.4C242.51 30.22 242.51 30.05 242.53 29.87L242.54 29.88ZM234.2 34.35C235.22 34.35 236.06 35.19 236.06 36.22C236.06 37.25 235.22 38.11 234.2 38.11C233.18 38.11 232.31 37.27 232.31 36.22C232.31 35.17 233.16 34.35 234.2 34.35ZM223.45 36.88C224.74 36.88 225.79 37.93 225.79 39.23C225.79 40.53 224.75 41.58 223.45 41.58C222.15 41.58 221.08 40.53 221.08 39.23C221.08 37.92 222.15 36.88 223.45 36.88ZM214 41.51C214.773 41.51 215.515 41.8171 216.061 42.3638C216.608 42.9105 216.915 43.6519 216.915 44.425C216.915 45.1981 216.608 45.9395 216.061 46.4862C215.515 47.0329 214.773 47.34 214 47.34C212.4 47.34 211.07 46.03 211.07 44.43C211.07 42.83 212.38 41.51 214 41.51ZM245.13 40.52C245.29 40.61 245.45 40.71 245.61 40.8C240.67 53.17 240.15 80.86 240.15 80.86L243.08 82.75C242.87 83.49 242.75 84.27 242.75 85.08C242.75 85.08 242.81 85.54 242.88 85.95C242.39 85.86 241.89 85.66 241.4 85.66C236.88 85.66 233.21 89.33 233.21 93.85C233.21 98.37 236.88 102.03 241.4 102.03C244.83 102.03 247.76 99.9 248.97 96.88C249.03 97.52 249.1 99.22 249.1 99.66C249.1 104.31 245.32 108.09 240.67 108.09C236.33 108.09 232.74 105.96 230.29 102.76C228.5 106.39 225.38 109.13 221.12 109.95C216.55 110.85 212.11 107.86 211.21 103.3C211.13 102.87 210.89 101.18 210.82 100.55C212.59 103.27 215.86 104.81 219.23 104.15C223.67 103.28 226.55 98.97 225.69 94.54C224.83 90.11 220.51 87.21 216.08 88.08C215.59 88.17 215.17 88.44 214.71 88.62C214.71 88.22 214.69 87.77 214.69 87.77C214.313 85.834 213.247 84.1002 211.69 82.89L212.89 80.81C208.11 70.93 204.63 42.81 245.11 40.52H245.13ZM213.3 95.51C213.3 98.48 210.89 100.88 207.92 100.88C204.95 100.88 202.54 98.47 202.54 95.51C202.54 92.55 204.95 90.13 207.92 90.13C210.9 90.13 213.3 92.54 213.3 95.51ZM199.6 85.23C196.71 84.58 194.54 82 194.54 78.91C194.54 75.33 197.45 72.43 201.03 72.43C204.61 72.43 207.52 75.34 207.52 78.91C207.52 79.7 207.35 80.46 207.1 81.17C206.44 81.14 205.77 81.17 205.09 81.31C202.68 81.77 200.74 83.26 199.6 85.23ZM205.29 48.03C207.5 48.03 209.29 49.83 209.29 52.04C209.29 54.25 207.5 56.05 205.29 56.05C203.08 56.05 201.27 54.25 201.27 52.04C201.27 49.83 203.07 48.03 205.29 48.03ZM200.27 58.93C201.577 58.9326 202.829 59.4529 203.753 60.3769C204.677 61.3009 205.197 62.5533 205.2 63.86C205.2 66.58 202.99 68.79 200.27 68.79C197.55 68.79 195.34 66.58 195.34 63.86C195.34 61.15 197.54 58.93 200.27 58.93ZM192.52 49.24C193.64 49.24 194.54 50.15 194.54 51.27C194.54 52.39 193.63 53.3 192.52 53.3C191.41 53.3 190.49 52.39 190.49 51.27C190.49 50.15 191.39 49.24 192.52 49.24ZM181.28 53.87C182.68 53.87 183.82 55.01 183.82 56.41C183.82 57.81 182.68 58.96 181.28 58.96C179.88 58.96 178.72 57.81 178.72 56.41C178.72 55.01 179.86 53.87 181.28 53.87ZM199.12 55.33C199.25 55.56 199.38 55.79 199.52 56.01C195.51 56.38 192.34 59.73 192.34 63.85C192.34 66.78 193.95 69.31 196.32 70.68C193.46 72.32 191.54 75.38 191.54 78.9C191.54 83.27 194.51 86.94 198.55 88.03C198.4 88.96 198.4 89.93 198.59 90.89L198.89 91.71C198.39 91.71 197.86 91.62 197.38 91.71C192.95 92.58 190.05 96.89 190.92 101.32C191.78 105.74 196.1 108.64 200.53 107.77C203.9 107.12 206.36 104.45 206.97 101.27C207.16 101.88 207.56 103.54 207.64 103.97C208.54 108.53 205.55 112.97 200.99 113.86C196.73 114.69 192.53 113.41 189.52 110.73C188.951 112.714 187.931 114.539 186.539 116.064C185.148 117.589 183.424 118.772 181.5 119.52C177.44 121.11 172.89 119.31 170.94 115.51C171.45 115.08 171.9 114.58 172.3 114.04C179.05 116.49 182.5 111.4 183.09 110C185.59 104.16 181.77 98.12 175.58 98.06C173.672 98.0472 171.821 98.7056 170.35 99.92C170.19 100.03 170.04 100.15 169.87 100.25C169.82 100.05 169.36 97.06 165.47 94.95C165.8 93.97 166.23 92.85 166.31 91.18C166.58 86.4 166.02 84.65 169.29 77.14C173.34 68.95 182.14 60.74 199.12 55.33ZM170.79 60.75C172.49 60.75 173.88 62.13 173.88 63.85C173.881 64.2557 173.802 64.6576 173.647 65.0326C173.492 65.4075 173.265 65.748 172.977 66.0344C172.69 66.3208 172.349 66.5474 171.973 66.7011C171.598 66.8549 171.196 66.9326 170.79 66.93C169.08 66.93 167.68 65.55 167.68 63.85C167.68 62.13 169.07 60.75 170.79 60.75ZM157.82 75.27C157.82 72.85 159.79 70.88 162.2 70.88C164.61 70.88 166.61 72.85 166.61 75.27C166.61 77.69 164.64 79.66 162.2 79.66C161.624 79.66 161.054 79.5464 160.522 79.3256C159.989 79.1049 159.506 78.7814 159.099 78.3736C158.692 77.9658 158.37 77.4818 158.151 76.9492C157.931 76.4167 157.819 75.846 157.82 75.27ZM157.5 85.46C160.71 85.46 163.33 88.07 163.33 91.28C163.33 92.33 163.02 93.29 162.54 94.14C162.32 94.12 162.1 94.1 161.87 94.1C159.32 94.1 157.05 95.26 155.52 97.06C153.72 95.94 151.68 93.39 151.68 91.28C151.68 88.07 154.28 85.46 157.49 85.46H157.5ZM310.89 148.46C311.67 148.46 312.39 147.99 312.69 147.22C313.04 146.23 312.55 145.13 311.56 144.77C292.46 137.7 272.32 134.11 251.65 134.11H250.32C229.67 134.11 209.52 137.7 190.43 144.77C189.44 145.14 188.94 146.23 189.3 147.22C189.66 148.2 190.76 148.71 191.75 148.35C210.42 141.43 230.12 137.92 250.32 137.92H251.65C271.86 137.92 291.56 141.43 310.23 148.35C310.45 148.42 310.68 148.46 310.89 148.46Z" fill="#C18F54"/>
<path d="M322.42 137.34L319.63 129.92L319.21 128.79L315.64 129.38C296.07 121.87 275.48 117.89 254.36 117.51L250.97 115.57L247.6 117.51C226.49 117.89 205.89 121.88 186.33 129.38L182.75 128.79L182.33 129.92L179.54 137.34L187.53 141.78L190.11 138.72C208.26 131.91 227.34 128.23 246.89 127.8L250.97 130.13L255.07 127.8C274.63 128.24 293.71 131.91 311.87 138.72L314.43 141.78L322.43 137.34H322.42ZM186.86 138.05C185.77 137.44 184.31 136.63 183.19 136.01C183.65 134.81 184.23 133.24 184.66 132.08C185.98 132.3 188.62 132.73 191.02 133.13C189.45 134.98 187.72 137.02 186.87 138.05H186.86ZM220.53 128.48L214.13 129.79C212.37 130.15 210.64 129.02 210.28 127.26C209.92 125.5 211.04 123.77 212.81 123.41L219.23 122.09C221 121.72 222.72 122.87 223.09 124.63C223.44 126.38 222.3 128.1 220.53 128.47V128.48ZM250.97 126.69L244.26 122.86L250.98 119.01L257.71 122.86L250.97 126.69ZM291.7 127.26C291.614 127.679 291.447 128.078 291.207 128.432C290.967 128.787 290.659 129.09 290.301 129.326C289.943 129.561 289.543 129.723 289.122 129.802C288.701 129.882 288.269 129.878 287.85 129.79L281.45 128.48C280.602 128.305 279.858 127.802 279.381 127.081C278.903 126.36 278.73 125.478 278.9 124.63C279.27 122.87 280.99 121.72 282.76 122.09L289.17 123.41C290.94 123.78 292.07 125.5 291.7 127.27V127.26ZM310.96 133.11C313.36 132.72 316 132.28 317.32 132.06C317.75 133.22 318.33 134.8 318.79 135.99C317.66 136.61 316.2 137.42 315.11 138.03C314.24 137.02 312.52 134.98 310.96 133.11Z" fill="#C18F54"/>
</svg>
