<svg width="363" height="112" viewBox="0 0 363 112" fill="none" xmlns="http://www.w3.org/2000/svg">
<g clip-path="url(#clip0_2036_236)">
<mask id="mask0_2036_236" style="mask-type:luminance" maskUnits="userSpaceOnUse" x="0" y="70" width="363" height="5">
<path d="M0 70.7877H362.729V74.4961H0V70.7877Z" fill="white"/>
</mask>
<g mask="url(#mask0_2036_236)">
<path d="M86 74.627V74.4936H64V74.3603H53.6V74.227H45.6V74.0936H38.9333V73.9603H33.2V73.827H28.1333V73.6936H23.6V73.5603H19.4667V73.427H15.7333V73.2936H12.4V73.1603H9.33333V73.027H6.66667V72.8936H4.26667V72.7603H2.4V72.627H0.933333V72.4936H0.133333V72.3603H0V72.227H0.133333V72.0936H1.46667V71.9603H3.73333V71.827H7.06667V71.6936H11.3333V71.5603H16.4V71.427H22.5333V71.2936H29.7333V71.1603H38.4V71.027H49.0667V70.8936H63.6V70.7603H295.467V70.8936H307.067V71.027H315.6V71.1603H322.4V71.2936H328.267V71.427H333.467V71.5603H338.133V71.6936H342.533V71.827H346.267V71.9603H349.6V72.0936H352.8V72.227H355.6V72.3603H357.867V72.4936H359.867V72.627H361.467V72.7603H362.533V72.8936H362.8V73.027H362.667V73.1603H361.733V73.2936H359.6V73.427H356.533V73.5603H352.533V73.6936H347.6V73.827H341.733V73.9603H334.8V74.0936H326.667V74.227H316.667V74.3603H303.6V74.4936H277.6V74.627" fill="white"/>
</g>
<mask id="mask1_2036_236" style="mask-type:luminance" maskUnits="userSpaceOnUse" x="0" y="-1" width="363" height="113">
<path d="M0 111.027H363V-0.00381267H0V111.027Z" fill="white"/>
</mask>
<g mask="url(#mask1_2036_236)">
<mask id="mask2_2036_236" style="mask-type:luminance" maskUnits="userSpaceOnUse" x="0" y="85" width="363" height="27">
<path d="M0.270813 85.8347H363V111.027H0.270813V85.8347Z" fill="white"/>
</mask>
<g mask="url(#mask2_2036_236)">
<path d="M0.266663 111.027V86.0935H22.6667V86.2269H23.7333V86.3602H24.2667V86.4935H24.9333V86.6269H25.3333V86.7602H25.7333V86.8935H26V87.0269H26.2667V87.1602H26.6667V87.2935H26.9333V87.4269H27.0667V87.5602H27.2V87.6935H27.4667V87.8269H27.6V87.9602H27.8667V88.0935H28V88.2269H28.1333V88.3602H28.2667V88.4935H28.4V88.6269H28.5333V88.7602H28.6667V88.8935H28.8V89.0269H28.9333V89.1602H29.0667V89.4269H29.2V89.6935H29.3333V89.8269H29.4667V90.0935H29.6V90.3602H29.7333V90.6269H29.8667V91.0269H30V91.5602H30.1333V91.9602H30.2667V92.8935H30.4V94.8935H30.2667V95.5602H30.1333V96.0935H30V96.4935H29.8667V96.7602H29.7333V97.0269H29.6V97.2935H29.4667V97.5602H29.3333V97.8269H29.2V97.9602H29.0667V98.0935H28.9333V98.3602H28.8V98.4935H28.6667V98.6269H28.5333V98.7602H28.4V98.8935H28.2667V99.0269H28.1333V99.1602H28V99.2935H27.8667V99.4269H27.6V99.5602H27.4667V99.6935H27.2V99.8269H27.0667V99.9602H26.8V100.094H26.5333V100.227H26.2667V100.494H26.5333V100.627H26.8V100.76H27.0667V100.894H27.2V101.027H27.3333V101.16H27.6V101.294H27.7333V101.427H27.8667V101.56H28V101.694H28.1333V101.827H28.2667V101.96H28.4V102.227H28.5333V102.36H28.6667V102.494H28.8V102.76H28.9333V103.027H29.0667V103.16H29.2V103.56H29.3333V103.827H29.4667V104.227H29.6V104.894H29.7333V111.027H26V105.827H25.8667V105.027H25.7333V104.627H25.6V104.36H25.4667V104.094H25.3333V103.827H25.2V103.694H25.0667V103.56H24.9333V103.427H24.8V103.294H24.6667V103.16H24.5333V103.027H24.4V102.894H24.1333V102.76H24V102.627H23.6V102.494H23.3333V102.36H22.8V102.227H22.2667V102.094H3.86666V111.027H0.266663ZM69.2 111.027V110.76H69.3333V110.494H69.4667V110.227H69.6V109.96H69.7333V109.694H69.8667V109.427H70V109.16H70.1333V108.894H70.2667V108.627H70.4V108.36H70.5333V108.094H70.6667V107.827H70.8V107.56H70.9333V107.294H71.0667V107.027H71.2V106.76H71.3333V106.36H71.4667V106.094H71.6V105.827H71.7333V105.56H71.8667V105.294H72V105.027H72.1333V104.76H72.2667V104.494H72.4V104.227H72.5333V103.96H72.6667V103.694H72.8V103.427H72.9333V103.16H73.0667V102.894H73.2V102.627H73.3333V102.36H73.4667V102.094H73.6V101.827H73.7333V101.56H73.8667V101.294H74V101.027H74.1333V100.627H74.2667V100.36H74.4V100.094H74.5333V99.8269H74.6667V99.5602H74.8V99.2935H74.9333V99.0269H75.0667V98.7602H75.2V98.4935H75.3333V98.2269H75.4667V97.9602H75.6V97.6935H75.7333V97.4269H75.8667V97.1602H76V96.8935H76.1333V96.6269H76.2667V96.3602H76.4V96.0935H76.5333V95.8269H76.6667V95.5602H76.8V95.2935H76.9333V94.8935H77.0667V94.6269H77.2V94.3602H77.3333V94.0935H77.4667V93.8269H77.6V93.5602H77.7333V93.2935H77.8667V93.0269H78V92.7602H78.1333V92.4935H78.2667V92.2269H78.4V91.9602H78.5333V91.6935H78.6667V91.4269H78.8V91.1602H78.9333V90.8935H79.0667V90.6269H79.2V90.3602H79.3333V90.0935H79.4667V89.8269H79.6V89.6935H79.7333V89.4269H79.8667V89.2935H80V89.0269H80.1333V88.8935H80.2667V88.6269H80.4V88.4935H80.5333V88.3602H80.6667V88.2269H80.8V88.0935H80.9333V87.8269H81.0667V87.6935H81.2V87.5602H81.4667V87.4269H81.6V87.2935H81.7333V87.1602H81.8667V87.0269H82.1333V86.8935H82.2667V86.7602H82.5333V86.6269H82.8V86.4935H82.9333V86.3602H83.3333V86.2269H83.7333V86.0935H84.1333V85.9602H84.8V85.8269H87.7333V85.9602H88.4V86.0935H88.8V86.2269H89.2V86.3602H89.6V86.4935H89.7333V86.6269H90V86.7602H90.2667V86.8935H90.4V87.0269H90.6667V87.1602H90.8V87.2935H90.9333V87.4269H91.0667V87.5602H91.2V87.6935H91.3333V87.8269H91.4667V87.9602H91.6V88.0935H91.7333V88.2269H91.8667V88.3602H92V88.4935H92.1333V88.7602H92.2667V88.8935H92.4V89.1602H92.5333V89.2935H92.6667V89.5602H92.8V89.6935H92.9333V89.9602H93.0667V90.2269H93.2V90.4935H93.3333V90.6269H93.4667V90.8935H93.6V91.1602H93.7333V91.4269H93.8667V91.8269H94V92.0935H94.1333V92.3602H94.2667V92.6269H94.4V92.8935H94.5333V93.1602H94.6667V93.4269H94.8V93.6935H94.9333V93.9602H95.0667V94.2269H95.2V94.4935H95.3333V94.7602H95.4667V95.0269H95.6V95.2935H95.7333V95.5602H95.8667V95.8269H96V96.0935H96.1333V96.3602H96.2667V96.6269H96.4V96.8935H96.5333V97.1602H96.6667V97.4269H96.8V97.6935H96.9333V98.0935H97.0667V98.3602H97.2V98.6269H97.3333V98.8935H97.4667V99.1602H97.6V99.4269H97.7333V99.6935H97.8667V99.9602H98V100.227H98.1333V100.494H98.2667V100.76H98.4V101.027H98.5333V101.294H98.6667V101.56H98.8V101.827H98.9333V102.094H99.0667V102.36H99.2V102.627H99.3333V102.894H99.4667V103.16H99.6V103.427H99.7333V103.694H99.8667V103.96H100V104.36H100.133V104.627H100.267V104.894H100.4V105.16H100.533V105.427H100.667V105.694H100.8V105.96H100.933V106.227H101.067V106.494H101.2V106.76H101.333V107.027H101.467V107.294H101.6V107.56H101.733V107.827H101.867V108.094H102V108.36H102.133V108.627H102.267V108.894H102.4V109.16H102.533V109.427H102.667V109.694H102.8V109.96H102.933V110.227H103.067V110.627H103.2V110.894H103.333V111.027H99.2V110.76H99.0667V110.494H98.9333V110.227H98.8V109.96H98.6667V109.694H98.5333V109.427H98.4V109.16H98.2667V108.894H98.1333V108.627H98V108.227H97.8667V107.96H97.7333V107.694H97.6V107.427H97.4667V107.16H97.3333V106.894H97.2V106.627H97.0667V106.36H96.9333V106.094H96.8V105.827H96.6667V105.56H96.5333V105.294H96.4V105.027H96.2667V104.76H96.1333V104.494H96V104.227H95.8667V103.96H76.6667V104.094H76.5333V104.36H76.4V104.627H76.2667V104.894H76.1333V105.16H76V105.427H75.8667V105.694H75.7333V105.96H75.6V106.227H75.4667V106.494H75.3333V106.76H75.2V107.027H75.0667V107.294H74.9333V107.56H74.8V107.827H74.6667V108.094H74.5333V108.494H74.4V108.76H74.2667V109.027H74.1333V109.294H74V109.56H73.8667V109.827H73.7333V110.094H73.6V110.36H73.4667V110.627H73.3333V110.894H73.2V111.027H69.2ZM150.533 111.027V110.894H149.467V110.76H148.933V110.627H148.4V110.494H147.867V110.36H147.333V110.227H146.933V110.094H146.667V109.96H146.4V109.827H146.133V109.694H145.867V109.56H145.6V109.427H145.333V109.294H145.2V109.16H145.067V109.027H144.8V108.894H144.667V108.76H144.533V108.627H144.4V108.494H144.267V108.36H144V108.227H143.867V108.094H143.733V107.96H143.6V107.694H143.467V107.56H143.333V107.427H143.2V107.16H143.067V107.027H142.933V106.76H142.8V106.627H142.667V106.494H142.533V106.227H142.4V105.96H142.267V105.56H142.133V105.294H142V104.894H141.867V104.627H141.733V104.36H141.6V103.827H141.467V103.16H141.333V102.494H141.2V101.827H141.067V100.627H140.933V96.8935H141.067V95.4269H141.2V94.7602H141.333V94.0935H141.467V93.4269H141.6V92.8935H141.733V92.4935H141.867V92.2269H142V91.8269H142.133V91.5602H142.267V91.1602H142.4V90.8935H142.533V90.6269H142.667V90.4935H142.8V90.2269H142.933V90.0935H143.067V89.9602H143.2V89.6935H143.333V89.5602H143.467V89.2935H143.6V89.1602H143.733V89.0269H143.867V88.8935H144V88.7602H144.267V88.6269H144.4V88.4935H144.533V88.3602H144.667V88.2269H144.8V88.0935H145.067V87.9602H145.2V87.8269H145.333V87.6935H145.6V87.5602H145.867V87.4269H146.267V87.2935H146.533V87.1602H146.8V87.0269H147.067V86.8935H147.467V86.7602H148V86.6269H148.533V86.4935H149.067V86.3602H149.6V86.2269H151.067V86.0935H172V89.6935H151.6V89.8269H150.4V89.9602H149.733V90.0935H149.2V90.2269H148.8V90.3602H148.533V90.4935H148.133V90.6269H147.867V90.7602H147.6V90.8935H147.467V91.0269H147.333V91.1602H147.067V91.2935H146.933V91.4269H146.8V91.5602H146.667V91.6935H146.533V91.8269H146.4V91.9602H146.267V92.2269H146.133V92.3602H146V92.6269H145.867V92.7602H145.733V92.8935H145.6V93.2935H145.467V93.6935H145.333V93.9602H145.2V94.3602H145.067V95.0269H144.933V95.8269H144.8V96.7602H144.667V100.36H144.8V101.294H144.933V102.094H145.067V102.76H145.2V103.16H145.333V103.427H145.467V103.827H145.6V104.227H145.733V104.36H145.867V104.627H146V104.76H146.133V104.894H146.267V105.16H146.4V105.294H146.533V105.427H146.667V105.56H146.8V105.694H146.933V105.827H147.067V105.96H147.333V106.094H147.467V106.227H147.6V106.36H147.867V106.494H148.133V106.627H148.533V106.76H148.8V106.894H149.2V107.027H149.733V107.16H150.4V107.294H151.6V107.427H172V111.027H150.533ZM212.667 86.0935H216.4V111.027H212.667V86.0935ZM258.8 111.027V86.0935H263.333V86.2269H264.267V86.3602H264.933V86.4935H265.467V86.6269H265.867V86.7602H266.267V86.8935H266.533V87.0269H266.8V87.1602H267.067V87.2935H267.333V87.4269H267.467V87.5602H267.733V87.6935H267.867V87.8269H268.133V87.9602H268.267V88.0935H268.4V88.2269H268.667V88.3602H268.8V88.4935H268.933V88.6269H269.067V88.7602H269.2V88.8935H269.333V89.0269H269.467V89.1602H269.6V89.2935H269.733V89.4269H269.867V89.5602H270V89.6935H270.133V89.8269H270.267V89.9602H270.4V90.0935H270.533V90.2269H270.667V90.3602H270.8V90.4935H270.933V90.6269H271.067V90.8935H271.2V91.0269H271.333V91.1602H271.467V91.2935H271.6V91.4269H271.733V91.6935H271.867V91.8269H272V91.9602H272.133V92.0935H272.267V92.2269H272.4V92.4935H272.533V92.6269H272.667V92.7602H272.8V93.0269H272.933V93.1602H273.067V93.2935H273.2V93.4269H273.333V93.6935H273.467V93.8269H273.6V93.9602H273.733V94.2269H273.867V94.3602H274V94.4935H274.133V94.7602H274.267V94.8935H274.4V95.0269H274.533V95.2935H274.667V95.4269H274.8V95.5602H274.933V95.8269H275.067V95.9602H275.2V96.0935H275.333V96.3602H275.467V96.4935H275.6V96.6269H275.733V96.8935H275.867V97.0269H276V97.1602H276.133V97.4269H276.267V97.5602H276.4V97.6935H276.533V97.9602H276.667V98.0935H276.8V98.2269H276.933V98.4935H277.067V98.6269H277.2V98.7602H277.333V99.0269H277.467V99.1602H277.6V99.2935H277.733V99.5602H277.867V99.6935H278V99.8269H278.133V100.094H278.267V100.227H278.4V100.36H278.533V100.627H278.667V100.76H278.8V100.894H278.933V101.16H279.067V101.294H279.2V101.427H279.333V101.694H279.467V101.827H279.6V101.96H279.733V102.094H279.867V102.36H280V102.494H280.133V102.627H280.267V102.894H280.4V103.027H280.533V103.16H280.667V103.294H280.8V103.56H280.933V103.694H281.067V103.827H281.2V103.96H281.333V104.094H281.467V104.36H281.6V104.494H281.733V104.627H281.867V104.76H282V104.894H282.133V105.027H282.267V105.16H282.4V105.294H282.533V105.427H282.667V105.56H282.8V105.694H282.933V105.827H283.067V105.96H283.2V106.094H283.333V106.227H283.467V106.36H283.733V106.494H283.867V106.627H284.133V106.76H284.267V106.894H284.667V107.027H284.933V107.16H285.467V107.294H286.667V107.427H286.933V86.0935H290.667V111.027H285.6V110.894H284.933V110.76H284.4V110.627H283.867V110.494H283.6V110.36H283.2V110.227H282.933V110.094H282.667V109.96H282.4V109.827H282.133V109.694H282V109.56H281.733V109.427H281.6V109.294H281.467V109.16H281.2V109.027H281.067V108.894H280.933V108.76H280.667V108.627H280.533V108.494H280.4V108.36H280.267V108.227H280.133V108.094H280V107.96H279.867V107.827H279.733V107.694H279.6V107.56H279.467V107.427H279.333V107.294H279.2V107.16H279.067V107.027H278.933V106.894H278.8V106.627H278.667V106.494H278.533V106.36H278.4V106.227H278.267V106.094H278.133V105.96H278V105.827H277.867V105.56H277.733V105.427H277.6V105.294H277.467V105.16H277.333V105.027H277.2V104.76H277.067V104.627H276.933V104.494H276.8V104.36H276.667V104.094H276.533V103.96H276.4V103.827H276.267V103.694H276.133V103.427H276V103.294H275.867V103.16H275.733V102.894H275.6V102.76H275.467V102.627H275.333V102.494H275.2V102.227H275.067V102.094H274.933V101.96H274.8V101.694H274.667V101.56H274.533V101.427H274.4V101.16H274.267V101.027H274.133V100.894H274V100.76H273.867V100.494H273.733V100.36H273.6V100.227H273.467V99.9602H273.333V99.8269H273.2V99.6935H273.067V99.4269H272.933V99.2935H272.8V99.1602H272.667V98.8935H272.533V98.7602H272.4V98.6269H272.267V98.3602H272.133V98.2269H272V98.0935H271.867V97.9602H271.733V97.6935H271.6V97.5602H271.467V97.4269H271.333V97.1602H271.2V97.0269H271.067V96.8935H270.933V96.7602H270.8V96.4935H270.667V96.3602H270.533V96.2269H270.4V95.9602H270.267V95.8269H270.133V95.6935H270V95.5602H269.867V95.2935H269.733V95.1602H269.6V95.0269H269.467V94.8935H269.333V94.6269H269.2V94.4935H269.067V94.3602H268.933V94.2269H268.8V93.9602H268.667V93.8269H268.533V93.6935H268.4V93.5602H268.267V93.2935H268.133V93.1602H268V93.0269H267.867V92.8935H267.733V92.7602H267.6V92.6269H267.467V92.3602H267.333V92.2269H267.2V92.0935H267.067V91.9602H266.933V91.8269H266.8V91.6935H266.667V91.5602H266.533V91.4269H266.4V91.2935H266.267V91.1602H266V91.0269H265.867V90.8935H265.733V90.7602H265.6V90.6269H265.333V90.4935H265.067V90.3602H264.933V90.2269H264.533V90.0935H264.133V89.9602H263.6V89.8269H262.533V111.027H258.8ZM341.467 111.027V110.894H340.4V110.76H339.867V110.627H339.333V110.494H338.667V110.36H338.133V110.227H337.867V110.094H337.6V109.96H337.333V109.827H337.067V109.694H336.8V109.56H336.533V109.427H336.267V109.294H336.133V109.16H335.867V109.027H335.733V108.894H335.6V108.76H335.467V108.627H335.333V108.494H335.2V108.36H334.933V108.227H334.8V108.094H334.667V107.96H334.533V107.827H334.4V107.56H334.267V107.427H334.133V107.16H334V107.027H333.867V106.894H333.733V106.627H333.6V106.494H333.467V106.227H333.333V105.96H333.2V105.694H333.067V105.294H332.933V105.027H332.8V104.627H332.667V104.36H332.533V103.96H332.4V103.294H332.267V102.627H332.133V101.96H332V101.027H331.867V96.0935H332V95.1602H332.133V94.4935H332.267V93.8269H332.4V93.1602H332.533V92.7602H332.667V92.4935H332.8V92.0935H332.933V91.8269H333.067V91.4269H333.2V91.1602H333.333V90.8935H333.467V90.6269H333.6V90.4935H333.733V90.3602H333.867V90.0935H334V89.9602H334.133V89.6935H334.267V89.5602H334.4V89.4269H334.533V89.1602H334.667V89.0269H334.8V88.8935H335.067V88.7602H335.2V88.6269H335.333V88.4935H335.467V88.3602H335.6V88.2269H335.867V88.0935H336V87.9602H336.133V87.8269H336.4V87.6935H336.667V87.5602H336.933V87.4269H337.2V87.2935H337.467V87.1602H337.733V87.0269H338V86.8935H338.4V86.7602H338.933V86.6269H339.467V86.4935H340V86.3602H340.667V86.2269H342V86.0935H362.933V89.6935H342.267V89.8269H341.2V89.9602H340.533V90.0935H340V90.2269H339.6V90.3602H339.333V90.4935H339.067V90.6269H338.8V90.7602H338.533V90.8935H338.267V91.0269H338.133V91.1602H338V91.2935H337.867V91.4269H337.733V91.5602H337.467V91.6935H337.333V91.9602H337.2V92.0935H337.067V92.3602H336.933V92.4935H336.8V92.7602H336.667V92.8935H336.533V93.2935H336.4V93.6935H336.267V93.9602H336.133V94.3602H336V95.1602H335.867V95.8269H335.733V97.2935H335.6V99.8269H335.733V101.16H335.867V101.96H336V102.627H336.133V103.027H336.267V103.427H336.4V103.694H336.533V104.094H336.667V104.36H336.8V104.494H336.933V104.76H337.067V104.894H337.2V105.16H337.333V105.294H337.467V105.427H337.6V105.56H337.733V105.694H337.867V105.827H338V105.96H338.267V106.094H338.4V106.227H338.533V106.36H338.8V106.494H339.067V106.627H339.333V106.76H339.733V106.894H340V107.027H340.667V107.16H341.2V107.294H342.133V107.427H359.333V98.0935H363.067V111.027H341.467ZM78.4 100.36V100.494H94.1333V100.36H94V100.094H93.8667V99.8269H93.7333V99.5602H93.6V99.2935H93.4667V99.0269H93.3333V98.7602H93.2V98.4935H93.0667V98.2269H92.9333V97.9602H92.8V97.6935H92.6667V97.4269H92.5333V97.1602H92.4V96.8935H92.2667V96.6269H92.1333V96.3602H92V96.0935H91.8667V95.8269H91.7333V95.5602H91.6V95.2935H91.4667V94.8935H91.3333V94.6269H91.2V94.3602H91.0667V94.0935H90.9333V93.8269H90.8V93.5602H90.6667V93.2935H90.5333V93.0269H90.4V92.7602H90.2667V92.4935H90.1333V92.2269H90V91.9602H89.8667V91.6935H89.7333V91.4269H89.6V91.2935H89.4667V91.0269H89.3333V90.7602H89.2V90.6269H89.0667V90.4935H88.9333V90.3602H88.8V90.2269H88.6667V90.0935H88.5333V89.9602H88.4V89.8269H88.1333V89.6935H87.8667V89.5602H87.7333V89.4269H87.4667V89.2935H86.8V89.1602H85.7333V89.2935H85.0667V89.4269H84.8V89.5602H84.5333V89.6935H84.2667V89.8269H84.1333V89.9602H84V90.0935H83.8667V90.2269H83.7333V90.3602H83.6V90.4935H83.4667V90.6269H83.3333V90.7602H83.2V90.8935H83.0667V91.1602H82.9333V91.4269H82.8V91.5602H82.6667V91.8269H82.5333V92.0935H82.4V92.3602H82.2667V92.6269H82.1333V92.8935H82V93.1602H81.8667V93.4269H81.7333V93.6935H81.6V94.0935H81.4667V94.3602H81.3333V94.6269H81.2V94.8935H81.0667V95.1602H80.9333V95.4269H80.8V95.6935H80.6667V95.9602H80.5333V96.2269H80.4V96.4935H80.2667V96.7602H80.1333V97.0269H80V97.2935H79.8667V97.5602H79.7333V97.8269H79.6V98.0935H79.4667V98.3602H79.3333V98.7602H79.2V99.0269H79.0667V99.2935H78.9333V99.5602H78.8V99.8269H78.6667V100.094H78.5333V100.36H78.4ZM3.86666 98.4935V98.6269H22.4V98.4935H23.2V98.3602H23.6V98.2269H24V98.0935H24.2667V97.9602H24.5333V97.8269H24.6667V97.6935H24.9333V97.5602H25.0667V97.4269H25.2V97.2935H25.3333V97.1602H25.4667V97.0269H25.6V96.8935H25.7333V96.7602H25.8667V96.4935H26V96.2269H26.1333V95.9602H26.2667V95.6935H26.4V95.2935H26.5333V94.3602H26.6667V93.6935H26.5333V92.8935H26.4V92.4935H26.2667V92.0935H26.1333V91.8269H26V91.5602H25.8667V91.4269H25.7333V91.1602H25.6V91.0269H25.4667V90.8935H25.3333V90.7602H25.2V90.6269H25.0667V90.4935H24.8V90.3602H24.6667V90.2269H24.4V90.0935H24.1333V89.9602H23.7333V89.8269H23.3333V89.6935H22.8V89.5602H3.86666V98.4935Z" fill="white"/>
</g>
</g>
<path d="M156.511 25.8077V41.1463C156.12 47.2249 147.183 47.2249 146.792 41.1463V25.8077H138.339V42.8077C138.339 48.5479 144.292 53.2036 151.62 53.2036C158.948 53.2036 164.901 48.5479 164.901 42.8077V25.8077H156.511ZM184 7.57441V52.2145H192.5V7.57441H184ZM169.568 52.2145H178.068V7.57441H169.568V52.2145ZM127.937 28.9959C130.292 26.8812 131.651 23.876 131.688 20.7145C131.683 17.8651 130.584 15.1265 128.62 13.0635C126.62 10.8344 123 9.58388 118.151 9.58388H103.609V52.2145H122.391C129.579 52.1052 135.391 46.6677 135.391 40.0063C135.38 35.1572 133.672 31.6932 127.937 28.9959ZM120.817 44.788H112.683V16.9333H118.349C120.896 17.0531 122.896 19.1677 122.869 21.7145C122.869 24.2093 120.844 26.2301 118.349 26.2249H115.401V33.8864H120.817C128.115 33.8864 128.115 44.8239 120.817 44.8239V44.788ZM28.6505 22.2041C28.6197 18.8396 27.2505 15.6213 24.8437 13.2615C22.4426 10.9025 19.1973 9.59481 15.8281 9.62654H0.270813V52.2145H9.31717V16.9333H14C17.177 16.8239 19.8281 19.3396 19.8802 22.5172C19.7401 25.6984 17.0677 28.1839 13.8802 28.0839H11.7812V38.2771L20.7812 52.2145H31.3802L18.8802 34.4281C24.5734 33.1052 28.6145 28.0479 28.6505 22.2041ZM44.4693 24.7041C36.7546 24.9129 30.6093 31.2249 30.6093 38.9385C30.6093 46.6572 36.7546 52.9692 44.4693 53.1787C50.401 53.1787 55.0213 50.4959 57.412 46.2984L50.5 43.1052C49.5 45.1265 47.4213 46.3864 45.1718 46.3344C42.0932 46.4692 39.4948 44.0744 39.3802 40.9959V40.7036H58.1197C58.177 40.1359 58.2026 39.5692 58.1973 38.9959C58.3281 29.7557 52.2401 24.7041 44.4693 24.7041ZM39.3494 35.8557C39.2188 32.8968 41.5838 30.4281 44.5469 30.4281C47.5052 30.4281 49.8693 32.8968 49.7401 35.8557H39.3494ZM92 52.2145V7.57441H83.4896V28.7036C81.2292 26.4224 78.1505 25.1317 74.9374 25.1156C67.9374 25.1156 62.2188 31.3453 62.2188 39.0265C62.2188 46.7036 67.9213 52.9959 74.9374 52.9959C78.1828 52.9692 81.276 51.6359 83.5306 49.3077V52.3077L92 52.2145ZM77.3494 45.6932C73.912 45.6932 71.1093 42.6359 71.1093 38.8651C71.1093 35.0948 73.912 31.9959 77.3494 31.9959C80.7921 31.9959 83.5989 35.0583 83.5989 38.8344C83.5989 42.6156 80.8026 45.6932 77.3494 45.6932Z" fill="#ED1B4F"/>
<path d="M315.432 29.0584C315.432 45.1053 302.421 58.1157 286.369 58.1157C270.323 58.1157 257.312 45.1053 257.312 29.0584C257.312 13.0064 270.323 -0.00400451 286.369 -0.00400451C302.421 -0.00400451 315.432 13.0064 315.432 29.0584Z" fill="#F5D618"/>
<path d="M362.588 48.5175C362.588 48.444 362.511 48.3456 362.479 48.2883C362.448 48.2252 362.432 47.9549 362.412 47.7669C362.369 47.2935 362.265 46.8241 362.099 46.3763C361.771 45.6523 361.109 45.1268 360.328 44.9747C360.287 44.7361 360.193 44.5065 360.052 44.308C359.568 43.6893 358.973 43.1628 358.303 42.7669C358.167 42.6841 358.041 42.5951 357.921 42.4961L357.771 42.3867C357.417 42.1055 356.979 41.9549 356.531 41.9549C355.74 42.0227 355.011 42.4175 354.531 43.0481C354.448 42.8241 354.312 42.308 354.229 42.0481C354.151 41.7883 354.021 41.2773 353.912 40.9747C353.803 40.6789 353.912 40.908 353.912 40.856C353.645 39.856 352.849 39.0841 351.839 38.856C351.473 38.8028 351.109 38.7721 350.74 38.7669C350.396 38.7721 350.057 38.7096 349.74 38.5747C349.74 38.5175 349.792 38.4175 349.849 38.2669C349.969 37.9908 350.068 37.7039 350.14 37.4175C350.489 36.2413 350.579 35.0065 350.401 33.7987C350.751 33.8508 351.104 33.8763 351.459 33.8763C352.631 33.8705 353.787 33.632 354.86 33.1789H354.921C357.333 32.0637 358.891 29.6628 358.921 27.0065V26.9284C358.683 24.444 357.303 22.1055 354.708 19.7883C355.421 19.6107 356.093 19.3241 356.708 18.9284C358.579 17.668 359.391 15.408 358.932 12.7361V12.5585C358.792 11.2252 357.188 10.6361 356.219 11.5585L356.031 11.7361C355.88 11.8867 355.719 12.0227 355.552 12.1465C355.036 12.3815 354.495 12.5429 353.937 12.6268C353.427 12.7252 352.927 12.856 352.432 13.0175C350.109 13.8132 348.64 15.0175 348.068 16.7456C347.74 17.8763 347.896 19.0893 348.489 20.1055L348.541 20.1841C349.255 21.1841 350.079 22.1003 351 22.9175C352.251 24.1159 353.437 25.256 353.683 26.6159C353.683 26.8653 353.803 27.3132 352.969 27.944C352.568 28.1413 352.125 28.2413 351.683 28.2252C350.907 28.2148 350.145 28.0268 349.459 27.6789C348.407 27.1159 347.38 26.4908 346.401 25.808C344.781 24.6268 343.005 23.6789 341.12 22.9961C340.255 22.6523 339.36 22.4028 338.437 22.2465C337.448 22.1268 336.495 21.7825 335.651 21.2465L335.552 21.1789L334.62 20.5175C333.645 19.7252 332.541 19.1268 331.349 18.7361C330.912 18.6003 330.464 18.5065 330.011 18.4549C329.661 18.4492 329.317 18.356 329.011 18.1935L328.38 17.7361C327.516 17.0695 326.604 16.4695 325.64 15.9549C324.021 15.2044 322.307 14.668 320.552 14.356C320.36 14.1987 320.188 14.0227 320.041 13.8241C319.749 13.408 319.396 13.0377 319 12.7148C317.625 11.4653 315.855 10.7413 314 10.668C313.817 10.6575 313.64 10.6575 313.459 10.668C312.328 10.8295 311.276 11.3508 310.459 12.1575C308.932 13.4961 307.271 14.6935 305.661 15.8653C303.021 17.6465 300.579 19.6935 298.36 21.9747C296.011 24.408 295.151 27.4336 294.36 30.1055L294 31.308C293.803 32.0372 293.609 32.7987 293.432 33.5268C292.511 37.2361 291.631 40.7361 288.172 42.9856C287.615 43.3347 287.307 43.9747 287.38 44.6268C287.459 45.2825 287.891 45.8399 288.511 46.0747C288.937 46.2252 289.385 46.2987 289.839 46.2987C289.864 46.668 290.016 47.0175 290.26 47.2987C290.64 47.72 291.188 47.9601 291.76 47.9549H291.817C294.208 47.9549 295.912 46.5747 297.369 45.1575C297.927 45.6987 298.615 46.0841 299.369 46.2773H299.869C300.661 46.1413 301.459 46.0789 302.26 46.0951C302.959 46.308 303.683 46.5747 304.401 46.8456C304.937 47.0585 305.511 47.2669 306.079 47.4653L306.369 47.5481H306.62C307.817 47.3815 308.849 46.632 309.38 45.5481L309.448 45.444V45.3347C309.505 45.22 309.552 45.0951 309.579 44.9653L309.683 45.2987C309.828 46.0175 310.136 46.6987 310.568 47.2987C311.005 47.8028 311.64 48.0893 312.312 48.0747C312.531 48.0747 312.749 48.0533 312.969 48.0175H313.041L313.12 48.0951C313.479 48.5268 313.948 48.856 314.479 49.0372C315.109 49.2465 315.749 49.4175 316.38 49.5747C317.151 49.7617 317.907 49.9908 318.651 50.2669H318.729C319.317 50.4856 319.932 50.6055 320.563 50.6159C321.355 50.6216 322.125 50.3295 322.719 49.7987C323.421 49.2465 323.917 48.4747 324.12 47.6055C324.281 47.5799 324.437 47.5372 324.588 47.4856C325.651 47.1361 326.688 45.1789 326.697 45.168C326.771 45.032 326.849 44.9028 326.932 44.7773C327.183 44.4123 327.317 43.9799 327.317 43.5372C327.312 42.5175 326.495 41.6935 325.479 41.6789H322.609C322.375 41.6935 322.145 41.7361 321.921 41.808V41.756C321.771 41.5637 321.609 41.1465 321.391 41.0372H321.459L322.021 41.0951H323.109C324.303 41.0695 325.484 40.9284 326.651 40.6841C327.645 40.5747 328.651 40.5481 329.651 40.6055H330.021C330.437 40.6055 330.869 40.6055 331.339 40.6841C331.812 40.7669 332.339 40.7773 332.869 40.7773H333.432C333.927 40.756 334.416 40.6732 334.891 40.5175C334.937 40.7669 334.989 41.0747 335.068 41.444L335.14 41.7669C335.38 43.5065 336.369 45.0481 337.849 45.9961L338.161 46.1935C338.984 46.8399 339.964 47.256 341 47.408C341.484 47.4653 341.973 47.444 342.448 47.3456C344.303 46.9908 346.213 47.4336 347.719 48.5637L347.86 48.6575C348.031 48.7669 348.193 48.8919 348.339 49.0268C348.751 49.408 349.229 49.7148 349.751 49.9284C350.156 50.0841 350.584 50.1732 351.021 50.1789C351.609 50.1893 352.188 50.0268 352.688 49.7148L352.849 49.944C353.14 50.3705 353.479 50.7669 353.849 51.1268C354.568 51.7617 355.511 52.0893 356.469 52.0372H358.251C358.391 52.0268 358.531 52.0013 358.672 51.9653C358.943 52.1628 359.271 52.2721 359.609 52.2773C359.76 52.2773 359.917 52.2508 360.063 52.2039L361.719 51.668C362.188 51.5227 362.573 51.1841 362.771 50.7361C363.068 50.0123 363 49.1841 362.588 48.5175ZM310.161 40.2669L310.041 40.0747C309.989 40.0065 309.932 39.9284 309.869 39.8241C309.645 39.5123 309.453 39.1789 309.303 38.8241C309.803 38.8241 310.303 38.9284 310.88 38.944L310.161 40.2669ZM285.437 42.4549L284.568 42.0268C283.807 41.444 283.193 40.6935 282.781 39.8241C282.531 39.408 282.271 38.9653 281.979 38.5637C281.693 38.1893 281.355 37.856 280.979 37.5637L280.803 37.3971C279.672 34.5585 278.937 31.5841 278.62 28.5481C278.469 27.4549 278.109 26.408 277.568 25.444C275.995 23.1159 274.276 20.8867 272.421 18.7773L271.932 18.2883L265.76 13.1575L265.672 13.0841C264.833 12.4388 263.891 11.9388 262.891 11.5951C261.131 11.0377 259.229 11.1055 257.511 11.7883L257.412 11.8347C256.88 12.1159 256.412 12.4336 255.891 12.7456C255.229 13.2096 254.511 13.5951 253.76 13.8971L253.631 13.944C252.973 14.2096 252.307 14.444 251.631 14.6361C249.989 15.0227 248.459 15.7773 247.151 16.8456L246.312 17.6361C245.979 17.944 245.672 18.2361 245.541 18.3241H245.281C243.183 18.2508 241.136 18.9653 239.541 20.3241L239.479 20.3763C238.579 21.308 237.511 22.0585 236.328 22.5841C235.797 22.7361 235.251 22.8295 234.697 22.8653H234.64C233.88 22.908 233.125 23.0227 232.391 23.2148C230.631 23.8028 229.005 24.7508 227.631 25.9961C227.021 26.4653 226.631 26.756 226.469 26.8653L226.079 27.1055C224.803 28.0372 223.297 28.6003 221.719 28.7361H221.651C220.787 28.6628 220.041 28.1107 219.719 27.308C219.464 26.2935 219.792 25.2148 220.568 24.5175C221.088 23.9961 221.708 23.5175 222.303 22.9653C223.339 22.1628 224.281 21.2361 225.109 20.2148C226.265 18.5429 226.156 16.3028 224.839 14.756C223.667 13.7096 222.219 13.0175 220.672 12.756H220.552L220.292 12.7044H220.208L219.74 12.6268C219.469 12.5747 219.208 12.5268 218.969 12.4653C218.427 12.2669 217.921 11.9856 217.469 11.6268C217.088 11.3508 216.688 11.1003 216.281 10.8653L215.131 10.256L214.421 11.3456C213.88 12.1841 213.636 13.1732 213.729 14.168V14.2465C214.125 16.3241 215.489 18.0893 217.401 18.9961L217.599 19.0747C218 19.2413 218.427 19.3347 218.86 19.3653C217.817 20.2304 216.86 21.1935 216 22.2361C214.448 24.2465 214.073 26.9227 215 29.2883C216.052 31.756 218.339 33.4747 221 33.808C221.401 33.8653 221.807 33.8971 222.208 33.8971C222.88 33.8867 223.552 33.8132 224.208 33.6789C224.26 34.6789 224.292 35.3347 224.36 35.7361C224.557 36.5637 224.823 37.3653 225.161 38.1465V38.2039C224.677 38.5013 224.161 38.7361 223.62 38.908C223.229 38.9549 222.792 38.9747 222.469 38.9961H221.979C221.516 39.0533 221.079 39.2617 220.74 39.5841C220.255 40.1732 219.891 40.856 219.672 41.5841C219.531 41.9549 219.38 42.3347 219.229 42.6575C219.099 42.8456 218.932 43.0175 218.749 43.1575C218.516 42.7669 218.213 42.4284 217.849 42.1575C217.151 41.6575 216.219 41.6575 215.521 42.1575L215.197 42.3653L215.12 42.4175C214.604 42.7456 214.104 43.1107 213.631 43.4961C213.265 43.8189 213.011 44.2508 212.901 44.7252C212.771 44.7456 212.651 44.7773 212.531 44.8241C211.557 45.2361 210.86 46.1107 210.672 47.1465C210.672 47.4961 210.588 48.1465 210.541 48.3456L210.448 48.444C209.797 49.1523 209.797 50.2413 210.448 50.944C211.292 51.4747 212.235 51.8189 213.219 51.944H213.661C213.771 51.9132 213.88 51.8705 213.979 51.8132H214.421C214.697 51.8508 214.969 51.9028 215.24 51.9653C215.792 52.1055 216.355 52.1841 216.921 52.1935C217.541 52.1987 218.151 52.0533 218.697 51.7669C219.479 51.3399 220.104 50.6841 220.489 49.8867C220.588 49.7148 220.688 49.5372 220.792 49.3971H220.948C221.255 49.4908 221.573 49.5481 221.891 49.5747C223.197 49.5695 224.464 49.1003 225.459 48.256C225.719 48.0481 225.969 47.8132 226.197 47.5951C226.432 47.3653 226.677 47.1575 226.937 46.9653C227.245 46.856 227.568 46.8028 227.891 46.8132C228.584 46.8399 229.271 46.9284 229.948 47.0747C231.26 47.4227 232.656 47.2669 233.86 46.6361C234.448 46.308 235.041 45.9961 235.521 45.7456L235.599 45.6935C235.86 45.5637 236.088 45.444 236.271 45.3347C237.355 44.6107 238.203 43.5893 238.729 42.3971C238.979 41.8971 239.36 40.9747 239.459 40.7148H239.781C240.5 40.6935 241.219 40.6216 241.932 40.4961C242.339 40.4175 242.755 40.3601 243.172 40.3347H243.631C244.303 40.3347 245.271 40.4175 246 40.4961C246.729 40.5747 247 40.6159 247.828 40.6575H249.041C249.735 40.6575 250.416 40.5013 251.041 40.1935C251.188 40.3456 251.448 40.7039 251.62 40.856H251.552C251.047 40.8508 250.563 41.0533 250.208 41.4175C249.599 41.2148 248.948 41.1575 248.312 41.256C247.516 41.3295 246.729 41.4492 245.948 41.6159C245.369 41.7039 244.88 42.0789 244.64 42.6159C244.385 43.1987 244.421 43.8653 244.74 44.4175C245.161 45.168 245.568 45.8456 246 46.5637L246.188 46.8867C246.552 47.4747 247.208 47.8132 247.901 47.7669H248.36C248.391 47.8132 248.416 47.8653 248.437 47.9175C248.776 48.6003 249.245 49.2096 249.817 49.7039C250.917 50.5799 252.369 50.8508 253.708 50.4336C255.584 49.8971 257.407 49.1987 259.161 48.3456H259.88C260.844 48.3601 261.781 48.0013 262.489 47.3456L262.568 47.2669L262.631 47.168C262.948 46.6987 263.251 46.2304 263.531 45.756V45.9284C263.973 47.0372 265.073 47.7456 266.271 47.6935H266.328C267.421 47.6107 268.5 47.3508 269.511 46.9284H269.568L269.969 46.7883H270.063C271.011 46.4695 272.031 46.4175 273.011 46.6361H273.328C274.495 46.5123 275.588 46.0268 276.459 45.2465C277.984 46.8867 280.14 47.7935 282.38 47.7361H283.14C283.88 47.5841 284.437 46.9601 284.5 46.2039C284.516 46.0585 284.516 45.9132 284.5 45.7669L284.921 45.6935C285.636 45.5429 286.188 44.9695 286.312 44.2465C286.448 43.5227 286.093 42.7987 285.437 42.4549ZM265.079 38.5481L264.869 38.7361C264.391 39.1413 263.964 39.6055 263.599 40.1159C263.328 39.6465 263.14 39.308 262.989 38.9961C263.604 38.9028 264.203 38.7304 264.771 38.4856H265.099L265.079 38.5481Z" fill="#F5D618"/>
<path d="M213.12 46.1573H213.041C212.563 46.36 212.197 46.7668 212.041 47.2668C211.921 48.7881 211.88 48.9438 211.469 49.4078C211.349 49.537 211.271 49.8345 211.401 49.9652C211.969 50.2198 212.563 50.4173 213.172 50.5584C213.303 50.5584 213.412 50.1788 213.708 49.1266C213.869 48.5636 214.063 47.9282 214.26 47.3454C214.26 47.3454 214.26 47.2558 214.14 47.0636C214.021 46.8761 213.437 46.1573 213.12 46.1573ZM214.771 46.1573C214.921 46.2933 215.115 46.3704 215.317 46.3761C215.484 46.3704 215.645 46.3293 215.792 46.2464C216.531 45.7037 217.131 44.9906 217.541 44.1678C217.631 43.9173 217.339 43.684 216.969 43.3969C216.771 43.2668 216.516 43.2668 216.317 43.3969L215.912 43.6678C215.437 43.9693 214.984 44.3078 214.552 44.6678C214.38 44.8345 214.276 45.0584 214.26 45.2985C214.24 45.4282 214.271 45.5636 214.349 45.6788C214.484 45.8345 214.625 45.9906 214.771 46.136V46.1573ZM284.771 43.7454L283.849 43.2881C282.855 42.6001 282.057 41.6626 281.531 40.5745C281.292 40.1788 281.041 39.7668 280.781 39.3865C280.557 39.1105 280.312 38.8558 280.041 38.6266C279.855 38.4797 279.688 38.3078 279.552 38.1157C278.333 35.0892 277.547 31.9078 277.208 28.6678C277.073 27.7881 276.776 26.9386 276.339 26.1678C274.807 23.9173 273.136 21.7668 271.339 19.725C271.219 19.5949 271.088 19.4745 270.979 19.3652L270.891 19.2772L264.812 14.225C264.073 13.6521 263.245 13.2042 262.36 12.9078C261.745 12.6933 261.099 12.5892 260.448 12.5949C259.615 12.5949 258.792 12.7506 258.021 13.0636C257.541 13.324 257.021 13.6266 256.609 13.9173C255.849 14.449 255.021 14.8865 254.151 15.2146C253.459 15.5121 252.749 15.7616 252.031 15.9652C250.593 16.2985 249.251 16.949 248.099 17.8761L247.271 18.6464C246.271 19.6464 246.12 19.725 245.271 19.725C243.5 19.6521 241.765 20.2506 240.421 21.4078C239.385 22.4745 238.145 23.324 236.781 23.9078C236.131 24.1001 235.459 24.2146 234.781 24.2558C234.063 24.2933 233.349 24.4026 232.651 24.584C231.079 25.136 229.631 25.9906 228.391 27.1053C227.959 27.4334 227.391 27.8761 227.131 28.048L226.683 28.324C225.193 29.3969 223.437 30.0266 221.609 30.1573H221.469C220.016 30.0428 218.76 29.0892 218.26 27.7146C217.86 26.2037 218.317 24.5892 219.459 23.5173C220.021 22.9548 220.661 22.4173 221.281 21.8969C222.276 21.1521 223.188 20.2985 224 19.3558C224.755 18.225 224.683 16.736 223.817 15.684C222.817 14.8813 221.625 14.3397 220.36 14.1157H220.24L219.969 14.0636C219.521 13.9745 219.088 13.9173 218.64 13.8078C217.579 13.3506 216.573 12.772 215.64 12.084C215.265 12.6626 215.099 13.3506 215.172 14.0376C215.479 15.6412 216.531 17.0064 218 17.7146L218.172 17.7881C218.599 17.949 219.057 18.0266 219.521 18.0064H220.079C220.38 17.996 220.677 18.0225 220.969 18.084C221.281 18.1788 221.511 18.4438 221.552 18.7668C221.552 18.9652 221.489 19.1157 221.229 19.313L220.521 19.9078C219.265 20.8761 218.109 21.9693 217.068 23.1678C215.844 24.7824 215.547 26.9173 216.292 28.8078C217.156 30.7933 219.016 32.173 221.172 32.4173C221.5 32.4693 221.833 32.496 222.172 32.496C223.229 32.4548 224.276 32.2772 225.292 31.9745H225.391C225.437 31.9745 225.521 31.9745 225.541 32.2037C225.541 32.6464 225.588 33.2037 225.609 33.6464C225.609 34.4438 225.683 35.1933 225.74 35.5173C225.917 36.2506 226.156 36.9693 226.459 37.6678C226.563 37.9078 226.64 38.0949 226.672 38.184C226.76 38.496 226.683 38.8293 226.459 39.0636C225.693 39.6678 224.812 40.1053 223.869 40.3558C223.412 40.4173 222.869 40.4334 222.568 40.4548H222.172C222.005 40.4693 221.855 40.5428 221.74 40.6573C221.421 41.1266 221.177 41.636 221.011 42.1788C220.839 42.6053 220.672 43.048 220.5 43.4078C219.964 44.1573 219.245 44.7558 218.412 45.1464L217.828 45.4854C217.541 45.9906 217.183 46.4548 216.76 46.8558C216.437 47.1157 216.041 47.2616 215.631 47.2772C215.088 48.0266 214.74 48.9078 214.631 49.824L214.541 50.236V50.3652H214.62C214.959 50.4026 215.292 50.4652 215.62 50.548C216.073 50.6521 216.536 50.7198 217 50.736C217.396 50.7454 217.787 50.6521 218.14 50.4652C218.672 50.1626 219.093 49.6933 219.339 49.136C219.527 48.772 219.755 48.4386 220.031 48.136C220.188 47.9548 220.421 47.8558 220.661 47.8652C220.907 47.8813 221.145 47.9225 221.38 47.996C221.599 48.0636 221.823 48.1053 222.052 48.1266C223.011 48.1053 223.932 47.7506 224.661 47.1266C224.88 46.9438 225.099 46.7454 225.312 46.548C225.62 46.236 225.953 45.949 226.312 45.6933C226.823 45.4693 227.38 45.3652 227.937 45.3865C228.74 45.4121 229.531 45.5064 230.312 45.6788C230.677 45.7772 231.057 45.824 231.437 45.824C232.057 45.8345 232.667 45.684 233.208 45.3865C233.812 45.048 234.421 44.725 234.912 44.4652L235.64 44.0745C236.459 43.4693 237.109 42.6678 237.521 41.736C237.781 41.236 238.219 40.1266 238.219 40.1157V40.0636L237.219 39.2985V39.3652C236.88 39.9225 236.516 40.46 236.12 40.9745C234.339 43.4078 231.432 43.7146 229.12 43.7146H228.631C226.016 43.6001 223.489 44.6573 221.729 46.5949C221.651 46.673 221.527 46.673 221.448 46.5949C221.416 46.5266 221.416 46.4548 221.448 46.3865C221.484 46.2146 221.552 46.0532 221.64 45.9078C223.448 43.3454 226.531 42.9652 229.021 42.9078C230.516 42.8761 231.989 42.537 233.349 41.9078C234.776 41.0584 235.844 39.7146 236.349 38.136C236.609 37.2506 236.797 36.3506 236.912 35.4334C237.005 34.7146 237.14 34.0012 237.312 33.2985C237.339 33.2094 237.421 33.1573 237.511 33.1573H237.579C237.683 33.1573 237.86 33.2464 237.86 33.3865C237.421 35.0266 237.443 36.7558 237.912 38.3865C238.292 39.1157 239.099 39.5173 239.912 39.3865C240.557 39.3652 241.203 39.2933 241.839 39.1788C242.297 39.0892 242.765 39.0318 243.229 39.0064C243.407 38.996 243.584 38.996 243.76 39.0064C244.547 39.0318 245.333 39.136 246.099 39.313C246.76 39.4652 247.427 39.5693 248.099 39.6266H249.251C249.713 39.6626 250.177 39.537 250.563 39.2668C250.771 39.084 250.697 38.824 250.563 38.496V38.4334C250.563 38.3865 250.563 38.313 250.5 38.2558C250.369 37.813 250.161 37.1573 250.5 36.8558C250.557 36.8188 250.62 36.7985 250.688 36.7985C250.76 36.7881 250.828 36.8293 250.849 36.8969C250.849 37.0266 250.932 37.1464 250.959 37.2772C251.083 37.824 251.303 38.3454 251.609 38.813C252.479 39.8558 253.557 40.6985 254.771 41.2985C255.86 41.9386 256.593 43.0428 256.771 44.2985C256.771 44.9334 256.151 45.3865 255.688 45.6678C254.891 46.0949 254.016 46.3558 253.109 46.4334C252.792 46.4078 252.484 46.2881 252.229 46.0949C251.521 45.4334 251.599 45.2146 251.14 44.4334C250.896 44.0064 250.615 43.6001 250.312 43.2146C249.869 42.725 249.208 42.496 248.563 42.6053C247.823 42.673 247.088 42.7933 246.369 42.9652C246.213 42.996 246.083 43.0949 246.011 43.236C245.932 43.4026 245.932 43.6001 246.011 43.7668C246.432 44.496 246.828 45.1788 247.251 45.8865L247.437 46.1933C247.557 46.3506 247.749 46.4225 247.937 46.3969H248.609C248.891 46.36 249.167 46.46 249.36 46.6678C249.489 46.8652 249.609 47.0745 249.719 47.2772C249.953 47.7985 250.297 48.272 250.719 48.6573C251.203 49.0636 251.817 49.2772 252.448 49.2668C252.735 49.2668 253.011 49.225 253.281 49.136C255.188 48.6001 257.041 47.8865 258.812 46.996H259.781C260.396 47.0318 261 46.8345 261.469 46.4334C262.021 45.6318 262.511 44.7881 262.937 43.9173C263.317 43.2506 263.317 42.4386 262.937 41.7772C262.197 40.6933 261.599 39.5173 261.161 38.2772L260.76 38.136C260.479 38.0064 260.177 37.9282 259.869 37.9173C259.573 37.8813 259.276 38.0173 259.109 38.2668L261.109 42.2668C261.292 42.6001 261.36 42.9854 261.312 43.3652C260.995 44.1933 260.527 44.9548 259.932 45.6053C259.88 45.6464 259.817 45.673 259.749 45.684C259.749 45.684 259.62 45.684 259.688 45.4282C259.927 44.5532 260.047 43.6521 260.063 42.7454C259.531 41.5266 258.907 40.3506 258.197 39.225C257.891 38.824 257.713 38.3345 257.688 37.824C257.713 37.6105 257.864 37.4225 258.068 37.3558C258.36 37.2616 258.656 37.1892 258.959 37.136C259.683 36.9745 260.432 36.8078 260.697 36.4078C261.527 35.0636 262.057 33.5584 262.251 31.996C262.251 31.9173 262.317 31.7668 262.432 31.7668C262.541 31.7668 262.563 31.7668 262.588 31.9334C262.885 33.6521 262.484 35.4173 261.469 36.8345C261.401 36.9548 261.38 37.0892 261.401 37.225C261.437 37.3293 261.5 37.4173 261.588 37.4854C262.563 37.6985 263.584 37.5428 264.448 37.048C265.208 37.0428 265.969 36.9548 266.708 36.7881L267.391 36.6678C267.453 36.6985 267.505 36.7558 267.531 36.824C266.927 37.5121 266.521 38.3506 266.36 39.2464C266.188 39.4173 266.011 39.5949 265.817 39.7558C265.088 40.2668 264.584 41.037 264.412 41.9173C264.401 42.0949 264.541 42.2506 264.719 42.2558C264.844 42.2506 264.964 42.2146 265.068 42.1573C265.177 42.1001 265.297 42.0693 265.421 42.0745C265.527 42.0892 265.604 42.1788 265.609 42.2881L264.86 43.3969C264.64 43.8454 264.62 44.3704 264.812 44.8345C264.891 45.0949 264.812 45.3078 264.932 45.537C265.188 46.0693 265.74 46.3917 266.328 46.3558C267.281 46.2668 268.208 46.037 269.088 45.6678L269.563 45.5064C270.755 45.0693 272.057 44.9797 273.303 45.2558C274.459 45.0532 275.516 44.4652 276.303 43.584C276.765 43.6412 277.193 43.8813 277.479 44.2558C278.74 45.6412 280.547 46.4121 282.421 46.3558H282.849C283.063 46.3558 283.12 46.2037 283.131 46.0745C283.14 45.9438 283.021 45.7668 282.803 45.6573L281.672 45.0584C280.729 44.6001 279.973 43.8397 279.521 42.8969C279.213 41.9797 278.803 41.1053 278.292 40.2881L278.031 39.9078C277.864 39.684 277.713 39.4438 277.588 39.1933C278.817 39.636 279.5 40.5479 280.328 42.0479C281.115 43.3917 282.511 44.2616 284.063 44.3865C284.255 44.3865 284.453 44.3652 284.64 44.313C284.828 44.3345 284.995 44.1892 285 43.996C285.011 43.8704 284.927 43.7616 284.812 43.725L284.771 43.7454ZM263 25.6157C263 25.736 262.891 25.8078 262.812 25.8078C262.729 25.8078 262.688 25.8078 262.661 25.636C262.511 24.5428 262.213 23.4797 261.781 22.4652C261.667 22.2464 261.531 22.0428 261.38 21.8454C261.109 21.4745 260.869 21.1573 261.14 20.7146C261.255 20.5693 261.432 20.4906 261.62 20.5064C261.719 20.5064 261.817 20.5266 261.912 20.5636C262.333 20.8454 262.661 21.2506 262.839 21.725C263.287 22.9745 263.344 24.3345 263 25.6157ZM273.208 41.8078C273.193 42.0428 273.099 42.272 272.948 42.4548C272.516 42.6788 272.036 42.7772 271.552 42.7454C271.151 42.7454 271.011 42.6787 270.921 42.5479C270.828 42.4173 270.979 42.136 270.979 42.136C271.276 41.5064 271.812 41.0173 272.469 40.7881C272.661 40.7146 272.875 40.7146 273.068 40.7881C273.312 40.996 273.183 41.6933 273.161 41.8078H273.208ZM275.989 35.4173C275.969 35.6412 275.907 35.8558 275.803 36.0584C275.735 36.2302 275.568 36.3454 275.38 36.3454C275.079 36.3454 275.099 35.9854 275.088 35.9334C275.083 35.4548 275.005 34.9745 274.869 34.5173C274.661 34.0636 273.651 32.7772 273.079 32.824C272.749 32.9334 272.469 33.1521 272.271 33.4334C271.932 33.8761 271.932 33.9282 271.817 33.996C271.708 34.0636 271.579 33.996 271.541 33.7668C271.443 33.4386 271.443 33.0949 271.541 32.7668C271.631 32.4173 271.76 32.084 271.932 31.7668C271.932 31.7668 272.229 31.0636 272.339 30.8969C272.489 30.6318 272.765 30.4652 273.068 30.4548C273.412 30.4438 273.74 30.6105 273.932 30.8969C274.12 31.1105 274.276 31.3506 274.401 31.6053C274.584 31.8917 274.792 32.1626 275.031 32.4078C275.443 32.8917 275.745 33.4652 275.921 34.0745C276.021 34.5173 276.027 34.9745 275.937 35.4173H275.989ZM251.937 43.5636C252.115 43.8454 252.265 44.1412 252.391 44.4438C252.62 44.9548 252.817 45.3969 253.052 45.4438C253.161 45.46 253.271 45.46 253.38 45.4438C254.036 45.4026 254.656 45.1573 255.172 44.7454C255.469 44.496 255.369 44.3345 255.24 44.1053C255.188 44.0225 255.14 43.9334 255.099 43.8454C254.973 43.584 254.88 43.313 254.812 43.037C254.661 42.5266 254.531 42.037 253.989 42.1678C253.197 42.2772 252.401 42.3293 251.599 42.324C251.599 42.324 251.317 42.324 251.24 42.5173C251.161 42.7037 251.36 42.9282 251.579 43.136C251.703 43.2668 251.807 43.4121 251.891 43.5636H251.937ZM361.312 49.1157C361.229 48.96 361.161 48.7933 361.109 48.6266C361.063 48.3969 361.031 48.1464 361 47.9173C360.973 47.5745 360.901 47.2412 360.792 46.9173C360.615 46.5693 360.26 46.3454 359.869 46.3345C359.74 46.3397 359.609 46.3652 359.489 46.4173C358.921 46.7037 358.579 47.0064 358.683 47.6573C358.953 48.4854 359.177 49.3293 359.349 50.184C359.349 50.324 359.469 50.7881 359.688 50.7881H359.74L361.38 50.2464C361.459 50.2198 361.521 50.1678 361.563 50.0949C361.651 49.8454 361.479 49.4745 361.312 49.1157ZM358.88 45.1157C358.5 44.6464 358.041 44.2506 357.521 43.9438C357.333 43.8345 357.156 43.7094 356.989 43.5745L356.901 43.5064C356.792 43.4173 356.661 43.3652 356.521 43.3652C356.031 43.4282 355.609 43.7506 355.421 44.2037C355.421 44.5173 355.849 45.0745 356.421 45.7668L356.541 45.9173C356.771 46.225 357.109 46.4282 357.489 46.4854C357.823 46.4797 358.145 46.3454 358.38 46.1053C358.62 45.8652 359.088 45.3761 358.88 45.0745V45.1157ZM320.421 42.725C320.125 42.7668 319.828 42.7881 319.531 42.7881H318.719C318.563 42.772 318.401 42.772 318.24 42.7881C317.927 43.2985 317.749 43.8761 317.719 44.4745C317.803 45.1573 318.5 45.2985 319.031 45.4078C319.235 45.4548 319.448 45.4797 319.661 45.4854C319.969 45.5225 320.265 45.3761 320.421 45.1053C320.688 44.4282 320.885 43.7198 321 42.996C321.031 42.9334 321.031 42.86 321 42.7985C320.901 42.7037 320.765 42.6573 320.631 42.6678L320.421 42.725ZM357.588 47.5584V47.5064H357.541C356.588 47.5636 356 46.7985 355.437 46.0584C355.251 45.813 355.068 45.5745 354.88 45.3761C354.599 45.0636 354.292 44.7668 353.969 44.496C353.683 44.2824 353.437 44.0225 353.24 43.725C353.068 43.2881 352.927 42.8397 352.817 42.3865C352.719 42.0173 352.631 41.6678 352.541 41.3865L352.479 41.236C352.312 40.7772 352.099 40.236 351.479 40.1157C351.172 40.0693 350.86 40.0428 350.552 40.037C349.745 40.1105 348.953 39.813 348.391 39.236C348.073 38.7302 348.073 38.0892 348.391 37.584C348.489 37.3652 348.568 37.1318 348.62 36.8969C348.948 35.86 349.011 34.7558 348.803 33.684C348.765 33.537 348.724 33.3969 348.672 33.2558C348.521 32.9026 348.464 32.5173 348.5 32.136C348.563 31.996 348.708 31.913 348.86 31.9334C349.027 31.9438 349.193 31.9745 349.349 32.0266C349.459 32.0266 349.552 32.0266 349.661 32.1053C350.197 32.2412 350.755 32.313 351.312 32.324C352.287 32.324 353.255 32.1214 354.151 31.736C356.057 30.8761 357.297 28.996 357.339 26.9078C357.131 24.636 355.729 22.4548 353.063 20.2146L352.86 20.048C352.511 19.7668 352.099 19.4078 352.088 19.048C352.079 18.684 352.912 18.5376 353.432 18.4173L353.751 18.3345H353.891C354.563 18.1933 355.208 17.9438 355.803 17.584C357.697 16.3078 357.631 14.0584 357.412 12.813C357.412 12.7772 357.412 12.736 357.412 12.6933C357.412 12.5376 357.328 12.3345 357.183 12.3345C357.131 12.3397 357.079 12.36 357.041 12.3969L356.86 12.5636C356.636 12.7933 356.391 12.9906 356.12 13.1573C355.495 13.4797 354.817 13.7042 354.12 13.813C353.667 13.9026 353.219 14.0173 352.781 14.1573C350.901 14.8078 349.719 15.7668 349.303 16.996C349.099 17.7558 349.213 18.5636 349.62 19.236C350.307 20.2146 351.104 21.1053 352 21.8969C353.36 23.1933 354.771 24.548 355.088 26.3865C355.26 27.4854 354.735 28.5745 353.771 29.1266C353.14 29.4854 352.421 29.6626 351.697 29.6464C350.697 29.636 349.708 29.3865 348.817 28.9173C347.708 28.324 346.636 27.6521 345.609 26.9173C344.088 25.8026 342.427 24.8969 340.661 24.236C339.869 23.9173 339.052 23.684 338.208 23.548C337 23.4026 335.844 22.9693 334.828 22.2985C334.5 22.0745 334.161 21.8345 333.828 21.6053C332.989 20.9282 332.031 20.4078 331 20.0745C330.631 19.96 330.245 19.8813 329.86 19.8345C329.297 19.8026 328.749 19.6266 328.271 19.324L327.588 18.8345C326.771 18.2146 325.907 17.6573 325 17.1788C323.473 16.4797 321.864 15.9797 320.208 15.684C319.688 15.5064 319.24 15.1521 318.937 14.684C318.703 14.3709 318.432 14.0949 318.12 13.8558C317 12.7933 315.541 12.1626 314 12.0745H313.563C312.735 12.225 311.979 12.6266 311.391 13.225C309.817 14.5949 308.131 15.824 306.489 17.0064C303.927 18.7412 301.547 20.7302 299.391 22.9438C297.271 25.1266 296.5 27.8558 295.76 30.496L295.432 31.6678C295.229 32.3865 295.041 33.1266 294.86 33.8454C293.86 37.736 292.86 41.6266 289 44.1573C288.76 44.2985 288.807 44.6521 289.068 44.736C290.292 45.0949 291.604 44.7037 292.432 43.736C293.432 42.548 293.959 41.3969 295.14 40.136C295.14 40.136 295.312 39.9652 295.421 40.0064C295.531 40.048 295.541 40.0745 295.5 40.2146C295.333 40.7198 295.073 41.184 294.74 41.5949C294.421 42.0225 294.172 42.4906 294 42.996C293.469 44.1157 292.667 45.084 291.661 45.8078C291.573 45.86 291.5 45.9282 291.432 46.0064C291.339 46.1157 291.349 46.1678 291.349 46.1678C291.349 46.4078 291.521 46.5584 291.912 46.5745C294.088 46.5745 295.64 45.0266 297.14 43.5745C297.208 43.5173 297.297 43.4797 297.391 43.4854C297.469 43.4652 297.552 43.4652 297.631 43.4854C297.812 43.6157 297.979 43.7616 298.14 43.9173C298.588 44.3917 299.161 44.736 299.792 44.9173C300.531 44.7881 301.281 44.7198 302.031 44.7037H302.631C303.421 44.9438 304.219 45.2464 304.979 45.537C305.531 45.7454 306.088 45.9548 306.651 46.1464C307.38 46.1464 307.901 45.4438 308.281 44.8454C308.412 44.4438 308.412 44.0064 308.281 43.6053C308.219 43.3704 308.193 43.1266 308.197 42.8865C308.364 42.8345 308.541 42.8345 308.708 42.8865C308.88 42.9026 309.052 42.9026 309.219 42.8865C309.459 42.824 309.609 42.5892 309.563 42.3454C309.391 41.7146 309.093 41.1266 308.683 40.6157C308.36 40.1788 308.099 39.6933 307.912 39.184C307.615 38.5266 307.197 37.9334 306.672 37.4334C306.083 36.9078 305.651 36.236 305.412 35.4854C305.412 35.4854 305.36 35.324 305.412 35.2668C305.459 35.2037 305.62 35.2668 305.62 35.2668C305.88 35.4548 306.151 35.6787 306.401 35.8761C307.156 36.6157 308.093 37.1464 309.12 37.4078C310.136 37.537 311.156 37.5797 312.183 37.537C312.427 37.5012 312.588 37.2558 312.521 37.0173C312.068 36.1105 311.703 35.1626 311.432 34.184C310.979 32.7881 310.907 31.2933 311.219 29.8558C311.245 29.7412 311.344 29.6573 311.459 29.6573C311.625 29.725 311.745 29.8761 311.771 30.0584V30.2558C311.921 32.3345 312.052 34.3078 313.328 35.9854C313.667 36.46 314.109 36.8397 314.631 37.0949C314.979 37.2558 315.292 37.4797 315.563 37.7558C315.828 38.1318 315.88 38.6157 315.688 39.037L314.131 41.3345C313.74 41.8345 313.448 42.4026 313.271 43.0064C313.188 43.5636 313.188 44.136 313.271 44.6933V44.824C313.224 44.7985 313.183 44.7558 313.161 44.7037C312.579 43.8761 312.416 42.824 312.719 41.8558C312.932 41.3761 314.197 39.5636 314.568 38.9745C314.688 38.7881 314.792 38.5949 314.688 38.4652C314.287 38.1892 313.839 37.996 313.36 37.8969C313.145 37.9854 312.969 38.1464 312.86 38.3558C312.86 38.3558 312.812 38.4282 312.771 38.4745L310.839 41.996V42.1266C310.697 42.46 310.656 42.8293 310.729 43.184C310.828 43.7037 311 44.2772 311.12 44.684L311.219 45.0266C311.323 45.5584 311.527 46.0693 311.817 46.5266C311.989 46.7198 312.235 46.824 312.489 46.813C312.636 46.8078 312.787 46.7933 312.932 46.7668C313.161 46.7198 313.401 46.7198 313.631 46.7668C313.907 46.8652 314.151 47.048 314.328 47.2881C314.521 47.5428 314.781 47.736 315.079 47.8454C315.683 48.048 316.303 48.2037 316.912 48.3652C317.735 48.5636 318.547 48.8078 319.339 49.1053C319.787 49.2668 320.255 49.36 320.729 49.3865C321.208 49.3865 321.661 49.2037 322.011 48.8761C322.557 48.449 322.917 47.824 323.011 47.136C323.131 46.4745 323.349 46.4282 323.839 46.4078C324.005 46.4026 324.172 46.3761 324.328 46.324C324.875 45.8813 325.323 45.3188 325.631 44.684C325.724 44.5121 325.828 44.3397 325.937 44.1788C326.041 44.0532 326.093 43.8969 326.088 43.736C326.093 43.4745 325.88 43.2668 325.62 43.2772H322.869C322.031 43.2772 321.661 44.136 321.36 44.8558C321.26 45.1214 321.14 45.3813 321 45.6266C320.755 46.048 320.287 46.2933 319.803 46.2558C319.568 46.2302 319.344 46.184 319.12 46.1157C318.011 45.8454 316.86 45.5636 316.391 44.4652C316.297 44.1521 316.36 43.813 316.563 43.5584C317.213 42.7558 317.943 42.0225 318.74 41.3652C319.932 41.0745 320.953 40.3188 321.579 39.2668C321.697 39.084 321.787 38.8865 321.839 38.6788C321.907 38.36 322.079 38.0787 322.328 37.8761C322.511 37.7881 322.651 37.824 322.688 37.9745C322.745 38.5584 322.631 39.1412 322.36 39.6573C322.323 39.7772 322.276 39.8969 322.219 40.0173V40.1053H322.317C322.62 40.1053 322.937 40.1573 323.26 40.1573C324.364 40.1266 325.469 39.996 326.552 39.7668C327.62 39.5428 328.708 39.4121 329.803 39.3865H330.172C330.661 39.3865 331.172 39.3865 331.609 39.4745C332.052 39.5636 332.541 39.5584 333.021 39.5584H333.5C334.703 39.636 335.823 38.9334 336.281 37.813C336.584 36.324 336.552 34.7824 336.188 33.3078C336.188 33.2464 336.188 33.184 336.188 33.1266C336.183 33.037 336.224 32.9548 336.303 32.9173C336.432 32.8454 336.568 32.9173 336.64 33.084C337.115 34.5428 337.448 36.037 337.64 37.5584C337.844 38.8188 338.307 40.0225 339 41.0949C340.031 42.6266 341.771 43.5318 343.62 43.496C344.068 43.4797 344.516 43.4334 344.959 43.3558C345.172 43.3397 345.38 43.3397 345.588 43.3558C347.995 43.3293 350.265 44.4438 351.719 46.3558C351.729 46.3865 351.729 46.4225 351.719 46.4548C351.697 46.5584 351.588 46.6157 351.489 46.5745L351.281 46.4173C350 45.2146 348.417 44.3865 346.697 44.0266C346.369 43.9693 346.036 43.9438 345.697 43.9438C345.193 43.9548 344.693 43.996 344.188 44.0584C343.719 44.1214 343.245 44.1573 342.771 44.1678C342.213 44.1788 341.667 44.0788 341.151 43.8761C339.099 43.2037 337.432 40.8761 336.891 39.3761C336.849 39.2985 336.771 39.2464 336.683 39.2464C336.62 39.2302 336.557 39.2302 336.5 39.2464C336.271 39.3969 336.229 39.4745 336.188 39.6266C336.245 40.173 336.328 40.7094 336.448 41.2464C336.584 42.673 337.36 43.9652 338.563 44.7558C339.323 45.4121 340.255 45.8454 341.251 45.996C341.552 46.037 341.86 46.037 342.161 45.996C342.683 45.8761 343.213 45.813 343.751 45.813C345.5 45.8345 347.193 46.4078 348.599 47.4438C348.844 47.6001 349.073 47.7668 349.292 47.9548C349.579 48.2412 349.917 48.4693 350.292 48.6266C350.536 48.725 350.797 48.7772 351.063 48.7772C351.521 48.772 351.969 48.6266 352.339 48.3558C352.511 48.2668 352.697 48.2198 352.891 48.2146C353.412 48.2146 353.697 48.6266 354.068 49.1464C354.307 49.5064 354.584 49.8397 354.891 50.1464C355.349 50.5266 355.943 50.7146 356.541 50.6678H358.161C358.245 50.673 358.333 50.673 358.421 50.6678V50.6053C358.317 49.537 358.036 48.4906 357.588 47.5173V47.5584ZM302.891 42.6678C302.749 42.8652 302.511 42.9693 302.271 42.9334C302.021 42.9386 301.776 42.8761 301.563 42.7454C301.145 42.4225 300.907 41.9225 300.912 41.3969C300.875 41.2302 300.943 41.0584 301.079 40.9652C301.156 40.9173 301.251 40.8969 301.339 40.9078C301.833 40.9386 302.297 41.1678 302.631 41.537C302.631 41.537 303.151 42.1788 302.891 42.6266V42.6678ZM303.432 34.0636C303.317 34.2616 303.083 34.3506 302.869 34.2772C302.667 34.1573 302.5 33.9797 302.401 33.7668C302.271 33.5266 302.161 33.313 301.839 33.3454C301.573 33.3917 301.323 33.5064 301.12 33.684C301.011 33.7668 300.563 34.1053 300.448 34.2037C299.787 34.6001 299.276 35.2037 299 35.9282C298.964 36.0532 298.932 36.184 298.912 36.313C298.907 36.5636 298.797 36.8026 298.609 36.9652H298.5C298.407 36.9652 298.312 36.9282 298.24 36.8652C298.161 36.8078 298.109 36.7146 298.109 36.6157C297.979 35.4386 298.416 34.272 299.292 33.4745C299.833 32.996 300.323 32.4548 300.749 31.8652C300.959 31.584 301.188 31.3078 301.412 31.048C301.631 30.7881 301.869 31.048 302.339 31.5266C302.776 32.136 303.14 32.7881 303.432 33.4745C303.5 33.6412 303.5 33.8293 303.432 33.996V34.0636ZM313.697 19.6053L312.969 20.2772C312.079 21.0173 311.281 21.8709 310.609 22.813C310.339 23.2094 310.109 23.6266 309.921 24.0636C309.921 24.0636 309.849 24.2042 309.749 24.2042C309.697 24.1985 309.651 24.1788 309.62 24.136C309.505 23.4906 309.568 22.824 309.812 22.2146C310.443 20.7198 311.484 19.4334 312.812 18.496C312.969 18.3969 313.145 18.3454 313.328 18.3454C313.568 18.324 313.797 18.4548 313.891 18.6788C314.063 18.9906 313.984 19.3865 313.697 19.6053Z" fill="#ED1B4F"/>
</g>
<defs>
<clipPath id="clip0_2036_236">
<rect width="363" height="111.027" fill="white"/>
</clipPath>
</defs>
</svg>
