<svg width="279" height="90" viewBox="0 0 279 90" fill="none" xmlns="http://www.w3.org/2000/svg">
<g clip-path="url(#clip0_2036_208)">
<path d="M0 -9.76548e-05V89.9999H227.2C228 88.5999 228.8 87.1999 229.6 85.8999C231.5 82.5999 233.5 79.1999 235.4 75.8999C237 73.0999 238.7 70.1999 240.3 67.3999C242.2 64.0999 244.2 60.6999 246.1 57.3999L250.9 48.9999L255.7 40.5999L260.5 32.1999C262.4 28.8999 264.3 25.6999 266.1 22.3999C267.8 19.3999 269.5 16.4999 271.2 13.4999C273.1 10.1999 275 6.9999 276.9 3.6999C277.6 2.3999 278.3 1.1999 279 -0.100098H0V-9.76548e-05ZM154.5 36.3999C156.1 32.7999 158.8 30.6999 162.7 30.1999C164.7 29.8999 166.5 30.1999 168.3 30.9999C168.8 31.1999 169.3 31.4999 169.8 31.7999L170.1 30.5999H173.4C173.6 31.3999 173.7 34.8999 173.5 36.9999C172.7 37.1999 170.3 37.2999 168.5 37.0999C168.1 36.6999 167.7 36.2999 167.4 35.8999C165.7 34.1999 162.6 34.3999 161 35.8999C158.7 37.9999 158.3 42.2999 160.7 44.9999C161.4 45.7999 162.5 46.2999 163.6 46.3999C164.2 46.3999 164.9 46.4999 165.5 46.2999C166.9 45.9999 167.9 45.1999 168.6 43.9999C168.7 43.7999 168.8 43.5999 169 43.3999H174.3C173.7 46.9999 170.7 50.2999 166.6 51.0999C164 51.5999 161.4 51.2999 159 49.8999C156.4 48.3999 154.8 46.0999 154.1 43.0999C153.6 40.7999 153.6 38.5999 154.5 36.3999ZM144.2 30.4999H153V34.5999C152.4 34.5999 151.8 34.6999 151.3 34.6999C151.1 35.5999 151.1 44.6999 151.2 46.4999C151.8 46.4999 152.3 46.5999 152.9 46.5999V50.5999C152.1 50.7999 145.6 50.8999 144 50.5999V46.5999C144.7 46.5999 145.3 46.4999 146 46.4999V34.6999C145.3 34.6999 144.7 34.5999 144 34.5999C144.1 33.1999 144.1 31.8999 144.2 30.4999ZM130 16.3999C133.3 16.3999 135.7 18.3999 135.8 22.0999C135.9 25.4999 133.2 27.7999 130.1 27.6999C127 27.7999 124.3 25.5999 124.3 22.1999C124.3 19.1999 126.2 16.3999 130 16.3999ZM107.9 16.7999H111.9C111.9 17.1999 112 17.4999 112 17.8999L112.4 17.4999C113.5 16.3999 114.8 16.2999 116.2 16.5999C117.4 16.8999 118.1 17.6999 118.4 18.7999C118.6 19.3999 118.6 19.9999 118.7 20.6999V24.5999C119.1 24.5999 119.5 24.6999 120 24.6999V27.3999H115.7C115.7 27.0999 115.6 26.7999 115.6 26.4999V21.4999C115.5 19.3999 114.6 19.0999 112.9 19.4999L112.1 20.2999V24.4999C112.4 24.5999 112.8 24.5999 113.2 24.6999V27.4999H107.7V24.6999C108.1 24.6999 108.5 24.5999 108.9 24.5999C109.2 23.7999 109 22.9999 109 22.1999V19.7999C108.6 19.6999 108.2 19.6999 107.8 19.5999C107.7 18.6999 107.7 18.0999 107.9 16.7999ZM101 16.3999C104.5 16.3999 106.7 18.8999 106.7 22.0999C106.7 25.1999 104.3 27.6999 100.9 27.5999C98.1 27.6999 95.2 25.6999 95.2 21.9999C95.3 18.6999 97.6 16.3999 101 16.3999ZM90.1 12.8999H93.1V15.5999C92.1 15.7999 91.2 15.6999 90.1 15.6999C89.9 14.6999 90 13.7999 90.1 12.8999ZM88.9 16.7999C90.3 16.6999 91.6 16.6999 93.1 16.6999C93.2 18.0999 93.1 19.2999 93.1 20.5999V24.3999C93.6 24.3999 93.9 24.4999 94.4 24.4999C94.6 25.3999 94.5 26.1999 94.5 27.1999H88.9V24.4999C89.3 24.4999 89.7 24.3999 90.2 24.3999V19.4999C89.7 19.3999 89.3 19.3999 88.9 19.2999V16.7999ZM81.3 16.8999C81.6 16.7999 82 16.7999 82.3 16.6999C82.3 16.5999 82.4 16.4999 82.4 16.3999V12.9999C83.4 12.6999 84.4 12.8999 85.3 12.8999C85.6 14.0999 85.2 15.3999 85.5 16.6999C85.7 16.7999 85.9 16.7999 86.1 16.7999H86.7C86.9 17.6999 86.8 18.5999 86.8 19.4999C86.3 19.4999 85.9 19.5999 85.4 19.5999V24.4999C86 24.4999 86.5 24.5999 87 24.5999V27.2999C85.5 27.3999 84 27.2999 82.4 27.2999V19.4999C82 19.4999 81.6 19.3999 81.2 19.3999V16.8999H81.3ZM68.1 16.8999C68.9 16.6999 70.9 16.5999 72.4 16.7999C72.4 17.0999 72.5 17.3999 72.5 17.6999V22.7999C72.5 23.3999 72.6 23.8999 72.9 24.2999L73.1 24.4999C74.6 25.1999 75.8 24.5999 76 22.9999V19.6999C75.6 19.5999 75.2 19.5999 74.9 19.4999C74.9 19.1999 74.8 18.9999 74.8 18.7999V16.7999H79V24.4999C79.4 24.4999 79.8 24.5999 80.2 24.5999V27.2999C78.9 27.3999 77.6 27.2999 76.3 27.2999C76.2 26.8999 76.2 26.5999 76.1 26.1999C75.9 26.2999 75.8 26.3999 75.7 26.4999C74.4 27.7999 72.8 27.7999 71.2 27.1999C70 26.6999 69.4 25.6999 69.3 24.3999C69.2 23.2999 69.3 22.0999 69.3 20.9999V19.5999C68.8 19.4999 68.4 19.4999 68 19.3999V16.8999H68.1ZM61 16.7999C61.5 16.7999 61.8 16.6999 62.3 16.6999V12.8999H65.4V16.6999C65.7 16.6999 65.9 16.7999 66.1 16.7999H66.7C66.9 17.6999 66.8 18.4999 66.8 19.3999C66.4 19.4999 66 19.5999 65.5 19.5999V24.4999C66 24.4999 66.4 24.5999 67 24.5999C67.2 25.4999 67 26.2999 67.1 27.3999H62.5C62.2 26.5999 62.4 25.6999 62.4 24.8999V19.6999C62 19.5999 61.6 19.5999 61.1 19.4999C60.9 18.5999 61 17.6999 61 16.7999ZM55.6 12.9999C56.4 12.7999 57.6 12.7999 58.8 12.9999V15.5999H55.6V12.9999ZM54.4 24.6999C54.8 24.5999 55.3 24.5999 55.7 24.5999V19.7999C55.3 19.6999 54.9 19.6999 54.4 19.5999V17.0999C55.2 16.8999 57.4 16.7999 58.8 17.0999V24.6999C59.2 24.6999 59.6 24.7999 60 24.7999V27.3999C59.2 27.5999 56.9 27.6999 54.5 27.4999C54.2 26.4999 54.4 25.5999 54.4 24.6999ZM58.4 30.4999C58.6 31.2999 58.7 35.5999 58.5 36.9999H54.3V34.6999H50.9C50.6 35.2999 50.8 35.8999 50.7 36.4999V38.1999C51.4 38.4999 52.2 38.2999 52.9 38.3999H55.1C55.2 39.0999 55.2 39.7999 55.2 40.4999V42.6999C53.7 42.8999 52.3 42.6999 50.8 42.7999C50.6 43.9999 50.7 45.1999 50.7 46.4999C51.9 46.6999 53 46.5999 54.2 46.5999V44.2999C55.7 44.1999 57 44.2999 58.3 44.2999C58.5 45.1999 58.5 49.0999 58.4 50.7999H44C43.9 49.3999 44 48.0999 43.9 46.6999C44.6 46.6999 45.1 46.5999 45.6 46.5999C45.8 45.6999 45.9 37.0999 45.7 34.8999C45.2 34.4999 44.6 34.8999 43.9 34.5999C43.7 33.2999 43.9 31.9999 43.8 30.6999C44.8 30.3999 55.8 30.2999 58.4 30.4999ZM46.8 16.7999C47.1 16.6999 47.5 16.6999 47.8 16.5999C47.8 16.4999 47.9 16.3999 47.9 16.2999V13.8999C47.9 13.5999 47.9 13.1999 48 12.7999C49 12.5999 50 12.6999 51 12.6999C51.3 13.9999 51 15.2999 51.2 16.4999C51.5 16.5999 51.9 16.5999 52.3 16.6999V19.2999C52 19.3999 51.6 19.3999 51.2 19.4999V24.3999C51.7 24.3999 52.1 24.4999 52.5 24.4999V27.0999C51.7 27.2999 49.2 27.3999 47.9 27.0999V19.3999C47.5 19.3999 47.1 19.2999 46.7 19.2999V16.7999H46.8ZM36.9 19.5999C37 18.2999 37.6 17.2999 38.9 16.6999C40.1 16.1999 41.4 16.1999 42.7 16.7999C43.5 16.1999 44.3 16.4999 45.1 16.4999C45.2 17.4999 45.2 18.4999 45.1 19.4999H42.5C42.1 19.1999 41.7 18.7999 41.4 18.5999C40.7 18.6999 40.3 18.8999 40.2 19.5999C40.4 20.0999 40.8 20.3999 41.4 20.5999C42.1 20.7999 42.8 20.9999 43.4 21.1999C45.3 21.8999 45.7 22.8999 45.5 24.8999C45.3 26.2999 43.9 27.5999 42.4 27.5999C41.5 27.5999 40.5 27.6999 39.8 27.1999C38.8 27.2999 37.9 27.2999 36.9 27.3999V24.1999C37.8 23.9999 38.7 24.0999 39.6 24.0999C39.9 24.4999 40.1 24.8999 40.4 25.1999H41.7C41.9 24.9999 42.1 24.6999 42.3 24.4999C42.3 24.2999 42.3 24.1999 42.2 24.0999C42 23.5999 41.4 23.4999 41 23.2999C40.2 22.9999 39.3 22.7999 38.6 22.4999C37.3 21.9999 36.8 20.8999 36.9 19.5999ZM23.6 24.5999C24 24.5999 24.4 24.4999 24.8 24.4999V19.5999C24.4 19.4999 24.1 19.4999 23.7 19.3999V16.7999C24.3 16.5999 25 16.6999 25.6 16.6999H27.7C27.8 16.9999 27.9 17.2999 27.9 17.5999C28 17.4999 28.1 17.4999 28.2 17.3999C29.1 16.5999 30.2 16.2999 31.4 16.3999C33 16.4999 34.3 17.5999 34.5 19.2999C34.6 20.3999 34.7 21.5999 34.7 22.6999V24.3999C35.1 24.4999 35.5 24.4999 35.9 24.5999C36 25.4999 36 26.2999 35.9 27.2999H31.5C31.4 24.9999 31.5 22.5999 31.4 19.9999C31.2 19.7999 30.9 19.4999 30.7 19.1999L30.6 19.2999H30.4C29 19.0999 28.1 19.7999 28 21.4999C27.9 22.3999 28 23.3999 28 24.3999C28.4 24.4999 28.7 24.5999 29.2 24.6999V27.2999C28.3 27.4999 25.4 27.4999 23.8 27.3999V25.9999C23.6 25.4999 23.6 25.0999 23.6 24.5999ZM16.4 24.5999C16.8 24.5999 17.2 24.4999 17.6 24.4999C17.8 23.5999 17.8 16.8999 17.6 15.5999C17.2 15.5999 16.8 15.5999 16.4 15.4999V12.6999H22.3C22.3 12.9999 22.4 13.1999 22.4 13.3999V15.3999C21.9 15.4999 21.6 15.4999 21.1 15.5999C21 18.4999 21.1 21.3999 21.1 24.3999C21.5 24.4999 21.9 24.4999 22.4 24.4999V27.1999H16.5V24.5999H16.4ZM25.8 30.5999C26.9 33.8999 28 37.1999 29.1 40.6999C29.8 39.5999 30 38.3999 30.4 37.2999C30.8 36.1999 31.2 34.9999 31.6 33.8999C32 32.7999 32.3 31.6999 32.7 30.4999H41.4C41.6 31.7999 41.4 33.1999 41.5 34.5999C40.9 34.5999 40.3 34.6999 39.7 34.6999C39.5 35.5999 39.4 44.1999 39.6 46.4999C40.2 46.4999 40.7 46.5999 41.4 46.5999C41.5 47.9999 41.4 49.2999 41.5 50.6999H33.3V46.5999C33.8 46.5999 34.3 46.5999 34.7 46.4999C34.8 46.4999 34.8 46.3999 34.8 46.3999L34.9 46.2999V37.3999C34.9 37.1999 34.9 36.8999 34.7 36.6999C33.2 41.2999 31.8 45.9999 30.3 50.5999C29.3 50.7999 28.2 50.6999 27.1 50.6999C25.6 45.8999 24.1 40.9999 22.5 36.1999V46.3999C23 46.3999 23.5 46.4999 24.1 46.4999V50.4999C23.2 50.6999 17.9 50.6999 16.4 50.5999V46.4999C16.9 46.4999 17.5 46.3999 18.1 46.3999C18.3 45.4999 18.4 36.5999 18.2 34.5999C17.6 34.5999 17.1 34.4999 16.4 34.4999V30.4999C17.2 30.3999 24.3 30.3999 25.8 30.5999ZM31.1 60.3999C29.7 60.4999 28.3 60.3999 26.8 60.4999C26.5 59.7999 26.8 58.9999 26.6 58.1999C25.6 58.0999 24.5 58.0999 23.4 58.1999C23.3 59.3999 23.3 60.4999 23.4 61.6999H27.7C27.9 62.4999 27.8 63.1999 27.8 63.9999V66.1999H23.5C23.2 66.9999 23.2 68.7999 23.4 70.1999C24.4 70.3999 25.5 70.1999 26.6 70.2999V67.9999C27.5 67.7999 29.6 67.6999 31 67.8999V74.0999H16.4C16.3 72.7999 16.3 71.4999 16.4 70.1999C17 70.1999 17.5 70.0999 18.1 70.0999C18.1 69.8999 18.2 69.6999 18.2 69.5999V58.5999C18.2 58.4999 18.2 58.3999 18.1 58.0999C17.5 58.0999 16.9 57.9999 16.3 57.9999V53.9999C17.1 53.7999 29.3 53.6999 31 53.8999V60.3999H31.1ZM54 57.9999C53.4 57.9999 52.9 58.0999 52.2 58.0999V73.9999C51.4 74.0999 50.7 74.0999 49.9 74.0999H47.7C45.2 70.3999 42.8 66.6999 40.3 62.9999C40.1 63.9999 40.1 68.5999 40.3 69.7999C40.8 69.7999 41.4 69.8999 41.9 69.8999C42.1 70.6999 42.2 72.5999 42 73.9999H33.5C33.3 73.1999 33.2 71.2999 33.4 69.8999C34 69.8999 34.5 69.7999 35.2 69.7999V58.3999C35.2 58.2999 35.1 58.0999 35 57.8999H33.3V53.7999C34.4 53.6999 35.4 53.7999 36.5 53.7999H39.7C42.2 57.4999 44.6 61.1999 47.2 64.9999V57.9999C46.6 57.9999 46 57.8999 45.3 57.8999C45.1 57.1999 45.2 56.4999 45.2 55.7999V53.7999H54V57.9999ZM75.1 74.0999C73.9 74.1999 72.7 74.1999 71.4 74.0999V71.9999C71.1 72.2999 70.9 72.3999 70.8 72.4999C69.7 73.5999 68.4 74.0999 66.8 74.3999C64.4 74.7999 62.2 74.3999 60.1 73.1999C57.4 71.6999 55.8 69.3999 55.1 66.3999C54.7 64.5999 54.7 62.7999 55.2 60.8999C55.9 58.2999 57.5 56.3999 59.7 54.9999C62.3 53.3999 65.1 53.1999 68 53.7999C69 53.9999 69.9 54.5999 71 55.0999C71.1 54.6999 71.1 54.2999 71.2 53.8999C71.7 53.6999 72.3 53.7999 72.9 53.7999H74.7V60.4999C73.1 60.5999 71.5 60.4999 69.8 60.4999C69.5 60.1999 69.2 59.7999 68.8 59.4999C67.4 57.9999 65.8 57.5999 63.9 58.0999C61.9 58.6999 60.8 60.0999 60.3 62.0999C59.9 63.9999 60.1 65.7999 61.2 67.4999C62.3 69.1999 63.9 69.8999 65.8 69.6999C67.6 69.4999 68.9 68.4999 69.8 66.7999C68.8 66.5999 67.9 66.6999 66.9 66.6999H64.1C64.1 65.3999 64 64.0999 64.1 62.6999H75.1V74.0999ZM71.5 51.0999C70.1 51.2999 68.9 51.1999 67.6 50.8999C63.7 49.9999 61.2 47.4999 60.1 43.6999C59.3 40.8999 59.5 37.9999 61 35.3999C62.7 32.4999 65.3 30.7999 68.7 30.2999C71.1 29.9999 73.2 30.3999 75.3 31.5999C75.4 31.6999 75.6 31.6999 75.8 31.7999C75.9 31.3999 75.9 31.0999 76 30.5999C77.2 30.4999 78.3 30.5999 79.5 30.5999C79.7 31.4999 79.8 35.3999 79.6 37.1999H74.5C74.3 36.8999 74 36.5999 73.7 36.1999C71.7 33.9999 67.7 34.1999 66 37.0999C64.6 39.5999 64.6 42.0999 66.2 44.3999C67 45.5999 68.3 46.2999 69.8 46.2999C72 46.3999 73.6 45.5999 74.7 43.6999C74.8 43.5999 74.8 43.4999 74.9 43.3999L75 43.2999H80.2C79.7 45.9999 78.2 48.0999 76 49.5999C74.6 50.3999 73.1 50.8999 71.5 51.0999ZM86.2 73.9999C85.4 74.1999 78.7 74.2999 77.3 74.0999V70.0999C78 69.9999 78.6 69.9999 79.3 69.9999V58.1999C79 58.1999 78.7 58.0999 78.4 58.0999H77.4C77.2 57.3999 77.3 56.6999 77.3 55.9999V53.9999H86.2V58.0999C85.6 58.0999 85 58.1999 84.5 58.1999C84.3 59.0999 84.2 67.7999 84.4 69.9999C85 69.9999 85.5 70.0999 86.2 70.0999V73.9999ZM109.1 57.9999C108.4 57.9999 107.9 58.0999 107.3 58.0999C107.2 59.3999 107.3 60.7999 107.3 62.0999V74.0999C105.8 74.1999 104.4 74.0999 102.9 74.0999C100.4 70.3999 98 66.6999 95.3 63.0999V69.6999C95.8 70.0999 96.5 69.6999 97.1 69.9999C97.2 71.2999 97.1 72.5999 97.2 73.8999C96.3 74.0999 90.2 74.1999 88.5 73.9999V69.9999C89.1 69.9999 89.7 69.8999 90.2 69.8999C90.4 68.9999 90.5 60.6999 90.3 58.0999C89.7 58.0999 89.2 57.9999 88.5 57.9999C88.4 57.2999 88.5 56.5999 88.4 55.8999V53.8999H94.9C97.3 57.4999 99.7 61.1999 102.2 64.8999C102.4 63.9999 102.5 59.8999 102.3 58.0999C101.7 58.0999 101.2 57.9999 100.5 57.9999C100.4 56.6999 100.5 55.2999 100.5 53.9999C101.4 53.7999 106.9 53.6999 109.2 53.8999C109.2 55.2999 109.1 56.5999 109.1 57.9999ZM125.4 73.9999C124.6 74.1999 113.1 74.2999 110.9 74.0999C110.7 73.4999 110.8 72.7999 110.8 72.1999V70.2999C111.5 70.2999 112 70.1999 112.6 70.1999V58.0999C112 58.0999 111.5 57.9999 110.8 57.9999C110.7 57.2999 110.7 56.6999 110.7 55.9999V53.9999C111.6 53.7999 122.1 53.6999 125.2 53.8999C125.4 54.6999 125.5 58.9999 125.3 60.2999H121.3C121 59.5999 121.3 58.8999 121.1 58.0999C120 57.8999 118.9 58.0999 117.7 57.9999C117.6 59.1999 117.7 60.2999 117.7 61.4999C119.2 61.6999 120.6 61.4999 122.1 61.6999V65.9999C121.4 66.0999 120.7 66.0999 119.9 66.0999H117.7C117.5 67.3999 117.7 68.6999 117.6 69.8999C118.5 70.0999 119.7 70.1999 121.1 69.9999C121.1 69.2999 121.2 68.5999 121.2 67.7999H125.2C125.5 68.5999 125.6 71.6999 125.4 73.9999ZM142.1 73.9999C141.2 74.1999 130.5 74.2999 127.4 74.0999C127.2 73.4999 127.3 72.7999 127.3 72.1999V70.1999C127.9 70.1999 128.5 70.0999 129.1 70.0999C129.3 69.0999 129.4 60.9999 129.2 58.1999C128.6 58.1999 128.1 58.0999 127.4 58.0999C127.2 57.3999 127.3 56.6999 127.3 55.9999V53.9999H142C142.2 54.8999 142.2 59.2999 142 60.3999C140.6 60.4999 139.2 60.3999 137.7 60.3999V58.2999C136.8 57.9999 135.5 57.9999 134.2 58.1999V61.4999C134.9 61.7999 135.6 61.5999 136.4 61.5999H138.6C138.7 63.0999 138.6 64.4999 138.6 65.9999H134.2C134.4 67.3999 134.1 68.6999 134.6 69.9999H137.6V67.6999C139.1 67.5999 140.5 67.6999 141.9 67.6999C142.2 68.5999 142.3 72.0999 142.1 73.9999ZM142.6 33.8999C142.6 34.0999 142.5 34.3999 142.5 34.5999C141.9 34.5999 141.4 34.6999 140.7 34.6999V50.6999H136.2C133.8 47.0999 131.3 43.3999 128.9 39.6999C128.6 40.4999 128.6 44.1999 128.8 46.3999C129.3 46.3999 129.9 46.4999 130.6 46.4999V50.4999L130.5 50.5999L130.4 50.6999H112.9C112.8 49.2999 112.9 47.8999 112.9 46.4999C113.5 46.4999 114 46.3999 114.6 46.3999C114.4 45.7999 114.3 45.2999 114.1 44.7999H109C108.6 45.2999 108.6 45.7999 108.4 46.3999C109 46.3999 109.5 46.4999 110 46.4999C110.2 47.1999 110.1 47.8999 110.1 48.5999V50.5999C109.1 50.7999 94.9 50.8999 92.8 50.6999C92.6 49.9999 92.7 49.2999 92.7 48.5999V46.5999C93.3 46.5999 93.9 46.4999 94.5 46.4999V42.6999C93.6 42.4999 90.4 42.3999 88.7 42.5999C88.5 43.1999 88.6 43.8999 88.6 44.4999V46.4999C89.2 46.4999 89.8 46.5999 90.4 46.5999V50.5999C89.5 50.7999 83.5 50.8999 81.6 50.6999V46.5999C82.3 46.5999 82.9 46.4999 83.6 46.4999V34.6999C83 34.6999 82.4 34.5999 81.8 34.5999C81.4 33.9999 81.6 33.2999 81.6 32.5999V30.5999C82.4 30.3999 89.1 30.2999 90.4 30.4999V34.2999C89.9 34.7999 89.2 34.2999 88.6 34.6999V37.9999C89.6 38.1999 93.2 38.1999 94.5 37.9999V34.5999C93.9 34.4999 93.3 34.4999 92.8 34.4999C92.5 33.7999 92.7 33.1999 92.7 32.4999V30.4999C93.6 30.2999 99.8 30.1999 101.6 30.3999C101.7 31.6999 101.6 32.9999 101.6 34.4999C100.9 34.4999 100.3 34.5999 99.7 34.5999C99.5 35.4999 99.4 44.5999 99.6 46.3999C100.9 46.4999 102.1 46.3999 103.5 46.4999C105.1 42.5999 106.5 38.6999 108.1 34.6999C107.4 34.6999 106.9 34.5999 106.3 34.5999C106.1 33.8999 106.2 33.1999 106.2 32.4999V30.4999H114.3C116.2 35.7999 118.2 41.0999 120.1 46.4999H123.7C123.9 45.5999 124 36.5999 123.8 34.6999C123.3 34.6999 122.7 34.5999 122 34.5999C121.9 33.2999 122 31.8999 121.9 30.4999C123 30.2999 124 30.3999 125.1 30.3999H128.3C130.8 33.9999 133.2 37.6999 135.7 41.3999C135.9 40.4999 135.9 35.8999 135.7 34.5999H133.8C133.6 33.1999 133.8 31.8999 133.7 30.4999C134.5 30.2999 141.1 30.1999 142.6 30.3999C142.6 31.6999 142.7 32.7999 142.6 33.8999ZM142.8 14.8999C142.4 14.9999 141.9 14.9999 141.6 15.1999C141.2 15.4999 141.1 15.9999 141 16.6999C141.5 16.7999 142 16.7999 142.5 16.8999V19.4999C142 19.5999 141.5 19.5999 141 19.6999C140.9 21.2999 141 22.8999 141 24.5999C141.5 24.5999 142 24.6999 142.5 24.6999C142.7 25.5999 142.6 26.4999 142.6 27.4999H136.9C136.6 26.5999 136.8 25.6999 136.7 24.7999C137.1 24.6999 137.5 24.6999 137.9 24.5999C138 22.9999 137.9 21.3999 137.9 19.6999C137.4 19.5999 137.1 19.5999 136.7 19.4999V16.7999C137.1 16.7999 137.4 16.6999 137.8 16.6999C138.2 15.3999 138.2 13.9999 139.5 13.1999C140.4 12.6999 141.4 12.4999 142.7 12.5999V14.8999H142.8ZM161.5 74.0999C160.7 74.1999 159.8 74.0999 159 74.0999H156.5C154.7 71.6999 153 69.3999 151.1 66.8999V69.8999C151.4 69.9999 151.8 69.9999 152.1 70.0999V74.0999C151.2 74.2999 146.2 74.2999 144.1 74.1999C143.9 73.5999 144 72.8999 144 72.2999V70.2999C144.6 69.7999 145.3 70.1999 145.9 69.9999C146.1 69.1999 146.2 60.0999 146 58.2999C145.4 58.2999 144.8 58.1999 144.1 58.1999C143.9 57.4999 144 56.7999 144 56.0999V54.0999C144.3 54.0999 144.6 53.9999 144.8 53.9999H153.5C154.4 53.9999 155.3 54.0999 156.2 54.2999C158.5 54.7999 160.4 57.0999 160.7 59.6999C160.9 61.4999 160.7 63.1999 159.5 64.5999C159.2 64.9999 158.8 65.3999 158.4 65.7999C158 66.0999 157.5 66.3999 156.8 66.6999C157.8 67.8999 158.7 68.8999 159.7 69.9999H161.6V74.0999H161.5ZM176.7 68.7999C176.5 70.5999 175.6 72.1999 174.1 73.2999C172.3 74.5999 170.3 75.0999 168.1 74.1999C167.7 74.0999 167.4 73.8999 166.9 73.6999C166.8 73.7999 166.7 73.9999 166.6 74.0999H162.8V67.6999C163.6 67.3999 165.7 67.3999 167.4 67.5999C167.7 68.6999 167.9 69.9999 169.5 70.2999C170.4 70.1999 171.1 69.7999 171.5 68.9999C171.6 67.5999 171.2 66.8999 170 66.3999C168.8 65.8999 167.5 65.3999 166.3 64.8999C165.3 64.3999 164.4 63.6999 163.8 62.6999C162.4 60.5999 163 57.3999 164.3 55.7999C165.6 54.2999 167.2 53.4999 169.1 53.4999C170.1 53.4999 171.1 53.6999 171.9 54.2999C173.3 53.8999 174.6 54.0999 176 54.0999V59.6999C175.3 59.8999 174.6 59.7999 173.9 59.7999H172C171.7 59.2999 171.5 58.7999 171.2 58.3999C170.7 57.6999 170 57.5999 169.3 57.7999C168.4 58.0999 168.2 58.4999 168.2 59.4999V59.9999C168.5 60.5999 169 60.8999 169.5 61.0999C170.2 61.3999 170.8 61.5999 171.5 61.7999C172.7 62.1999 173.8 62.7999 174.8 63.5999C176.3 65.0999 176.9 66.7999 176.7 68.7999ZM208.7 50.6999H185.3C185.1 49.9999 185.2 49.2999 185.2 48.5999V46.5999C185.8 46.5999 186.3 46.4999 186.9 46.4999C186.7 45.8999 186.5 45.3999 186.4 44.8999H181.3C181 45.3999 180.9 45.8999 180.8 46.4999C181.3 46.4999 181.8 46.5999 182.3 46.5999C182.5 47.2999 182.4 47.9999 182.4 48.6999V50.6999C181.4 50.8999 175.2 50.8999 174 50.6999V46.6999C174.6 46.6999 175.2 46.5999 175.9 46.5999L180.4 34.8999C179.7 34.8999 179.1 34.7999 178.5 34.7999V30.7999C179.4 30.5999 184.6 30.5999 186.6 30.6999C187.6 33.3999 188.6 35.9999 189.5 38.6999C190.5 41.2999 191.4 43.9999 192.4 46.5999H196C196.2 45.5999 196.2 35.9999 196 34.8999C195.4 34.8999 194.8 34.7999 194.1 34.6999C194 33.2999 194.1 31.9999 194.1 30.5999H203V34.0999C203 34.2999 202.9 34.4999 202.9 34.6999C202.3 34.6999 201.8 34.7999 201.3 34.7999C201.1 35.6999 201.1 45.1999 201.3 46.5999C202.3 46.6999 203.4 46.5999 204.5 46.5999C204.5 45.7999 204.6 45.1999 204.6 44.3999C205.3 44.0999 206 44.2999 206.7 44.1999H208.8C208.9 45.0999 208.9 49.3999 208.7 50.6999ZM110.2 41.2999H112.9C112.8 39.8999 111.9 37.3999 111.5 36.6999C110.8 38.0999 110.1 40.3999 110.2 41.2999ZM182.4 41.1999C183.3 41.2999 184.2 41.3999 185.3 41.0999C184.8 39.4999 184.4 38.0999 183.9 36.3999C183.2 37.7999 182.4 40.2999 182.4 41.1999ZM153.4 58.5999H150.9V63.3999C152.5 63.2999 154.2 63.6999 155.3 62.0999C155.4 61.6999 155.5 61.2999 155.6 60.7999C155.6 60.6999 155.5 60.4999 155.5 60.3999C155.2 59.0999 154.7 58.5999 153.4 58.5999ZM101.2 24.7999C102.6 24.6999 103.6 23.3999 103.5 21.9999C103.6 20.8999 102.5 19.3999 101 19.3999C99.6 19.3999 98.5 20.6999 98.5 22.1999C98.5 23.5999 99.8 24.8999 101.2 24.7999ZM131 24.4999C132.1 23.9999 132.8 22.4999 132.4 21.2999C132 20.0999 130.8 19.0999 129.7 19.2999C128.5 19.4999 127.2 20.5999 127.6 22.7999C128.3 24.4999 129.7 25.0999 131 24.4999Z" fill="#E32515"/>
</g>
<defs>
<clipPath id="clip0_2036_208">
<rect width="279" height="90" fill="white"/>
</clipPath>
</defs>
</svg>
