<svg width="348" height="102" viewBox="0 0 348 102" fill="none" xmlns="http://www.w3.org/2000/svg">
<path d="M214.519 17.0186L217.343 17.0577C218.14 17.3181 219.489 17.5905 219.895 18.15C220.065 22.6243 220.108 27.5835 219.995 32.0656C219.764 41.1799 220.38 50.7641 219.868 59.8277C219.253 60.4686 217.464 60.4551 216.49 60.5123C215.769 60.207 215.547 58.9437 215.348 58.2342C214.785 58.6496 214.198 59.0315 213.59 59.3779C210.465 61.1832 206.871 61.9756 203.335 61.0222C200.576 60.3065 198.229 58.4967 196.835 56.0109C193.059 49.4275 193.249 34.5629 200.82 30.4001C204.883 28.1658 210.094 28.2951 214.443 29.4936C214.309 25.7316 214.46 20.7934 214.519 17.0186ZM208.904 55.8922C211.286 55.4587 212.318 55.07 214.441 53.8879C214.454 47.9543 214.153 40.1791 214.408 34.5112C211.283 34.0737 209.567 33.7677 206.394 34.097C204.363 34.7837 203.089 35.5516 202.18 37.6378C200.459 41.5899 200.313 47.2859 201.603 51.3684C202.774 55.0737 205.333 56.1521 208.904 55.8922Z" fill="white"/>
<path d="M46.452 28.6011C59.2893 29.1473 58.974 35.4936 58.9534 46.147C58.95 50.9956 58.8985 55.844 58.7988 60.6916C57.2455 60.7436 55.231 61.0907 54.1099 59.7535C53.6773 59.2376 53.7962 57.9219 52.3992 58.821C45.7558 63.0968 39.5372 61.9641 34.9373 56.83C33.6158 54.4157 33.0565 51.794 33.7491 49.0872C35.6336 41.7218 46.9444 40.8709 52.8544 42.4194C52.7838 41.1902 52.716 39.2606 52.4581 38.1203C51.0449 31.8725 41.7307 34.213 37.1916 35.4992L36.137 30.1976C39.9337 29.3427 42.5805 28.8854 46.452 28.6011ZM41.097 47.9124C38.1576 53.0222 41.2854 57.1432 46.8697 56.2655C54.6909 54.5928 52.2528 52.885 52.6486 46.4198C50.9951 46.4297 47.764 46.2081 46.4345 46.3547C43.8951 46.5159 43.276 46.5849 41.097 47.9124Z" fill="white"/>
<path d="M134.831 16.5587C137.551 16.2872 139.529 16.4068 142.233 16.7199C142.124 18.4043 141.804 20.4268 141.578 22.1267C133.88 20.5684 133.643 22.8407 133.285 29.4479C137.48 29.072 147.518 29.4 152.032 29.4184C152.087 39.8132 152.07 50.2082 151.981 60.6028C150.205 60.7201 147.807 60.6744 145.985 60.6934C145.553 54.1925 145.789 45.2499 145.788 38.5394L145.822 34.3141C142.944 34.5744 136.145 34.6053 133.251 34.4004C133.511 36.7412 133.387 41.0766 133.385 43.6125C133.393 49.339 133.357 55.0656 133.279 60.7916C130.965 60.5941 129.679 60.6596 127.392 60.7866C126.823 53.0954 127.375 42.629 127.102 34.457C124.753 34.4082 120.948 34.0389 123.915 30.5452C124.552 29.7949 126.018 29.4955 126.999 29.2343C127.027 23.0331 127.811 17.9833 134.831 16.5587Z" fill="white"/>
<path d="M91.0474 16.9986C93.1405 16.9947 94.8866 16.9706 96.9799 17.2142C97.15 21.3321 97.1066 27.2534 96.9642 31.3715C103.248 28.3034 114.22 26.1788 115.828 36.2157C116.912 42.9777 116.256 53.5754 116.161 60.6798C114.173 60.6231 112.263 60.6887 110.279 60.7472C109.791 56.8416 110.023 47.1809 110.027 42.8133C110.025 40.6157 110.13 37.2126 108.528 35.477C106.347 32.9336 100.009 34.3555 97.8145 36.1258C96.5791 37.1225 97.0039 44.4558 97.0101 46.0434C97.0355 50.8951 97.0242 55.747 96.9762 60.5985C95.2333 60.7246 92.7582 60.6756 90.9606 60.6948C90.546 53.6489 90.8289 44.6396 90.7906 37.4298C90.7597 31.5942 90.5455 22.4983 91.0474 16.9986Z" fill="white"/>
<path d="M240.073 28.8382C249.973 28.2412 254.114 35.5775 253.635 44.675C253.587 45.5707 253.409 46.2891 252.898 47.0354C251.916 47.8476 242.743 47.4504 240.863 47.4291C240.768 45.9747 240.82 44.1864 240.827 42.7029C243.11 42.6068 245.427 42.4544 247.701 42.6536C247.251 40.0477 246.156 34.9312 242.886 34.3224C233.148 32.5095 232.865 46.9866 235.859 52.8822C239.319 58.231 246.408 56.1146 251.193 54.1033L253.303 58.8682C243.056 64.0314 229.753 62.6512 228.217 49.1923C227.608 43.8651 228.037 37.9647 231.229 33.4494C233.272 30.5595 236.709 29.3192 240.073 28.8382Z" fill="white"/>
<path d="M177.031 28.5942C188.215 29.2056 187.105 38.2545 187.083 46.6653L187.032 60.5972C185.023 60.6612 183.013 60.7008 181.003 60.7163C180.72 55.8405 181.542 40.4067 180.298 37.2131C179.814 35.9711 178.951 34.9475 177.707 34.421C175.504 33.488 172.533 34.3149 170.413 35.1844C169.729 35.504 168.943 35.8281 168.396 36.3639C167.388 37.3527 167.77 57.5172 167.763 60.7408C165.519 60.6491 164.049 60.6227 161.785 60.7556C161.419 51.2024 161.529 38.7989 161.795 29.2182C162.961 29.2776 164.484 29.3803 165.639 29.5481C166.101 29.6153 166.61 30.8616 166.869 31.3637C167.573 31.6615 171.951 29.4409 173.233 29.1491C174.629 28.8315 175.589 28.7005 177.031 28.5942Z" fill="white"/>
<path d="M70.3775 20.2446C72.1272 20.3377 73.5094 20.3756 75.2592 20.3309C75.4004 23.4744 75.541 26.3027 75.4322 29.4427C77.3074 29.2176 81.8193 29.4341 83.9481 29.4672C83.7259 31.4544 83.7481 32.4172 83.9002 34.4069C81.0407 34.467 78.1343 34.5699 75.2796 34.4378C75.6624 38.2663 75.2722 42.7943 75.3937 46.6956C75.6317 54.3349 74.0343 57.4342 83.2151 55.1036L84.1419 57.6883C84.3493 58.2179 84.7486 59.2921 84.1527 59.7012C80.8007 62.0021 74.56 61.9288 71.4945 59.0393C69.4214 57.0852 69.2793 53.8616 69.2322 51.1735C69.2169 45.5868 69.3463 40.014 69.1297 34.4256C67.5251 34.3732 66.1364 34.6994 65.1372 33.4121C64.9139 32.4503 65.1917 31.4375 65.3846 30.4659C66.9346 29.8704 67.5801 29.6563 69.2045 29.343C69.5986 27.1373 69.8651 21.6916 70.3775 20.2446Z" fill="white"/>
<path d="M273.309 28.8216C275.615 28.5763 276.617 28.6345 278.914 28.9326C278.72 30.8346 278.56 32.7398 278.434 34.6474C273.64 34.1086 270.859 34.2675 267.259 37.7106C267.114 39.673 267.212 43.0852 267.209 45.1421C267.238 50.3117 267.195 55.4815 267.082 60.65L263.688 60.6574L261.067 60.6589C260.962 56.9356 260.533 30.8174 261.531 29.4714C262.629 29.1354 264.153 29.3813 265.329 29.4902C265.718 30.4568 265.997 31.6123 266.272 32.6275C268.845 30.8414 270.272 29.5967 273.309 28.8216Z" fill="white"/>
<path d="M202.137 73.353C211.556 72.3576 213.129 82.6528 207.91 87.1272C205.353 88.3766 202.485 88.1011 199.723 88.006C199.629 85.7224 199.419 75.5785 199.897 73.8477C200.435 73.3428 201.376 73.3942 202.137 73.353ZM207.486 85.305C209.217 82.3388 210.089 77.788 206.59 75.6946C205.005 74.7461 203.29 74.9389 201.516 74.9751C201.514 77.35 201.037 84.2231 202.024 85.8818C203.437 87.1563 206.085 86.2172 207.486 85.305Z" fill="white"/>
<path d="M161.364 73.0942C161.66 73.1413 162.455 73.2891 162.662 73.4228C164.71 74.7447 166.327 81.2676 167.111 83.6793C168.392 81.0173 169.523 75.0378 171.821 73.3797C172.582 73.23 172.368 73.154 172.897 73.4959C173.766 75.4613 174.621 86.191 173.415 87.8924L172.998 87.9584C171.825 86.6941 171.959 79.6606 171.912 77.4973L171.879 77.2226L171.562 77.0076C169.948 78.5453 169.404 85.7696 166.748 85.572C164.982 84.3404 164.26 78.6372 162.764 76.6352C161.383 77.441 163.396 87.9789 160.971 88.0513C159.666 86.6175 160.652 75.2134 161.364 73.0942Z" fill="white"/>
<path d="M250.997 73.105C252.43 73.295 252.957 74.0393 253.584 75.2666C254.559 77.1763 257.598 86.4118 257.134 87.8723L256.552 87.9835C255.376 87.3072 255.265 84.094 253.607 84.171C253.276 84.1863 252.847 84.2329 252.512 84.2602C251.377 84.3001 249.991 84.1917 248.84 84.1337C248.557 85.3986 248.213 87.0512 247.277 87.9627C246.574 88.1117 246.838 88.1579 246.221 87.768C246.084 85.6928 249.859 75.1426 250.997 73.105ZM249.179 83.0619L252.281 82.7703L253.516 82.907C254.723 81.8809 252.607 77.2636 252.02 75.9557L251.516 75.5975C250.507 78.0724 250.029 80.5718 249.179 83.0619Z" fill="white"/>
<path d="M183.411 73.5228C186.239 73.4871 189.694 73.6708 192.427 74.3107C189.386 75.1451 187.852 75.0233 184.705 75.0833C184.83 76.5502 184.838 78.2557 184.879 79.7458C185.019 79.7381 185.159 79.7325 185.299 79.7289C186.464 79.6983 189.772 79.7144 190.612 80.5099C189.709 81.131 186.387 81.2126 185.241 81.2696C184.764 81.9698 184.922 81.9066 184.919 82.9079L184.748 86.1975C187.367 86.2906 190.089 86.3553 192.621 87.0301C189.939 87.8382 186.161 87.9958 183.354 87.9587C182.972 84.6579 182.87 76.6194 183.411 73.5228Z" fill="white"/>
<path d="M233.254 73.5649C235.607 73.3859 237.007 73.0878 238.992 74.4924L238.772 74.8163C237.782 74.8621 236.792 74.9211 235.803 74.9933C231.095 75.3644 230.845 77.6764 231.05 81.8307C231.224 85.3517 233.113 86.8049 236.564 86.4373C237.616 86.1076 238.107 85.8782 239.068 86.2858L239.062 86.7526C237.619 88.3567 234.608 88.4675 232.752 87.6578C228.931 85.9905 228.553 79.9643 229.956 76.5686C230.669 74.8427 231.62 74.1921 233.254 73.5649Z" fill="white"/>
<path d="M147.307 17.053C150.225 16.8815 152.873 17.2413 152.131 21.5137C151.965 22.4719 151.563 23.2702 150.687 23.7913C150.101 23.8101 148.508 23.894 148.026 23.7694C144.923 22.9678 144.936 18.6748 147.307 17.053Z" fill="white"/>
<path d="M265.879 73.1108L266.658 73.5808C267.398 75.0482 267.165 84.2048 267.004 86.2073C268.39 86.2339 271.928 86.2705 273.098 86.8755L273.177 87.2432L272.738 87.4593C270.109 87.9326 268.045 88.0065 265.415 87.9604C265.302 85.4379 264.931 74.6495 265.879 73.1108Z" fill="white"/>
<path d="M217.343 17.0577C218.235 17.0251 219.387 16.8861 220.16 17.2751C220.855 18.2738 220.539 56.9299 220.529 60.9033C219.212 60.788 217.791 60.6877 216.49 60.5123C217.464 60.4551 219.253 60.4686 219.868 59.8277C220.38 50.7641 219.764 41.1799 219.995 32.0656C220.108 27.5835 220.065 22.6243 219.895 18.15C219.489 17.5905 218.14 17.3181 217.343 17.0577Z" fill="white"/>
<path d="M219.259 73.0854C219.812 73.1949 219.883 73.2847 220.268 73.7107C221.06 76.2286 220.917 85.4647 220.385 88.2065C219.818 88.1232 219.687 88.1073 219.281 87.7082C218.539 85.6694 218.775 75.4561 219.259 73.0854Z" fill="white"/>
<path d="M317.931 0H318.555C321.297 5.13897 325.094 9.8398 327.798 15.319C335.02 29.9555 339.158 45.5454 341.245 61.7097C341.504 63.667 342.361 69.3108 342.279 70.9324C341.789 74.999 341.799 89.0217 342.269 93.0211C342.303 94.7053 341.398 99.8478 341.087 101.798C338.524 99.2143 333.82 93.4439 331.509 90.5052C331.081 86.049 331.576 79.3247 331.241 74.2667C330.233 59.0493 328.386 45.3236 323.127 30.9008C321.49 26.4107 319.817 21.3449 317.282 17.2348C317.338 24.8195 316.963 31.9285 316.722 39.4787L316.094 61.9974C313.802 61.7321 307.595 61.9929 306.162 61.2242C305.525 59.0346 306.187 49.098 306.266 46.1255C306.409 38.2619 306.599 30.3992 306.836 22.5379C307.088 15.271 307.547 7.57331 307.496 0.338107C309.879 3.55529 312.455 7.99989 314.566 11.4558C315.308 12.6696 316.578 16.42 317.355 16.8497C317.485 16.3138 317.512 15.7899 317.513 15.2412C317.519 10.1565 317.752 5.08138 317.931 0Z" fill="white"/>
<path d="M0 17.4629C7.56329 16.0945 19.0971 15.1251 25.7359 19.5005C31.5378 23.3243 31.9915 33.2939 28.1816 38.6078C26.2204 41.4783 21.6208 44.3348 18.108 44.2448C18.0608 44.2238 18.0131 44.2038 17.965 44.185C16.9276 43.7757 7.9769 43.8153 6.90046 44.2763C6.07588 45.7446 6.5723 58.3373 6.57217 60.8211C4.1621 60.6046 2.24434 60.6644 0 60.5123V17.4629ZM6.47217 22.3561C6.66387 25.4563 6.83428 35.7966 6.50533 38.6557C9.81831 38.5456 13.4781 39.0848 16.6893 38.5332C19.0114 38.2865 20.7615 37.8444 22.2592 35.9224C24.81 32.6486 24.5535 26.7423 21.1541 24.1503C18.7272 22.2997 15.7446 22.0841 12.875 22.1149C11.0856 22.2073 8.18033 22.4414 6.47217 22.3561Z" fill="white"/>
<path d="M295.245 61.1265C298.817 61.694 302.164 61.2506 305.363 61.6544C307.161 63.0086 308.212 64.1063 309.66 65.8162C316.689 74.117 324.233 82.0251 331.164 90.4031C331.224 92.4518 330.734 100.085 330.207 102H329.337C328.411 100.01 324.746 96.3223 323.189 94.4765C316.962 86.999 310.673 79.5733 304.323 72.2003C302.686 70.2787 296.243 62.9794 295.245 61.1265Z" fill="white"/>
<path d="M342.279 70.9326C342.677 73.3867 342.762 90.7888 342.269 93.0213C341.799 89.0219 341.789 74.9992 342.279 70.9326Z" fill="white"/>
<path d="M6.90046 44.2762C7.9769 43.8152 16.9276 43.7756 17.965 44.1849C18.0131 44.2037 18.0608 44.2237 18.108 44.2447C16.2783 44.7357 8.7447 44.7924 6.90046 44.2762Z" fill="white"/>
</svg>
