<svg width="842" height="231" viewBox="0 0 842 231" fill="none" xmlns="http://www.w3.org/2000/svg">
<g clip-path="url(#clip0_2036_163)">
<path d="M109.3 1L106.9 3.9L115 7.5L109.3 1Z" fill="white"/>
<path d="M109.3 9.9999L109.8 10.1999L109.5 9.8999L109.3 9.9999Z" fill="white"/>
<path d="M43.6 222.5L47.2 230.2H69.6L73.2 222.5L49.8 212.3L43.6 222.5Z" fill="white"/>
<path d="M35.5 205.5L39.7 214.4L49.3 199.2L85.7 215.6L79.1 230.2H88.2L96.6 211.5L46.1 188.6L35.5 205.5Z" fill="white"/>
<path d="M28.3 190.3L32.1 198.2L48.9 174L106.9 201.6L94.5 230.2H102.8L116.8 197.9L46.3 164.4L28.3 190.3Z" fill="white"/>
<path d="M21.4 175.7L24.8 182.8L48.6 150.9L128.1 187.7L108.6 230.2H116.3L137.2 184.3L46.4 142.3L21.4 175.7Z" fill="white"/>
<path d="M14.4 160.9L17.4 167.2L48.3 127.9L149.2 173.7L122.6 230.2H129.5L157.6 170.7L46.4 120.2L14.4 160.9Z" fill="white"/>
<path d="M7.29999 145.8L9.99999 151.4L48.1 104.9L170.4 159.8L136.5 230.2H142.7L177.9 157L46.5 98.1001L7.29999 145.8Z" fill="white"/>
<path d="M0.1 130.7L0 130.4L0.1 130.7L2.5 135.6L47.8 82L191.6 145.8L150.3 230.2H155.7L198.3 143.4L46.5 76L0.1 130.7Z" fill="white"/>
<path d="M72.3 44.9001L192.8 99.3001L187.4 92.9001L74.7 42.1001L72.3 44.9001Z" fill="white"/>
<path d="M84.8 30.1999L164.4 65.9999L159 59.5999L87.2 27.3999L84.8 30.1999Z" fill="white"/>
<path d="M97.2 15.4L136.7 33.1L131.2 26.7L99.6 12.5L97.2 15.4Z" fill="white"/>
<path d="M58.1 61.8L213.4 132.5L164.9 230.2H169.8L202 165.2L219.2 130.4H219.1L61 58.3L58.1 61.8Z" fill="white"/>
<path d="M282.4 132.3L271.6 116.8C270.9 116.9 270.2 116.9 269.6 116.9H257.7V132.3H247.9V79.5H269.6C283.5 79.5 292.1 86.6 292.1 98.3C292.1 106.3 288 112.2 280.9 115L293.1 132.4H282.4V132.3ZM269.1 87.8H257.6V108.9H269.1C277.7 108.9 282.2 105 282.2 98.3C282.2 91.6 277.7 87.8 269.1 87.8Z" fill="white"/>
<path d="M298.8 112.2C298.8 100.1 307.9 91.6001 320.2 91.6001C332.7 91.6001 341.7 100.1 341.7 112.2C341.7 124.3 332.7 132.9 320.2 132.9C307.8 132.9 298.8 124.2 298.8 112.2ZM332.2 112.2C332.2 104.5 327.1 99.6001 320.2 99.6001C313.4 99.6001 308.3 104.5 308.3 112.2C308.3 119.9 313.4 124.8 320.2 124.8C327.1 124.8 332.2 119.9 332.2 112.2Z" fill="white"/>
<path d="M387.4 92L368.5 135.5C364.8 144.6 359.7 147.4 353 147.4C349 147.4 344.8 146 342.2 143.7L346 136.8C347.8 138.5 350.4 139.6 352.9 139.6C356.2 139.6 358.2 138 360 134L360.7 132.4L343.1 92H352.9L365.6 121.8L378.3 92H387.4Z" fill="white"/>
<path d="M427 108.7V132.3H418.1V127.4C415.8 130.9 411.5 132.8 405.4 132.8C396.2 132.8 390.4 127.7 390.4 120.7C390.4 114 394.9 108.7 407.2 108.7H417.6V108.1C417.6 102.6 414.3 99.2999 407.6 99.2999C403.1 99.2999 398.4 100.8 395.4 103.3L391.7 96.3999C396 93.0999 402.3 91.3999 408.8 91.3999C420.3 91.5999 427 97.0999 427 108.7ZM417.6 119.7V115H407.9C401.5 115 399.7 117.4 399.7 120.4C399.7 123.8 402.6 126 407.4 126C412 126 416 123.9 417.6 119.7Z" fill="white"/>
<path d="M437.8 76.3H447.2V132.3H437.8V76.3Z" fill="white"/>
<path d="M515.6 120.1H489.2L484 132.3H473.9L497.7 79.5H507.4L531.2 132.3H520.9L515.6 120.1ZM512.4 112.4L502.4 89.3L492.5 112.4H512.4Z" fill="white"/>
<path d="M533.7 112.2C533.7 100.1 542.8 91.6001 555.5 91.6001C563.3 91.6001 569.6 94.8001 572.7 101L565.5 105.2C563.1 101.4 559.5 99.6001 555.5 99.6001C548.6 99.6001 543.3 104.4 543.3 112.2C543.3 120 548.6 124.8 555.5 124.8C559.5 124.8 563.1 123.1 565.5 119.2L572.7 123.4C569.6 129.4 563.3 132.8 555.5 132.8C542.7 132.9 533.7 124.2 533.7 112.2Z" fill="white"/>
<path d="M614.6 108.7V132.3H605.7V127.4C603.4 130.9 599.1 132.8 593 132.8C583.8 132.8 578 127.7 578 120.7C578 114 582.5 108.7 594.8 108.7H605.2V108.1C605.2 102.6 601.9 99.3001 595.2 99.3001C590.7 99.3001 586 100.8 583 103.3L579.3 96.4001C583.6 93.1001 589.9 91.4001 596.4 91.4001C607.9 91.6001 614.6 97.1001 614.6 108.7ZM605.1 119.7V115H595.4C589 115 587.2 117.4 587.2 120.4C587.2 123.8 590.1 126 594.9 126C599.5 126 603.5 123.9 605.1 119.7Z" fill="white"/>
<path d="M666.1 76.3V132.3H657V127.1C653.8 130.9 649.2 132.8 643.6 132.8C631.9 132.8 623.2 124.7 623.2 112.1C623.2 99.5 631.9 91.5 643.6 91.5C648.8 91.5 653.4 93.2 656.6 96.9V76.3H666.1ZM656.8 112.2C656.8 104.5 651.6 99.6 644.8 99.6C638 99.6 632.8 104.5 632.8 112.2C632.8 119.9 638 124.8 644.8 124.8C651.6 124.8 656.8 119.9 656.8 112.2Z" fill="white"/>
<path d="M716.2 115.2H684.6C685.7 121.1 690.6 124.9 697.7 124.9C702.2 124.9 705.8 123.5 708.6 120.5L713.7 126.3C710.1 130.6 704.4 132.9 697.5 132.9C684 132.9 675.2 124.2 675.2 112.2C675.2 100.2 684 91.6001 696 91.6001C707.8 91.6001 716.4 99.8001 716.4 112.4C716.4 113.2 716.3 114.3 716.2 115.2ZM684.5 108.9H707.4C706.6 103.1 702.2 99.1001 696 99.1001C689.9 99.1001 685.4 103 684.5 108.9Z" fill="white"/>
<path d="M792.8 109.2V132.3H783.4V110.4C783.4 103.2 780.1 99.8 774.3 99.8C768.1 99.8 763.8 103.9 763.8 111.9V132.4H754.4V110.5C754.4 103.3 751.1 99.9 745.3 99.9C739 99.9 734.8 104 734.8 112V132.5H725.4V92H734.4V97.1C737.4 93.5 742.1 91.5 747.6 91.5C753.5 91.5 758.4 93.7 761.2 98.2C764.4 94 769.9 91.5 776.3 91.5C786 91.6 792.8 97.1 792.8 109.2Z" fill="white"/>
<path d="M841.9 92L823 135.6C819.3 144.7 814.2 147.5 807.5 147.5C803.5 147.5 799.3 146.1 796.7 143.8L800.5 136.9C802.3 138.6 804.9 139.7 807.4 139.7C810.7 139.7 812.7 138.1 814.5 134.1L815.2 132.5L797.6 92H807.4L820.1 121.8L832.8 92H841.9Z" fill="white"/>
<path d="M243.6 195.3C243.6 183.2 252.7 174.7 265 174.7C277.5 174.7 286.5 183.2 286.5 195.3C286.5 207.4 277.5 216 265 216C252.7 216 243.6 207.3 243.6 195.3ZM277 195.3C277 187.6 271.9 182.7 265 182.7C258.2 182.7 253.1 187.6 253.1 195.3C253.1 203 258.2 207.9 265 207.9C271.9 207.9 277 203 277 195.3Z" fill="white"/>
<path d="M306 173V175.4H317.1V182.9H306.3V215.4H296.9V183H290.3V175.5H296.9V172.9C296.9 164.4 302 158.9 311.3 158.9C314.5 158.9 317.7 159.6 319.8 161.1L317.2 168.2C315.8 167.2 314 166.5 312 166.5C308.1 166.5 306 168.7 306 173Z" fill="white"/>
<path d="M384.8 207.2V215.4H345.2V162.6H383.8V170.8H355V184.5H380.5V192.6H355V207.2H384.8Z" fill="white"/>
<path d="M434.6 192.3V215.4H425.2V193.5C425.2 186.3 421.7 182.9 415.6 182.9C408.9 182.9 404.4 187 404.4 195.1V215.5H395V175.2H404V180.4C407.1 176.7 412 174.7 417.9 174.7C427.4 174.7 434.6 180.2 434.6 192.3Z" fill="white"/>
<path d="M486.6 175.1V209.3C486.6 223.9 479 230.6 464.9 230.6C457.4 230.6 449.9 228.6 445.3 224.9L449.5 217.8C453 220.7 458.8 222.6 464.4 222.6C473.3 222.6 477.2 218.5 477.2 210.4V208.3C473.9 211.9 469.1 213.7 463.7 213.7C452.2 213.7 443.3 205.9 443.3 194.2C443.3 182.5 452.1 174.8 463.7 174.8C469.4 174.8 474.3 176.6 477.7 180.6V175.2H486.6V175.1ZM477.3 194.1C477.3 187.3 472.2 182.7 465.1 182.7C457.9 182.7 452.8 187.3 452.8 194.1C452.8 201 457.9 205.6 465.1 205.6C472.1 205.6 477.3 200.9 477.3 194.1Z" fill="white"/>
<path d="M497.7 162.8C497.7 159.6 500.3 157.1 503.7 157.1C507.1 157.1 509.7 159.4 509.7 162.5C509.7 165.8 507.2 168.4 503.7 168.4C500.2 168.5 497.7 166 497.7 162.8ZM498.9 175.1H508.3V215.4H498.9V175.1Z" fill="white"/>
<path d="M560.4 192.3V215.4H551V193.5C551 186.3 547.5 182.9 541.4 182.9C534.7 182.9 530.2 187 530.2 195.1V215.5H520.8V175.2H529.8V180.4C532.9 176.7 537.8 174.7 543.7 174.7C553.3 174.7 560.4 180.2 560.4 192.3Z" fill="white"/>
<path d="M610.2 198.3H578.6C579.7 204.2 584.6 208 591.7 208C596.2 208 599.8 206.6 602.6 203.6L607.7 209.4C604.1 213.7 598.4 216 591.5 216C578 216 569.2 207.3 569.2 195.3C569.2 183.3 578 174.7 590 174.7C601.8 174.7 610.4 182.9 610.4 195.5C610.3 196.3 610.3 197.4 610.2 198.3ZM578.5 192H601.4C600.6 186.2 596.2 182.2 590 182.2C583.8 182.2 579.4 186.1 578.5 192Z" fill="white"/>
<path d="M657.1 198.3H625.5C626.6 204.2 631.5 208 638.6 208C643.1 208 646.7 206.6 649.5 203.6L654.6 209.4C651 213.7 645.3 216 638.4 216C624.9 216 616.1 207.3 616.1 195.3C616.1 183.3 624.9 174.7 636.9 174.7C648.7 174.7 657.3 182.9 657.3 195.5C657.3 196.3 657.2 197.4 657.1 198.3ZM625.4 192H648.3C647.5 186.2 643.1 182.2 636.9 182.2C630.8 182.2 626.3 186.1 625.4 192Z" fill="white"/>
<path d="M689.7 174.7V183.7C688.9 183.5 688.2 183.5 687.5 183.5C680.3 183.5 675.8 187.7 675.8 196V215.5H666.4V175.2H675.4V181.1C678 176.8 682.9 174.7 689.7 174.7Z" fill="white"/>
<path d="M696.7 162.8C696.7 159.6 699.3 157.1 702.7 157.1C706.1 157.1 708.7 159.4 708.7 162.5C708.7 165.8 706.2 168.4 702.7 168.4C699.3 168.5 696.7 166 696.7 162.8ZM698 175.1H707.4V215.4H698V175.1Z" fill="white"/>
<path d="M759.5 192.3V215.4H750.1V193.5C750.1 186.3 746.6 182.9 740.5 182.9C733.8 182.9 729.3 187 729.3 195.1V215.5H719.9V175.2H728.9V180.4C732 176.7 736.9 174.7 742.8 174.7C752.4 174.7 759.5 180.2 759.5 192.3Z" fill="white"/>
<path d="M812.3 175.1V209.3C812.3 223.9 804.7 230.6 790.6 230.6C783.1 230.6 775.6 228.6 771 224.9L775.2 217.8C778.7 220.7 784.5 222.6 790.1 222.6C799 222.6 802.9 218.5 802.9 210.4V208.3C799.6 211.9 794.8 213.7 789.4 213.7C777.9 213.7 769 205.9 769 194.2C769 182.5 777.8 174.8 789.4 174.8C795.1 174.8 800 176.6 803.4 180.6V175.2H812.3V175.1ZM803 194.1C803 187.3 797.9 182.7 790.8 182.7C783.6 182.7 778.5 187.3 778.5 194.1C778.5 201 783.6 205.6 790.8 205.6C797.9 205.6 803 200.9 803 194.1Z" fill="white"/>
</g>
<defs>
<clipPath id="clip0_2036_163">
<rect width="841.9" height="230.4" fill="white"/>
</clipPath>
</defs>
</svg>
