<svg viewBox="0 0 240 60" fill="currentColor" xmlns="http://www.w3.org/2000/svg">
  <path d="M99.4 20.7c0-3.8-3-6.8-6.8-6.8-3.8 0-6.8 3-6.8 6.8v16.6h-8.4V13.9h8.1v3.5c2.1-2.7 5.3-4.2 8.9-4.2 7.1 0 12.8 5.7 12.8 12.8v24.3h-8.4V20.7h.6zM125.8 13.2c8.3 0 15 6.7 15 15s-6.7 15-15 15-15-6.7-15-15 6.7-15 15-15zm0 22.5c4.1 0 7.4-3.3 7.4-7.5s-3.3-7.5-7.4-7.5-7.4 3.3-7.4 7.5 3.3 7.5 7.4 7.5zM159.5 13.9v3.3c2.1-2.5 5.1-4 8.3-4 3.2 0 6.2 1.5 8.3 4 2.1-2.5 5.1-4 8.3-4 7.1 0 12.8 5.7 12.8 12.8v24.3h-8.4V25.7c0-3.8-3-6.8-6.8-6.8-3.8 0-6.8 3-6.8 6.8v24.6h-8.4V25.7c0-3.8-3-6.8-6.8-6.8-3.8 0-6.8 3-6.8 6.8v24.6h-8.4V13.9h8.7zM223.5 35.7l7.4-2.5c.8 3.8 3.5 6.5 7.6 6.5 3 0 5.3-1.5 5.3-3.5 0-1.5-1-2.5-3.3-3l-6.3-1.5c-6-1.5-9.5-5-9.5-10.5 0-6.5 5.5-11.5 13-11.5 7.6 0 12.8 4.5 14.3 10.5l-7.1 2.5c-.8-3-3-5.5-7.1-5.5-3 0-5 1.5-5 3.5 0 1.5 1 2.5 3 3l6.5 1.5c6.5 1.5 9.8 5 9.8 10.5 0 6.5-5.8 11.5-13.8 11.5-8.4 0-13.8-4.5-15.3-11z"/>
  <circle cx="15" cy="15" r="6"/>
  <circle cx="15" cy="45" r="6"/>
  <circle cx="45" cy="15" r="6"/>
  <circle cx="45" cy="45" r="6"/>
  <rect x="12" y="24" width="6" height="12" rx="3"/>
  <rect x="24" y="12" width="12" height="6" rx="3"/>
  <rect x="42" y="24" width="6" height="12" rx="3"/>
  <rect x="24" y="42" width="12" height="6" rx="3"/>
</svg>
